<svg xmlns="http://www.w3.org/2000/svg" version="1.1" xmlns:xlink="http://www.w3.org/1999/xlink" xmlns:svgjs="http://svgjs.com/svgjs" width="1000" height="1000"><style>
    #light-icon {
      display: inline;
    }
    #dark-icon {
      display: none;
    }

    @media (prefers-color-scheme: dark) {
      #light-icon {
        display: none;
      }
      #dark-icon {
        display: inline;
      }
    }
  </style><g id="light-icon"><svg xmlns="http://www.w3.org/2000/svg" version="1.1" xmlns:xlink="http://www.w3.org/1999/xlink" xmlns:svgjs="http://svgjs.com/svgjs" width="1000" height="1000"><rect width="1000" height="1000" rx="500" ry="500" fill="#cadbc0"></rect><g transform="matrix(11.134989601422935,0,0,11.134989601422935,-0.0011848790883277616,-0.001996968126718457)"><svg xmlns="http://www.w3.org/2000/svg" version="1.1" xmlns:xlink="http://www.w3.org/1999/xlink" xmlns:svgjs="http://svgjs.com/svgjs" width="89.806999" height="89.806999"><svg viewBox="0 -7.61 89.806996 89.806996" x="0px" y="0px" version="1.1" id="svg269" sodipodi:docname="noun-romanesco-1680562.svg" width="89.806999" height="89.806999" inkscape:version="1.2.2 (b0a8486541, 2022-12-01)" xmlns:inkscape="http://www.inkscape.org/namespaces/inkscape" xmlns:sodipodi="http://sodipodi.sourceforge.net/DTD/sodipodi-0.dtd" xmlns="http://www.w3.org/2000/svg" xmlns:svg="http://www.w3.org/2000/svg" xmlns:rdf="http://www.w3.org/1999/02/22-rdf-syntax-ns#" xmlns:cc="http://creativecommons.org/ns#" xmlns:dc="http://purl.org/dc/elements/1.1/">
  <defs id="defs273"></defs>
  <sodipodi:namedview id="namedview271" pagecolor="#ffffff" bordercolor="#666666" borderopacity="1.0" inkscape:showpageshadow="2" inkscape:pageopacity="0.0" inkscape:pagecheckerboard="0" inkscape:deskcolor="#d1d1d1" showgrid="false" inkscape:zoom="5.8345623" inkscape:cx="44.819129" inkscape:cy="46.61875" inkscape:window-width="960" inkscape:window-height="740" inkscape:window-x="1502" inkscape:window-y="154" inkscape:window-maximized="0" inkscape:current-layer="svg269"></sodipodi:namedview>
  <title id="title9">romanesco</title>
  <g data-name="Calque 2" id="g263" transform="translate(0.02359917,0.00138093)" style="fill:#2f0a28;fill-opacity:1">
    <g data-name="Calque 1" id="g261" style="fill:#2f0a28;fill-opacity:1">
      <path d="m 23.67,49.59 c 0.33,0.21 0.54,0.6 1,0.67 0.21,-0.06 0.17,-0.27 0.27,-0.4 0.33,-0.41 0.69,-0.49 1,-0.25 0.31,0.24 0.4,0.6 0.13,1 a 0.57,0.57 0 0 1 -0.14,0.14 c -0.24,0.19 0,0.28 0.09,0.35 0.09,0.07 0.33,0.12 0.36,-0.13 A 1.29,1.29 0 0 1 26.51,50.39 0.92,0.92 0 0 1 27.56,50 c 0.38,0.15 0.5,0.47 0.34,1 a 2.27,2.27 0 0 1 -0.16,0.33 c 0.07,0 0.1,0.07 0.12,0.06 0.44,-0.1 0.89,-0.21 1,0.4 0.11,0.44 -0.29,0.92 -0.88,1 a 3.87,3.87 0 0 1 -1.79,-0.1 7.87,7.87 0 0 1 -2.44,-1.16 c -0.54,-0.38 -0.56,-0.55 -1.12,0.14 a 30.43,30.43 0 0 0 -3.13,4.91 9.68,9.68 0 0 1 -1.13,2 c -0.18,0.2 -0.23,0.39 0,0.6 a 9,9 0 0 0 1.89,1.47 12.56,12.56 0 0 1 0.06,-2.82 3.29,3.29 0 0 1 4.28,-2.63 1.14,1.14 0 0 0 1.11,-0.2 9.51,9.51 0 0 1 2.9,-1.57 c 0.59,-0.18 1.17,-0.35 1.68,0.19 0.14,0.15 0.27,0.08 0.44,0 a 2,2 0 0 1 2.11,1.74 0.65,0.65 0 0 1 -0.42,0.63 0.62,0.62 0 0 1 -0.73,-0.2 c -0.45,-0.49 -0.9,-1 -1.34,-1.48 -1.25,0.65 -2.67,0.93 -3.76,2 0.6,0.71 1.34,1.28 1.87,2 l 1.65,2.37 c 0.66,-0.9 1.41,-0.08 2.13,-0.16 0.28,0 0.33,0.45 0.22,0.76 a 6,6 0 0 1 -0.71,1.44 0.57,0.57 0 0 0 0,0.73 24,24 0 0 0 2.33,2.89 c 0,0 0.12,0 0.18,0 0.1,-0.15 0,-0.25 -0.1,-0.34 A 6.78,6.78 0 0 1 33,61.85 a 17,17 0 0 1 0.29,-3.6 7,7 0 0 1 1.27,-2.71 11.15,11.15 0 0 1 7.9,-4.49 11.37,11.37 0 0 1 3.4,0 1.15,1.15 0 0 0 0.71,0 c 0,-0.39 -0.29,-0.66 -0.42,-1 A 1.72,1.72 0 0 1 46,48.91 a 0.67,0.67 0 0 1 0.64,-0.55 0.57,0.57 0 0 1 0.65,0.5 3.78,3.78 0 0 0 5.26,2.52 c -0.16,-0.34 -0.57,-0.59 -0.42,-1 a 0.84,0.84 0 0 1 0.35,-0.47 c 0.43,-0.27 0.74,-0.15 1.28,0.53 0.25,-0.14 0.51,-0.51 0.36,-0.59 -0.35,-0.19 -0.47,-0.68 -0.92,-0.68 -0.16,0 -0.34,0.09 -0.49,0.06 a 0.79,0.79 0 0 1 -0.67,-0.77 0.74,0.74 0 0 1 0.47,-0.81 0.76,0.76 0 0 1 0.9,0.23 c 0.15,0.16 0.13,0.45 0.44,0.48 a 0.67,0.67 0 0 0 0.82,-0.67 c 0,-0.07 0,-0.13 0,-0.2 0.07,-0.36 0.24,-0.64 0.64,-0.65 0.4,-0.01 0.59,0.25 0.69,0.61 a 5.2,5.2 0 0 1 -2,5.06 5.74,5.74 0 0 1 -3.67,1 10.51,10.51 0 0 1 3,10.78 1.17,1.17 0 0 1 1.46,0.07 4,4 0 0 0 3.73,0.47 9.18,9.18 0 0 0 3.41,-1.86 3.58,3.58 0 0 0 1.07,-2.57 2.69,2.69 0 0 0 -1.7,-2.71 8.57,8.57 0 0 0 -3.08,-0.83 2.81,2.81 0 0 0 -2.37,1.07 c -0.2,0.23 -0.37,0.48 -0.58,0.69 A 0.67,0.67 0 0 1 54.35,58.7 0.71,0.71 0 0 1 54.08,57.81 1.72,1.72 0 0 1 54.36,57.28 4.78,4.78 0 0 1 58.85,55.35 8.69,8.69 0 0 1 63,57.13 4.39,4.39 0 0 1 64.17,62 7.46,7.46 0 0 1 62.06,65 4.3,4.3 0 0 0 61.42,65.64 5.27,5.27 0 0 0 65,63 3,3 0 0 0 65.22,61 5,5 0 0 1 65.1,60 c 0,-0.64 0.19,-0.95 0.81,-1.1 a 2.69,2.69 0 0 0 2,-1.5 1,1 0 0 1 1,-0.52 2.22,2.22 0 0 0 1.09,-0.16 c 0.13,-0.21 0,-0.27 -0.11,-0.35 a 0.74,0.74 0 0 1 -0.15,-0.92 0.77,0.77 0 0 1 1,-0.3 2.89,2.89 0 0 0 1.33,0.06 c -0.21,-0.44 -0.66,-0.84 -0.18,-1.34 a 0.68,0.68 0 0 1 0.83,-0.14 c 0.58,0.28 0.48,0.79 0.28,1.33 a 2.45,2.45 0 0 0 1.33,-0.47 c -0.3,-0.43 -0.56,-0.84 -0.17,-1.36 0.17,-0.22 -0.19,-0.28 -0.31,-0.41 a 0.62,0.62 0 0 1 -0.07,-0.9 0.55,0.55 0 0 1 0.72,-0.17 0.61,0.61 0 0 1 0.32,0.84 2.14,2.14 0 0 1 -0.25,0.37 l 0.79,0.63 A 8.46,8.46 0 0 0 78.31,49 0.58,0.58 0 0 0 77.91,48.23 c -1.48,-0.63 -2.94,-1.3 -4.4,-2 a 4.28,4.28 0 0 0 -2.21,-0.28 2.19,2.19 0 0 0 0.25,1.05 2.08,2.08 0 0 1 0.2,1 c -0.37,2.22 -0.7,4.46 -2.38,6.17 -1.46,1.48 -3.14,2.57 -5.32,2.38 a 5.76,5.76 0 0 1 -5,-3.8 7.82,7.82 0 0 1 -0.13,-5.61 11.71,11.71 0 0 1 3.57,-5.14 3.32,3.32 0 0 1 1.38,-0.8 c 0.4,-0.1 0.84,-0.14 1,0.34 0.16,0.48 -0.13,0.68 -0.46,0.88 a 10.67,10.67 0 0 0 -3.22,3.41 7.28,7.28 0 0 0 -1.19,4.61 5.79,5.79 0 0 0 0.53,2 4.22,4.22 0 0 0 6,2.05 c -0.08,-0.38 -0.59,-0.65 -0.37,-1.13 a 1,1 0 0 1 0.37,-0.46 c 0.46,-0.28 0.85,-0.1 1.36,0.64 0.3,-0.2 0.71,-0.33 0.24,-0.8 a 0.55,0.55 0 0 1 0,-0.74 0.48,0.48 0 0 1 0.62,-0.2 c 0.6,0.37 0.75,0 0.93,-0.46 0.08,-0.19 0.15,-0.37 0.22,-0.56 0.07,-0.19 0.13,-0.51 -0.27,-0.59 a 0.59,0.59 0 0 1 -0.49,-0.75 0.62,0.62 0 0 1 0.82,-0.52 c 0.39,0.1 0.44,-0.11 0.53,-0.4 a 2.57,2.57 0 0 0 -0.22,-1.65 c -0.16,-0.48 -0.41,-1 0.26,-1.28 a 0.17,0.17 0 0 0 0.11,-0.24 C 70.5,45.05 70.33,44.76 70.2,44.45 70.07,44.14 69.74,44.2 69.44,44.23 a 1.28,1.28 0 0 1 -1.19,-0.78 0.56,0.56 0 0 1 0.19,-0.79 c 0.14,-0.11 0.41,-0.12 0.32,-0.42 -0.21,-0.69 0.35,-0.93 0.74,-1.27 l 0.19,-0.2 A 1.22,1.22 0 0 0 70.34,40.32 2.11,2.11 0 0 0 71,39.47 c -0.2,-0.18 -0.62,-0.22 -0.66,-0.6 a 0.68,0.68 0 0 1 0.09,-0.48 c 0.21,-0.31 0.5,-0.32 1.24,0 a 0.74,0.74 0 0 0 0.28,-0.4 20,20 0 0 0 0.94,-3.38 c 0.15,-0.6 0,-0.77 -0.58,-0.72 A 7.78,7.78 0 0 1 69,33.45 12.19,12.19 0 0 0 65.85,33 c -0.2,0 -0.4,0 -0.6,0 -0.6,0 -0.93,-0.27 -1,-0.67 -0.07,-0.4 0.27,-0.78 0.9,-0.88 a 7.47,7.47 0 0 1 2.69,0.21 c 0.62,0.13 1.23,0.32 1.84,0.48 a 11.28,11.28 0 0 0 2.16,0.43 2.43,2.43 0 0 0 2.51,-1 8.55,8.55 0 0 1 2.23,-1.86 c 1.12,-0.8 2.27,-1.55 3.43,-2.29 0.75,-0.47 1.2,-0.35 1.73,0.34 a 2.15,2.15 0 0 1 0,3.1 46.56,46.56 0 0 0 -4.07,6.69 34.39,34.39 0 0 0 -2.75,6.79 0.9,0.9 0 0 0 0.85,1.21 c 0.22,0 0.29,-0.13 0.35,-0.29 0.13,-0.38 0.26,-0.76 0.39,-1.14 a 37.35,37.35 0 0 1 1.89,-5.08 c 0.83,-1.63 2.08,-1.7 3.13,-0.2 a 3.93,3.93 0 0 1 0.55,3.27 c -0.2,0.85 -0.48,1.67 -0.71,2.51 -0.08,0.31 -0.32,0.61 -0.13,1 0.35,-0.22 0.39,-0.61 0.51,-0.93 0.6,-1.56 1.18,-3.14 1.78,-4.7 a 10.48,10.48 0 0 1 1,-2 4.33,4.33 0 0 1 1,-1.11 2.66,2.66 0 0 1 2.83,-0.43 2.49,2.49 0 0 1 1.42,2.37 16.65,16.65 0 0 1 -0.49,4.38 30.24,30.24 0 0 1 -3.1,7.8 35.49,35.49 0 0 1 -6.47,8.8 15.75,15.75 0 0 1 -5.72,3.77 0.73,0.73 0 0 0 -0.58,0.61 3.74,3.74 0 0 1 -1.73,2.48 c -0.24,0.17 -0.41,0.32 -0.35,0.64 a 3.15,3.15 0 0 1 -1.2,2.84 14.19,14.19 0 0 1 -4.74,3.15 17.77,17.77 0 0 1 -10.56,0.86 8.29,8.29 0 0 1 -4.54,-2.42 0.9,0.9 0 0 0 -1.22,-0.27 8.76,8.76 0 0 1 -1.41,0.52 2.74,2.74 0 0 0 -1.67,1.14 4,4 0 0 1 -4.71,1.07 13.3,13.3 0 0 0 -2.65,-1.13 15.93,15.93 0 0 0 -3.51,-0.83 1.09,1.09 0 0 0 -1.1,0.46 4.91,4.91 0 0 1 -4.89,1.79 5.44,5.44 0 0 1 -2.94,-1.56 13.93,13.93 0 0 1 -3.8,-5.73 2.14,2.14 0 0 0 -2.4,-1.72 15.19,15.19 0 0 1 -4.86,-0.65 2.4,2.4 0 0 1 -1,-0.44 0.81,0.81 0 0 1 -0.25,-1 0.73,0.73 0 0 1 0.82,-0.46 12.51,12.51 0 0 1 1.47,0.31 34,34 0 0 0 4.47,0.68 1.67,1.67 0 0 0 0.39,0 C 20.89,62.66 20.85,62.75 19.69,62.49 A 24.36,24.36 0 0 1 12.69,59.9 19.56,19.56 0 0 1 4.3,50.97 24.8,24.8 0 0 1 2.6,44.58 c 0,-0.2 -0.05,-0.39 -0.08,-0.61 -0.35,0.17 -0.28,0.47 -0.3,0.72 a 10.94,10.94 0 0 0 0.49,4 29,29 0 0 0 4,8.53 12,12 0 0 0 2.49,2.74 2.69,2.69 0 0 1 0.3,0.26 0.66,0.66 0 0 1 0.14,0.74 0.69,0.69 0 0 1 -0.73,0.42 1.74,1.74 0 0 1 -1,-0.43 A 8.31,8.31 0 0 1 6.3,59.3 28.62,28.62 0 0 1 0.59,46.7 a 8.8,8.8 0 0 1 0.28,-4.18 2.36,2.36 0 0 1 3.52,-1.45 2.34,2.34 0 0 1 1,1.45 23.55,23.55 0 0 0 2.69,5.82 A 3.77,3.77 0 0 0 9,49.54 18.12,18.12 0 0 0 8.42,39.61 C 8.18,38.84 7.86,38.1 7.6,37.34 A 6.55,6.55 0 0 0 3.4,33.17 C 1,32.35 0.38,30.42 0,28.27 A 1.23,1.23 0 0 1 0.86,26.85 5.42,5.42 0 0 0 2.25,26 3.45,3.45 0 0 1 6.69,26 c 2,1.61 4.07,3.18 6,4.87 a 43.73,43.73 0 0 1 5.46,6.3 c 0.12,0.15 0.23,0.32 0.38,0.52 0.22,-0.34 0,-0.59 -0.06,-0.83 a 56,56 0 0 1 -1.58,-7.87 3,3 0 0 1 1.83,-3.42 1.44,1.44 0 0 0 0.91,-1.19 c 0.1,-0.62 0.35,-1.29 1.1,-1.41 0.75,-0.12 1,0.51 1.33,1 a 17.18,17.18 0 0 1 1.94,5.12 4.25,4.25 0 0 0 0.35,1.18 8.84,8.84 0 0 1 2.84,-0.57 2.16,2.16 0 0 1 1.07,0.21 0.82,0.82 0 0 1 0.5,0.9 0.69,0.69 0 0 1 -0.82,0.58 c -1.64,-0.31 -3,0.42 -4.42,1.05 a 17.89,17.89 0 0 1 -2.43,0.75 c 0.59,1.21 1.15,2.38 1.74,3.54 a 2.1,2.1 0 0 0 1.1,1.12 c 0.58,0.21 0.7,0.62 0.7,1.18 0,0.81 0,0.81 0.87,0.78 0.87,-0.03 1.74,-0.1 2.61,-0.09 a 4.34,4.34 0 0 1 3.72,2 c 0.3,0.44 0.57,0.9 0.85,1.36 0.28,0.46 0.3,0.72 -0.13,1 -0.43,0.28 -0.68,-0.08 -0.89,-0.4 -0.21,-0.32 -0.47,-0.73 -0.7,-1.1 a 3,3 0 0 0 -2.79,-1.49 40.39,40.39 0 0 0 -6.79,0.69 c -0.64,0.13 -0.7,0.2 -0.52,0.79 0.59,1.88 1.21,3.76 1.84,5.64 a 3.56,3.56 0 0 0 1,1.38 z m 15.66,18.85 c 0.14,-0.15 0.07,-0.31 0,-0.47 A 46.73,46.73 0 0 1 39,61.35 2.07,2.07 0 0 1 39.81,59.61 3.38,3.38 0 0 1 41,59 12.06,12.06 0 0 0 42.52,58.49 c 0.68,-0.3 1,-0.13 1.15,0.59 0.1,0.52 0.28,0.82 0.85,0.93 0.57,0.11 0.82,0.44 0.53,1.09 a 0.72,0.72 0 0 0 0.34,1.07 c 0.4,0.22 0.42,0.53 0.26,0.94 a 1.44,1.44 0 0 0 0.35,1.79 0.7,0.7 0 0 1 0.2,1 c -0.12,0.2 -0.3,0.35 -0.25,0.62 0.09,0.53 0.16,1.06 0.23,1.59 0,0.32 0.2,0.49 0.54,0.42 0.34,-0.07 0.46,-0.09 0.68,-0.15 A 6.75,6.75 0 0 0 52.17,60 10.47,10.47 0 0 0 50,55.33 c -0.56,-0.61 -0.82,-1.28 0,-2 A 6.2,6.2 0 0 1 48.33,52.65 C 48.17,52.54 48,52.42 47.78,52.52 a 3.9,3.9 0 0 1 -1.88,0.11 21.48,21.48 0 0 0 -4.21,0.19 9.34,9.34 0 0 0 -6.58,4.51 5.28,5.28 0 0 0 -0.77,2.67 c 0,0.74 0,1.47 0,2.21 a 7,7 0 0 0 4.99,6.23 z M 16.43,43.11 A 8.13,8.13 0 0 0 17.88,41 1.51,1.51 0 0 0 17.77,39.24 C 17,38.14 16.06,37.17 15.26,36.1 12.62,32.56 9.09,30 5.71,27.25 4.8,26.52 4.2,26.6 3.28,27.35 a 4.4,4.4 0 0 1 -1.21,0.89 c -0.39,0.14 -0.41,0.38 -0.31,0.71 0.4,1.24 0.84,2.43 2.31,2.78 a 1.4,1.4 0 0 1 0.28,0.12 9,9 0 0 1 4.65,4.68 33.07,33.07 0 0 1 1.86,5.93 c 0.36,1.72 1,1.9 2.25,1.91 a 6.44,6.44 0 0 0 1.2,-0.1 c 0.8,-0.14 0.84,-0.2 0.52,-1 A 36.15,36.15 0 0 0 11.91,37.66 24.32,24.32 0 0 0 6,30.74 2.61,2.61 0 0 1 5.5,30.25 a 0.67,0.67 0 0 1 0,-0.84 0.72,0.72 0 0 1 0.8,-0.28 1.72,1.72 0 0 1 0.69,0.39 13.36,13.36 0 0 1 2,1.82 41.55,41.55 0 0 1 5,6.81 39.22,39.22 0 0 1 2.44,4.96 z m 4.94,15.34 a 3.58,3.58 0 0 0 0.05,0.43 37.33,37.33 0 0 0 2,6 1.6,1.6 0 0 0 0.34,0.49 0.58,0.58 0 0 0 0.74,0.11 0.55,0.55 0 0 0 0.31,-0.59 4.17,4.17 0 0 0 -0.21,-0.77 c -0.53,-1.52 -1.06,-3 -1.46,-4.59 -0.13,-0.52 -0.2,-1.05 -0.33,-1.57 a 0.7,0.7 0 0 0 -0.79,-0.62 0.75,0.75 0 0 0 -0.67,0.76 3.64,3.64 0 0 0 0.02,0.35 z m 20.75,5.8 H 42 c 0,-0.5 0,-1 -0.07,-1.51 -0.07,-0.51 0,-0.94 -0.06,-1.41 a 0.83,0.83 0 0 0 -1.65,-0.06 2.39,2.39 0 0 0 -0.05,0.7 c 0.1,1.44 0.22,2.87 0.33,4.31 a 2.5,2.5 0 0 0 0.25,1 0.68,0.68 0 0 0 0.74,0.4 0.67,0.67 0 0 0 0.59,-0.6 4.13,4.13 0 0 0 0,-0.6 c 0.05,-0.76 0.05,-1.48 0.05,-2.23 z m 37.8,-11.06 a 1.42,1.42 0 0 0 0.85,-0.65 30.34,30.34 0 0 0 3.28,-5.6 1.16,1.16 0 0 0 0.1,-0.28 0.62,0.62 0 0 0 -0.32,-0.76 0.57,0.57 0 0 0 -0.72,0.17 3.67,3.67 0 0 0 -0.43,0.67 50.6,50.6 0 0 1 -2.93,5 1.89,1.89 0 0 0 -0.4,0.8 0.56,0.56 0 0 0 0.58,0.65 z M 20,31.73 a 38.6,38.6 0 0 1 -0.75,-3.81 0.75,0.75 0 0 0 -0.08,-0.18 0.67,0.67 0 0 0 -0.72,-0.42 0.7,0.7 0 0 0 -0.6,0.58 1.26,1.26 0 0 0 0,0.69 c 0.24,1 0.47,2 0.72,3 a 2.65,2.65 0 0 0 0.26,0.64 0.61,0.61 0 0 0 0.76,0.32 C 20,32.44 20.06,32.15 20,31.73 Z m 58.7,-0.66 a 0.52,0.52 0 0 0 -0.86,-0.43 19.92,19.92 0 0 0 -2.82,2.07 c -0.29,0.26 -0.47,0.6 -0.16,1 a 0.62,0.62 0 0 0 1,0 28.59,28.59 0 0 1 2.42,-1.93 0.86,0.86 0 0 0 0.46,-0.71 z M 16.81,45.65 c -0.39,0 -0.64,0.33 -0.58,0.81 a 7.29,7.29 0 0 0 0.7,2.49 1.42,1.42 0 0 0 0.37,0.47 0.55,0.55 0 0 0 0.66,0 0.48,0.48 0 0 0 0.25,-0.59 c -0.35,-0.9 -0.53,-1.85 -0.83,-2.77 a 0.6,0.6 0 0 0 -0.57,-0.41 z m 61.52,-2.56 c 0,0.33 0,0.63 0.38,0.73 a 0.58,0.58 0 0 0 0.69,-0.27 1.53,1.53 0 0 0 0.18,-0.36 c 0.21,-0.67 0.42,-1.34 0.61,-2 0.11,-0.41 0.1,-0.82 -0.39,-1 -0.49,-0.18 -0.74,0.09 -0.92,0.69 -0.18,0.6 -0.37,1.47 -0.55,2.21 z M 21.05,35.73 a 10.4,10.4 0 0 0 -0.37,-1 0.55,0.55 0 0 0 -0.68,-0.29 0.57,0.57 0 0 0 -0.44,0.6 1.88,1.88 0 0 0 0.44,1.23 0.56,0.56 0 0 0 0.72,0.14 c 0.28,-0.12 0.34,-0.34 0.33,-0.68 z m 5.24,32 a 1.93,1.93 0 0 0 -0.7,-1.16 0.64,0.64 0 0 0 -0.94,0.53 1.53,1.53 0 0 0 1,1.23 0.58,0.58 0 0 0 0.65,-0.63 z M 85,42.92 a 0.5,0.5 0 0 0 -0.56,-0.5 c -0.41,0 -0.57,0.32 -0.59,0.67 a 0.52,0.52 0 0 0 0.51,0.6 0.67,0.67 0 0 0 0.64,-0.77 z m 0.2,-2 a 0.48,0.48 0 0 0 0.43,-0.56 0.42,0.42 0 0 0 -0.47,-0.41 0.44,0.44 0 0 0 -0.49,0.49 0.49,0.49 0 0 0 0.54,0.56 z" id="path11" style="fill:#2f0a28;fill-opacity:1"></path>
      <path d="M 41.41,43.82 A 3.17,3.17 0 0 0 42.78,43.1 C 42.65,42.76 42.09,42.7 42.21,42.32 A 5.1,5.1 0 0 1 42.9,41 a 0.5,0.5 0 0 1 0.73,-0.06 0.62,0.62 0 0 1 0.23,0.79 c -0.1,0.25 -0.42,0.33 -0.48,0.78 a 3.38,3.38 0 0 0 1.27,-1.26 c 0.24,-0.4 0.43,-0.83 0.66,-1.24 0.23,-0.41 0.44,-0.55 0.81,-0.39 0.37,0.16 0.38,0.51 0.24,0.86 C 45.05,43.62 42,46.17 37.91,45 a 4.53,4.53 0 0 1 -3.33,-3.3 6.63,6.63 0 0 1 0.28,-4.7 4.31,4.31 0 0 1 1.9,-2 1.4,1.4 0 0 1 1.16,-0.18 0.76,0.76 0 0 1 0.62,0.7 0.71,0.71 0 0 1 -0.45,0.71 l -0.18,0.08 a 3.08,3.08 0 0 0 -2,2.63 5.77,5.77 0 0 0 -0.09,1 3.56,3.56 0 0 0 3.5,4 c 0.16,0 0.37,0.08 0.43,-0.11 0.06,-0.19 0.1,-0.47 -0.19,-0.6 A 1.46,1.46 0 0 1 39.2,43.07 0.48,0.48 0 0 1 39.1,42.36 c 0.22,-0.28 0.58,-0.37 0.77,-0.09 a 1.22,1.22 0 0 0 1,0.52 c 0.28,0.05 0.32,0.21 0.54,1.03 z" id="path13" style="fill:#2f0a28;fill-opacity:1"></path>
      <path d="m 38.33,23.76 a 0.6,0.6 0 0 1 -0.34,0.66 0.53,0.53 0 0 1 -0.64,-0.15 1.5,1.5 0 0 1 -0.28,-0.41 c -0.73,-1.67 -2.2,-2.26 -3.83,-2.55 a 14,14 0 0 0 -3.91,0 c -0.68,0.07 -0.73,0.11 -0.48,0.72 a 16.47,16.47 0 0 1 0.8,3.31 10.33,10.33 0 0 0 1.1,3.21 4.56,4.56 0 0 0 1.61,1.76 c 0.52,0.32 0.65,0.66 0.46,1.05 a 0.94,0.94 0 0 1 -1.3,0.37 4.48,4.48 0 0 1 -1.93,-2 15.24,15.24 0 0 1 -1.51,-5.08 11.94,11.94 0 0 0 -0.82,-3 c -0.4,-1 -0.15,-1.38 0.85,-1.54 a 23.15,23.15 0 0 1 4.81,-0.24 7,7 0 0 1 3.32,1 4.86,4.86 0 0 1 2,2.47 3,3 0 0 1 0.09,0.42 z" id="path15" style="fill:#2f0a28;fill-opacity:1"></path>
      <path d="m 63.09,26.49 c 0.27,-0.83 0.27,-0.82 -0.44,-1 a 7,7 0 0 0 -4.72,0.08 3.05,3.05 0 0 1 -0.77,0.2 0.6,0.6 0 0 1 -0.68,-0.33 0.68,0.68 0 0 1 0.17,-0.82 2.07,2.07 0 0 1 0.78,-0.44 6.83,6.83 0 0 1 4.42,-0.4 c 0.77,0.22 1.57,0.35 2.35,0.54 0.78,0.19 0.93,0.51 0.78,1.16 a 19.12,19.12 0 0 1 -0.92,3.18 6.93,6.93 0 0 1 -1.93,2.66 c -0.71,0.59 -1,0.56 -1.66,-0.09 a 0.5,0.5 0 0 0 -0.32,-0.19 c -0.54,-0.08 -0.81,-0.36 -0.51,-0.9 0.17,-0.32 -0.08,-0.39 -0.23,-0.55 a 0.6,0.6 0 0 1 0,-0.9 0.56,0.56 0 0 1 0.74,-0.09 0.62,0.62 0 0 1 0.27,0.78 c -0.12,0.49 -0.11,0.49 0.42,1.08 A 1.12,1.12 0 0 0 61.5,29.9 c -0.73,-0.53 -0.88,-0.86 -0.59,-1.25 0.29,-0.39 0.6,-0.34 1.28,0.17 a 1.37,1.37 0 0 0 0.49,-0.93 c -0.5,-0.13 -0.93,-0.5 -1.46,0.08 -0.28,0.31 -0.62,-0.24 -0.89,-0.16 -0.27,0.08 -0.44,0.52 -0.84,0.46 a 0.7,0.7 0 0 1 -0.6,-0.47 0.68,0.68 0 0 1 0.14,-0.75 c 0.2,-0.2 0.55,-0.37 0.71,-0.17 0.56,0.68 1.17,-0.25 1.72,0.12 0.09,0.06 0.14,-0.09 0.21,-0.16 0.57,-0.56 0.58,-0.56 1.42,-0.35 z" id="path17" style="fill:#2f0a28;fill-opacity:1"></path>
      <path d="M 45,4.33 A 0.71,0.71 0 0 0 45.7,5 0.51,0.51 0 0 1 46.13,5.59 0.54,0.54 0 0 1 45.81,6.06 c -0.29,0.15 -0.49,0 -0.72,-0.17 A 4.83,4.83 0 0 1 43.91,3.89 0.62,0.62 0 0 1 44,3.34 c 0.44,-0.78 0.44,-0.78 -0.29,-1.6 a 17.57,17.57 0 0 0 -1,3.29 c -0.06,0.24 0.16,0.33 0.37,0.39 0.21,0.06 0.71,0.19 1.05,0.33 a 0.7,0.7 0 0 1 0.52,0.86 C 44.53,7.06 44.17,7.12 43.77,7.07 A 2.36,2.36 0 0 1 43.08,6.95 c -1.05,-0.5 -2,-0.09 -3,0.24 -0.43,0.14 -0.5,0.38 -0.37,0.75 a 10.79,10.79 0 0 1 0.37,1 0.78461774,0.78461774 0 0 1 -1.45,0.6 5.91,5.91 0 0 1 -0.74,-1.75 1.63,1.63 0 0 1 1.16,-2 c 0.47,-0.16 1,-0.29 1.45,-0.41 a 1,1 0 0 0 0.8,-0.77 c 0.16,-0.72 0.39,-1.42 0.6,-2.12 a 5.78,5.78 0 0 1 0.91,-1.92 1.07,1.07 0 0 1 1.79,-0.16 3,3 0 0 1 0.78,1.16 c 0.2,0.53 0.41,1.06 0.6,1.6 0.36,0.99 0.18,1.22 -0.98,1.16 z" id="path19" style="fill:#2f0a28;fill-opacity:1"></path>
      <path d="M 54.56,42.85 A 4.74,4.74 0 0 1 49.87,37.68 6.73,6.73 0 0 1 52,33 3.85,3.85 0 0 1 53.48,32.18 c 0.61,-0.18 1,0 1.19,0.41 0.19,0.41 -0.16,0.81 -0.57,1 a 4.7,4.7 0 0 0 -2.52,4.66 3.06,3.06 0 0 0 2.12,2.89 3.72,3.72 0 0 0 2.56,0.13 6.06,6.06 0 0 0 2.92,-1.47 0.53,0.53 0 0 1 0.81,-0.06 0.58,0.58 0 0 1 0.05,0.82 2.14,2.14 0 0 1 -0.54,0.59 7.92,7.92 0 0 1 -4.94,1.7 z" id="path21" style="fill:#2f0a28;fill-opacity:1"></path>
      <path d="m 49.51,7.52 c -0.49,0.22 -0.91,0.49 -1.2,-0.09 -0.19,-0.38 0,-0.62 0.8,-0.93 A 4,4 0 0 0 48.48,5.15 2.09,2.09 0 0 0 48,6.24 35.64,35.64 0 0 1 46.57,9.9 c -0.35,0.73 -0.66,0.95 -1.09,0.79 -0.43,-0.16 -0.58,-0.63 -0.25,-1.38 0.68,-1.6 1.34,-3.21 1.94,-4.84 a 4.19,4.19 0 0 1 0.2,-0.46 c 0.61,-1.2 1.4,-1.24 2.16,-0.11 a 6.28,6.28 0 0 1 0.75,1.53 c 0.5,1.52 1,3.05 1.49,4.58 0.11,0.35 0.21,0.7 0.35,1 a 1,1 0 0 1 -0.3,1.26 3.55,3.55 0 0 1 -1.94,1 c -0.57,0.06 -1,-0.13 -1.06,-0.53 a 0.83,0.83 0 0 1 0.51,-1 c 0.29,-0.17 0.59,-0.32 0.89,-0.46 a 0.63,0.63 0 0 0 0.35,-0.9 C 50.22,9.47 49.88,8.53 49.51,7.52 Z" id="path23" style="fill:#2f0a28;fill-opacity:1"></path>
      <path d="m 64.88,20.79 c -0.5,-0.21 -0.84,-0.48 -0.56,-1 0.18,-0.33 -0.07,-0.4 -0.23,-0.55 a 0.57,0.57 0 0 1 -0.05,-0.88 0.52,0.52 0 0 1 0.64,-0.15 c 0.37,0.17 0.53,0.51 0.33,0.82 -0.42,0.63 0.22,0.57 0.38,0.87 0.3,-0.32 0.54,-0.64 0.48,-0.95 -0.06,-0.31 -0.43,-0.63 -0.58,-1 -0.07,-0.19 -0.37,-0.11 -0.56,-0.08 l -3.19,0.37 a 8.81,8.81 0 0 1 -1.1,0.09 0.72,0.72 0 0 1 -0.71,-0.6 0.77,0.77 0 0 1 0.3,-0.8 2.12,2.12 0 0 1 1,-0.42 31.81,31.81 0 0 1 5.3,-0.41 c 1,0 1.4,0.39 1.38,1.41 a 6.68,6.68 0 0 1 -1.31,3.73 11.62,11.62 0 0 1 -1.4,1.44 1.92,1.92 0 0 1 -0.58,0.39 0.63,0.63 0 0 1 -0.88,-0.21 0.59,0.59 0 0 1 0.19,-0.8 5,5 0 0 0 1.15,-1.27 z" id="path25" style="fill:#2f0a28;fill-opacity:1"></path>
      <path d="m 54.17,20.23 c -1.2,-0.64 -0.36,-1.38 -0.28,-2.11 h -0.52 a 0.74,0.74 0 0 1 -0.72,-0.71 0.79,0.79 0 0 1 0.61,-0.82 4.63,4.63 0 0 1 1.57,-0.28 1.16,1.16 0 0 1 1.2,0.87 3.91,3.91 0 0 1 -2.73,5.08 3.28,3.28 0 0 1 -3.76,-3 2,2 0 0 1 0.86,-1.82 0.69,0.69 0 0 1 0.92,0.05 0.6,0.6 0 0 1 0.11,0.82 1.33,1.33 0 0 0 0.23,1.81 1.59,1.59 0 0 0 1.92,0.41 z" id="path27" style="fill:#2f0a28;fill-opacity:1"></path>
      <path d="m 44.88,20.55 a 3.15,3.15 0 0 1 -1.73,2.83 3.28,3.28 0 0 1 -3.63,-0.69 5.62,5.62 0 0 1 -1.3,-4.11 2,2 0 0 1 2.5,-1.7 0.81,0.81 0 0 1 0.7,0.75 0.77,0.77 0 0 1 -0.55,0.76 1.73,1.73 0 0 1 -0.29,0.08 c -1.08,0.27 -1.16,0.39 -1,1.5 a 3.56,3.56 0 0 0 0.46,1.42 2,2 0 0 0 2,0.94 1.43,1.43 0 0 0 1.39,-1.64 c -0.09,-0.85 -0.16,-1.76 -1.08,-2.24 a 0.56,0.56 0 0 1 -0.26,-0.78 0.63,0.63 0 0 1 0.85,-0.3 1.87,1.87 0 0 1 1.06,0.73 5.26,5.26 0 0 1 0.88,2.45 z" id="path29" style="fill:#2f0a28;fill-opacity:1"></path>
      <path d="m 71.83,27.17 c 0.1,-0.51 0,-0.67 -0.45,-0.66 -1.21,0 -2.41,0 -3.62,0 -0.43,0 -0.85,0 -0.94,-0.51 -0.09,-0.51 0.21,-0.74 0.61,-0.93 a 2.18,2.18 0 0 1 1,-0.19 c 1.17,0 2.35,0 3.52,0 a 1.09,1.09 0 0 1 1.2,1 6.74,6.74 0 0 1 -0.44,4.12 1.18,1.18 0 0 1 -0.43,0.54 0.71,0.71 0 0 1 -1.16,-0.23 c -0.4,-0.6 -0.49,-0.62 -1,-0.16 -0.51,0.46 -1,0.47 -1.31,0.08 a 1,1 0 0 1 0.1,-1.35 c 0.19,-0.18 0.45,-0.33 0.62,-0.17 0.65,0.6 1.3,-0.22 1.94,0 0.09,0 0.16,-0.1 0.15,-0.21 -0.01,-0.11 -0.11,-0.14 -0.21,-0.12 a 1.14,1.14 0 0 1 -0.39,0.07 0.76,0.76 0 0 1 -0.6,-0.9 0.68,0.68 0 0 1 0.79,-0.6 3.24,3.24 0 0 1 0.62,0.22 z" id="path31" style="fill:#2f0a28;fill-opacity:1"></path>
      <path d="m 39.93,13.74 c -1.4,-1.08 -3.11,-1.23 -4.86,-1.77 0.49,1.18 0.91,2.19 1.32,3.2 a 4.77,4.77 0 0 1 0.26,0.76 0.61,0.61 0 0 1 -0.35,0.75 0.66,0.66 0 0 1 -0.82,-0.17 1.79,1.79 0 0 1 -0.35,-0.6 c -0.39,-1.18 -0.91,-2.3 -1.4,-3.43 -0.49,-1.13 -0.1,-1.8 1.16,-1.85 a 2.29,2.29 0 0 1 0.6,0 13.33,13.33 0 0 1 5.26,2.12 c 0.67,0.5 0.68,0.74 0,1.25 a 0.45,0.45 0 0 0 -0.24,0.38 c 0,0.27 -0.15,0.48 -0.41,0.47 a 0.82,0.82 0 0 0 -0.73,0.41 0.46,0.46 0 0 1 -0.64,0.07 0.5,0.5 0 0 1 -0.23,-0.52 c 0,-0.28 0.21,-0.39 0.47,-0.45 0.61,-0.11 0.61,-0.12 0.96,-0.62 z" id="path33" style="fill:#2f0a28;fill-opacity:1"></path>
      <path d="m 47.09,30.44 c 0.48,-0.09 0.8,0 0.86,0.48 a 0.74,0.74 0 0 1 -0.76,0.77 4.12,4.12 0 0 1 -3.19,-0.93 4,4 0 0 1 -1.15,-4 5.18,5.18 0 0 1 2.7,-3.45 1.91,1.91 0 0 1 1.36,-0.24 0.84,0.84 0 0 1 0.73,0.73 0.76,0.76 0 0 1 -0.61,0.81 c -0.16,0.05 -0.33,0.08 -0.48,0.14 a 3.72,3.72 0 0 0 -2,1.79 2.54,2.54 0 0 0 2.54,3.9 z" id="path35" style="fill:#2f0a28;fill-opacity:1"></path>
      <path d="m 58.57,14.92 a 5.47,5.47 0 0 0 0.42,-0.68 c 0.15,-0.35 0.37,-0.66 -0.2,-1 -0.57,-0.34 -0.36,-0.82 0.2,-1 0.14,-0.06 0.34,0.06 0.43,-0.14 -0.08,-0.3 -0.25,-0.08 -0.38,-0.06 a 18,18 0 0 0 -4,1 0.76,0.76 0 0 1 -1,-0.21 0.77,0.77 0 0 1 0.14,-1.08 c 0.17,-0.16 0.55,-0.28 0,-0.54 a 0.54,0.54 0 0 1 -0.19,-0.78 0.49,0.49 0 0 1 0.57,-0.31 0.62,0.62 0 0 1 0.51,0.74 c 0,0.12 -0.11,0.25 0.05,0.41 a 31.75,31.75 0 0 0 4.29,-0.71 c 0.75,-0.26 1.14,0 1.24,0.82 a 6.78,6.78 0 0 1 -0.9,4 c -0.18,0.36 -0.45,0.73 -0.93,0.58 -0.48,-0.15 -0.4,-0.67 -0.3,-1.09 z" id="path37" style="fill:#2f0a28;fill-opacity:1"></path>
      <path d="m 47.08,16.36 a 1,1 0 0 1 0.4,-1.34 1.28,1.28 0 0 0 -0.81,-0.58 c -0.35,0.29 -0.35,0.72 -0.51,1.08 -0.16,0.36 -0.42,0.62 -0.85,0.52 a 0.76,0.76 0 0 1 -0.48,-1 8.07,8.07 0 0 1 0.86,-2 0.83,0.83 0 0 1 1.14,-0.33 4.72,4.72 0 0 1 2.74,3 1.79,1.79 0 0 1 -1.66,2.33 3.43,3.43 0 0 1 -1.2,-0.05 1.43,1.43 0 0 1 -1,-0.78 0.68,0.68 0 0 1 0.63,-1 3.91,3.91 0 0 1 0.74,0.15 z" id="path39" style="fill:#2f0a28;fill-opacity:1"></path>
      <path d="m 53.5,46.65 a 20.16,20.16 0 0 1 -3,-0.35 2.67,2.67 0 0 0 -3,1 c -0.28,0.38 -0.63,0.62 -1.11,0.37 a 0.92,0.92 0 0 1 -0.27,-1.25 2.8,2.8 0 0 1 1.65,-1.51 4.74,4.74 0 0 1 2.66,-0.22 c 1.11,0.23 2.22,0.44 3.34,0.61 a 3.39,3.39 0 0 1 0.94,0.3 0.57,0.57 0 0 1 -0.29,1.08 z" id="path41" style="fill:#2f0a28;fill-opacity:1"></path>
      <path d="m 52.07,26.45 a 4.8,4.8 0 0 1 -0.87,2.74 1.86,1.86 0 0 1 -0.65,0.61 0.58,0.58 0 0 1 -0.66,0 0.56,0.56 0 0 1 -0.22,-0.7 4.9,4.9 0 0 1 0.39,-0.7 3.32,3.32 0 0 0 0.55,-1.79 2.08,2.08 0 0 0 -1.27,-2.08 c -0.61,-0.29 -0.79,-0.61 -0.58,-1 A 1,1 0 0 1 50,23 a 3.47,3.47 0 0 1 2.07,3.45 z" id="path43" style="fill:#2f0a28;fill-opacity:1"></path>
      <path d="m 36.27,47.25 c 0.21,0.63 0.39,1.13 0.53,1.64 0.14,0.51 0,0.93 -0.4,1.1 a 0.82,0.82 0 0 1 -1.08,-0.61 c -0.21,-0.64 -0.5,-1.24 -0.73,-1.86 a 1.28,1.28 0 0 1 1.28,-1.9 6.2,6.2 0 0 1 1.69,0.11 c 0.57,0.14 0.84,0.44 0.81,0.86 -0.03,0.42 -0.33,0.64 -0.95,0.66 -0.33,0.01 -0.67,0 -1.15,0 z" id="path45" style="fill:#2f0a28;fill-opacity:1"></path>
      <path d="m 68.93,47.62 c 0.36,-0.11 0.74,-0.38 1.06,0 a 0.52,0.52 0 0 1 0,0.66 c -0.33,0.44 -0.71,0.15 -1.07,0 a 9,9 0 0 1 -0.42,0.92 0.57,0.57 0 0 1 -0.71,0.22 0.52,0.52 0 0 1 -0.36,-0.54 c 0,-0.5 0,-1 0,-1.5 0,-0.71 -0.07,-0.72 -0.76,-0.76 a 2.61,2.61 0 0 1 -1,-0.13 0.71,0.71 0 0 1 -0.47,-0.7 0.64,0.64 0 0 1 0.52,-0.65 3.1,3.1 0 0 1 2.49,0.42 1.37,1.37 0 0 1 0.52,0.94 3.91,3.91 0 0 0 0.2,1.12 z" id="path47" style="fill:#2f0a28;fill-opacity:1"></path>
      <path d="m 54.9,7.65 c -0.36,0 -0.57,0.33 -0.86,0.49 a 8.43,8.43 0 0 1 -1,0.49 0.72,0.72 0 0 1 -1,-0.3 0.68,0.68 0 0 1 0.25,-1 c 0.8,-0.53 1.62,-1.06 2.47,-1.51 a 1,1 0 0 1 1.41,0.53 4,4 0 0 1 0.39,2 0.78,0.78 0 0 1 -0.73,0.81 c -0.5,0 -0.71,-0.26 -0.74,-0.73 A 1.43,1.43 0 0 0 54.9,7.65 Z" id="path49" style="fill:#2f0a28;fill-opacity:1"></path>
      <path d="m 29.46,49.43 c 0.2,-0.26 0.39,-0.53 0.6,-0.79 0.21,-0.26 0.46,-0.65 0,-1.05 a 0.69,0.69 0 0 1 0.2,-1.1 0.75,0.75 0 0 1 1,0.31 c 0.06,0.11 0,0.31 0.12,0.37 0.89,0.7 0.44,1.36 0,2.05 -0.28,0.42 -0.48,0.88 -0.74,1.3 -0.26,0.42 -0.69,0.68 -1.07,0.5 -0.38,-0.18 -0.52,-0.63 -0.33,-1.09 a 1.32,1.32 0 0 0 0.05,-0.29 z" id="path51" style="fill:#2f0a28;fill-opacity:1"></path>
      <path d="m 41.15,48.62 a 2.87,2.87 0 0 1 -0.51,1.59 1.43,1.43 0 0 1 -0.69,0.55 0.73,0.73 0 0 1 -0.91,-0.18 0.64,0.64 0 0 1 0,-0.91 1.46,1.46 0 0 0 0.17,-1.91 c -0.28,-0.53 -0.17,-0.91 0.2,-1.14 0.37,-0.23 0.77,-0.12 1.11,0.34 a 2.72,2.72 0 0 1 0.63,1.66 z" id="path53" style="fill:#2f0a28;fill-opacity:1"></path>
      <path d="m 41.89,40 c 0.29,-0.22 0,-0.45 0.08,-0.66 a 0.66,0.66 0 0 1 0.56,-0.5 0.55,0.55 0 0 1 0.52,0.23 0.51,0.51 0 0 1 0,0.73 1,1 0 0 0 -0.48,1 0.42,0.42 0 0 1 -0.38,0.41 c -0.37,0 -0.4,0.21 -0.33,0.53 a 0.46,0.46 0 0 1 -0.44,0.56 0.45,0.45 0 0 1 -0.5,-0.25 c -0.13,-0.28 -0.09,-0.6 0.2,-0.68 0.53,-0.15 0.28,-0.47 0.26,-0.76 -0.02,-0.29 0,-0.33 -0.27,-0.32 -0.27,0.01 -0.26,0.14 -0.23,0.34 a 1.08,1.08 0 0 1 0,0.4 0.72,0.72 0 0 1 -0.69,0.61 0.59,0.59 0 0 1 -0.63,-0.4 0.64,0.64 0 0 1 0.29,-0.87 c 0.41,-0.18 0.7,-0.34 0.61,-0.87 0,-0.22 0.2,-0.41 0.46,-0.46 a 0.68,0.68 0 0 1 0.7,0.28 c 0.16,0.17 -0.03,0.51 0.27,0.68 z" id="path55" style="fill:#2f0a28;fill-opacity:1"></path>
      <path d="m 34.09,29.28 c -0.07,-0.29 0.07,-0.69 -0.46,-0.73 -0.3,0 -0.44,-0.28 -0.37,-0.6 a 0.45,0.45 0 0 1 0.39,-0.39 0.5,0.5 0 0 1 0.6,0.4 c 0.05,0.2 0.09,0.39 0.37,0.36 a 0.65,0.65 0 0 1 0.71,0.27 7.8,7.8 0 0 1 0.54,1.16 c 0.08,0.23 -0.08,0.45 -0.25,0.62 a 3.31,3.31 0 0 1 -0.91,0.61 0.68,0.68 0 0 1 -0.9,-0.16 0.65,0.65 0 0 1 0,-0.83 C 34,29.76 34.22,29.6 34.09,29.28 Z" id="path57" style="fill:#2f0a28;fill-opacity:1"></path>
      <path d="M 60.6,35.6 A 0.64,0.64 0 0 1 60,35.15 3.79,3.79 0 0 0 58.58,33.41 C 58,32.99 57.89,32.54 58.15,32.24 c 0.26,-0.3 0.64,-0.25 1.18,0.29 0.54,0.54 1.26,0.88 1.6,1.61 a 1.79,1.79 0 0 1 0.29,0.84 0.6,0.6 0 0 1 -0.62,0.62 z" id="path59" style="fill:#2f0a28;fill-opacity:1"></path>
      <path d="m 60,36.17 a 0.61,0.61 0 0 1 -0.86,0.55 c -0.54,-0.19 -0.93,-0.24 -1.27,0.33 a 0.61,0.61 0 0 1 -0.82,0.14 0.69,0.69 0 0 1 -0.43,-0.73 0.64,0.64 0 0 1 0.54,-0.64 1.64,1.64 0 0 0 0.89,-0.37 2.38,2.38 0 0 1 1.78,0.26 0.61,0.61 0 0 1 0.17,0.46 z" id="path61" style="fill:#2f0a28;fill-opacity:1"></path>
      <path d="m 46.46,37.79 a 1.83,1.83 0 0 1 0,0.27 c -0.05,0.28 -0.16,0.52 -0.48,0.55 a 0.51,0.51 0 0 1 -0.59,-0.43 8.26,8.26 0 0 0 -0.7,-1.87 0.56,0.56 0 0 1 0.19,-0.79 0.62,0.62 0 0 1 0.88,0.18 3.83,3.83 0 0 1 0.7,2.09 z" id="path63" style="fill:#2f0a28;fill-opacity:1"></path>
      <path d="m 29.46,49.43 -0.2,0.21 c -0.47,0.32 -0.91,0.38 -1.26,-0.17 -0.1,-0.15 -0.21,-0.24 -0.39,-0.1 a 0.71,0.71 0 0 1 -1.06,0 c -0.36,-0.4 -0.17,-0.79 0.13,-1.14 v 0 c 0.77,0 0.77,0 1.3,0.6 0.34,-0.29 0.63,-0.75 1.17,-0.52 0.54,0.23 0.38,0.69 0.31,1.12 z" id="path65" style="fill:#2f0a28;fill-opacity:1"></path>
      <path d="m 44.13,40.6 a 0.59,0.59 0 0 1 -0.65,-0.68 c 0.09,-0.38 0.16,-0.76 0.23,-1.15 a 0.76,0.76 0 0 1 1,-0.58 0.7,0.7 0 0 1 0.39,1 3.3,3.3 0 0 0 -0.43,1 0.52,0.52 0 0 1 -0.54,0.41 z" id="path67" style="fill:#2f0a28;fill-opacity:1"></path>
      <path d="m 61.45,37.35 a 4.14,4.14 0 0 1 -0.2,1.14 c -0.12,0.31 -0.32,0.53 -0.67,0.49 a 0.6,0.6 0 0 1 -0.54,-0.72 7.61,7.61 0 0 1 0.16,-1.19 0.67,0.67 0 0 1 0.78,-0.61 c 0.49,0.08 0.53,0.46 0.47,0.89 z" id="path69" style="fill:#2f0a28;fill-opacity:1"></path>
      <path d="m 30.11,33.93 c 0,0.57 -0.41,0.67 -0.58,0.95 -0.17,0.28 0.37,0.61 0.1,1 a 0.59,0.59 0 0 1 -0.78,0.23 c -0.31,-0.14 -0.52,-0.5 -0.32,-0.72 A 1.46,1.46 0 0 0 28.77,34 c -0.05,-0.36 0.39,-0.67 0.75,-0.63 a 0.62,0.62 0 0 1 0.59,0.56 z" id="path71" style="fill:#2f0a28;fill-opacity:1"></path>
      <path d="m 40.06,30.57 a 0.66,0.66 0 0 1 -0.65,0.67 c -0.38,0 -0.74,-0.41 -0.57,-0.76 a 0.7,0.7 0 0 0 -0.2,-1 0.56,0.56 0 0 1 0.06,-0.81 0.62,0.62 0 0 1 0.73,-0.15 c 0.31,0.13 0.54,0.44 0.39,0.71 -0.26,0.45 -0.35,0.79 0.16,1.1 0.02,0.04 0.02,0.18 0.08,0.24 z" id="path73" style="fill:#2f0a28;fill-opacity:1"></path>
      <path d="M 29.69,38 A 0.68,0.68 0 0 1 29,37.5 0.66,0.66 0 0 1 29.32,36.65 c 0.36,-0.16 0.74,-0.2 0.72,-0.75 0,-0.24 0.25,-0.37 0.51,-0.37 a 0.5,0.5 0 0 1 0.52,0.38 0.47,0.47 0 0 1 -0.19,0.61 c -0.4,0.17 -0.46,0.44 -0.46,0.84 0,0.4 -0.33,0.64 -0.73,0.64 z" id="path75" style="fill:#2f0a28;fill-opacity:1"></path>
      <path d="m 52.72,13.43 c 0,0.05 0,0.1 0,0.12 a 1.43,1.43 0 0 0 -0.28,1.53 c 0.06,0.22 -0.2,0.4 -0.45,0.46 a 0.59,0.59 0 0 1 -0.62,-0.22 c -0.16,-0.19 -0.25,-0.48 -0.07,-0.64 0.39,-0.34 0.53,-0.63 0.15,-1.09 -0.14,-0.17 0,-0.46 0.18,-0.62 a 0.65,0.65 0 0 1 0.75,-0.08 0.62,0.62 0 0 1 0.34,0.54 z" id="path77" style="fill:#2f0a28;fill-opacity:1"></path>
      <path d="m 30.22,45.79 a 2.09,2.09 0 0 1 -0.3,-0.09 c -0.4,-0.19 -0.35,-0.58 -0.46,-0.92 -0.11,-0.34 -0.73,-0.09 -0.8,-0.59 a 0.53,0.53 0 0 1 0.34,-0.64 0.45,0.45 0 0 1 0.65,0.28 c 0.09,0.47 0.31,0.52 0.74,0.54 0.43,0.02 0.59,0.39 0.52,0.81 a 0.75,0.75 0 0 1 -0.69,0.61 z" id="path79" style="fill:#2f0a28;fill-opacity:1"></path>
      <path d="m 42.09,21.77 a 0.62,0.62 0 0 1 -0.58,-0.91 1.11,1.11 0 0 0 0.19,-1 0.51,0.51 0 0 1 0.37,-0.63 0.57,0.57 0 0 1 0.64,0.15 0.49,0.49 0 0 1 0.12,0.64 1,1 0 0 0 -0.15,1 0.6,0.6 0 0 1 -0.59,0.75 z" id="path81" style="fill:#2f0a28;fill-opacity:1"></path>
      <path d="M 43.66,9.66 A 0.64,0.64 0 0 1 43,9.19 0.52,0.52 0 0 1 43.27,8.51 1,1 0 0 0 44,7.71 c 0,-0.29 0.36,-0.37 0.65,-0.32 a 0.53,0.53 0 0 1 0.44,0.35 c 0.09,0.27 0.08,0.59 -0.19,0.71 a 1,1 0 0 0 -0.69,0.83 c -0.02,0.29 -0.32,0.38 -0.55,0.38 z" id="path83" style="fill:#2f0a28;fill-opacity:1"></path>
      <path d="m 31.61,57.68 a 1.71,1.71 0 0 0 -0.92,-0.12 0.6,0.6 0 0 1 -0.65,-0.7 0.59,0.59 0 0 1 0.75,-0.58 4.5,4.5 0 0 0 1.06,0.17 0.57,0.57 0 0 1 0.57,0.67 c -0.02,0.39 -0.34,0.61 -0.81,0.56 z" id="path85" style="fill:#2f0a28;fill-opacity:1"></path>
      <path d="m 49.78,28.1 c 0,0.17 -0.08,0.43 -0.2,0.43 -0.83,0 -0.6,1 -1.22,1.21 a 0.5,0.5 0 0 1 -0.6,-0.24 c -0.11,-0.19 -0.16,-0.46 0,-0.55 0.54,-0.29 0.64,-0.81 0.85,-1.3 a 0.56,0.56 0 0 1 0.79,-0.2 0.63,0.63 0 0 1 0.38,0.65 z" id="path87" style="fill:#2f0a28;fill-opacity:1"></path>
      <path d="m 30.45,59.31 a 0.54,0.54 0 0 1 -0.61,-0.34 0.53,0.53 0 0 1 0.15,-0.64 c 0.19,-0.17 0.45,-0.24 0.64,0 0.19,0.24 0.52,0.41 0.92,0.15 0.4,-0.26 0.58,0 0.76,0.28 a 0.6,0.6 0 0 1 -0.14,0.81 0.58,0.58 0 0 1 -0.82,0 c -0.15,-0.12 -0.24,-0.38 -0.4,-0.42 -0.16,-0.04 -0.37,0.11 -0.5,0.16 z" id="path89" style="fill:#2f0a28;fill-opacity:1"></path>
      <path d="m 47.62,26.29 a 0.76,0.76 0 0 1 0.8,0.82 1,1 0 0 1 -0.92,1 0.79,0.79 0 0 1 -0.76,-0.78 1,1 0 0 1 0.88,-1.04 z" id="path91" style="fill:#2f0a28;fill-opacity:1"></path>
      <path d="m 39.31,38.25 a 0.78,0.78 0 0 1 0.77,0.75 1.08,1.08 0 0 1 -1,1 0.69,0.69 0 0 1 -0.71,-0.68 1.11,1.11 0 0 1 0.94,-1.07 z" id="path93" style="fill:#2f0a28;fill-opacity:1"></path>
      <path d="m 40.85,35.58 c -0.57,0 -0.91,-0.24 -0.94,-0.67 a 0.8,0.8 0 0 1 0.84,-0.79 0.86,0.86 0 0 1 0.94,0.81 c -0.01,0.4 -0.33,0.65 -0.84,0.65 z" id="path95" style="fill:#2f0a28;fill-opacity:1"></path>
      <path d="m 58.58,21.37 a 0.84,0.84 0 0 1 -0.79,0.86 0.82,0.82 0 0 1 -0.81,-0.71 0.78,0.78 0 0 1 0.72,-0.89 0.83,0.83 0 0 1 0.88,0.74 z" id="path97" style="fill:#2f0a28;fill-opacity:1"></path>
      <path d="m 57.76,37.49 c 0.35,0.33 0.72,0 1.12,0 0.4,0 0.56,0.18 0.56,0.53 0,0.35 -0.21,0.63 -0.55,0.54 a 1.43,1.43 0 0 0 -1.1,0 c -0.31,0.15 -0.58,-0.1 -0.61,-0.46 -0.03,-0.36 0.16,-0.56 0.58,-0.61 z" id="path99" style="fill:#2f0a28;fill-opacity:1"></path>
      <path d="m 58,18.75 a 0.78,0.78 0 0 1 0.77,0.76 0.75,0.75 0 0 1 -0.72,0.8 0.78,0.78 0 0 1 -0.84,-0.79 0.82,0.82 0 0 1 0.79,-0.77 z" id="path101" style="fill:#2f0a28;fill-opacity:1"></path>
      <path d="m 63.32,19.93 a 0.79,0.79 0 0 1 0.71,0.81 0.76,0.76 0 1 1 -1.51,-0.07 0.84,0.84 0 0 1 0.8,-0.74 z" id="path103" style="fill:#2f0a28;fill-opacity:1"></path>
      <path d="m 44.16,34.88 a 0.61,0.61 0 0 1 -0.59,0.66 1,1 0 0 1 -1.06,-0.71 0.7,0.7 0 0 1 0.76,-0.74 0.86,0.86 0 0 1 0.89,0.79 z" id="path105" style="fill:#2f0a28;fill-opacity:1"></path>
      <path d="m 66.92,51.9 a 1,1 0 0 1 -0.94,0.87 0.66,0.66 0 0 1 -0.75,-0.62 c 0,-0.45 0.45,-0.83 1,-0.82 a 0.58,0.58 0 0 1 0.69,0.57 z" id="path107" style="fill:#2f0a28;fill-opacity:1"></path>
      <path d="m 55.9,54.19 a 0.76,0.76 0 0 1 -0.79,0.73 0.73,0.73 0 0 1 -0.73,-0.77 0.765,0.765 0 0 1 1.53,0 z" id="path109" style="fill:#2f0a28;fill-opacity:1"></path>
      <path d="m 60.93,60.31 c 0.19,0.1 0.3,-0.09 0.45,-0.12 a 0.7,0.7 0 0 1 0.92,0.52 0.79,0.79 0 0 1 -0.62,1 0.74,0.74 0 0 1 -0.82,-0.69 2.92,2.92 0 0 1 0.08,-0.68 z" id="path111" style="fill:#2f0a28;fill-opacity:1"></path>
      <path d="m 43.54,47.64 a 1.43,1.43 0 0 1 0.68,0 0.77,0.77 0 0 1 -0.33,1.5 0.75,0.75 0 0 1 -0.62,-0.87 1.3,1.3 0 0 1 0.3,-0.61 z" id="path113" style="fill:#2f0a28;fill-opacity:1"></path>
      <path d="m 35.3,51.64 a 0.76,0.76 0 0 1 -0.71,0.81 0.72,0.72 0 0 1 -0.74,-0.76 0.71,0.71 0 0 1 0.65,-0.75 0.72,0.72 0 0 1 0.8,0.7 z" id="path115" style="fill:#2f0a28;fill-opacity:1"></path>
      <path d="m 28.63,37.44 a 0.78,0.78 0 0 1 -0.71,0.8 0.71,0.71 0 0 1 -0.77,-0.61 0.77,0.77 0 0 1 0.76,-0.85 0.71,0.71 0 0 1 0.72,0.66 z" id="path117" style="fill:#2f0a28;fill-opacity:1"></path>
      <path d="m 31.74,26.81 a 0.73,0.73 0 0 1 0.78,0.73 0.77,0.77 0 0 1 -0.77,0.75 0.74,0.74 0 0 1 0,-1.48 z" id="path119" style="fill:#2f0a28;fill-opacity:1"></path>
      <path d="M 26.51,37 A 0.69,0.69 0 0 1 25.78,36.33 0.74,0.74 0 0 1 26.5,35.54 0.71,0.71 0 0 1 27.23,36.21 0.74,0.74 0 0 1 26.51,37 Z" id="path121" style="fill:#2f0a28;fill-opacity:1"></path>
      <path d="m 63.44,35.35 a 0.71,0.71 0 0 1 0.75,0.65 0.72062473,0.72062473 0 1 1 -1.44,0.06 0.72,0.72 0 0 1 0.69,-0.71 z" id="path123" style="fill:#2f0a28;fill-opacity:1"></path>
      <path d="m 43.57,47.62 a 3.87,3.87 0 0 1 -0.69,0 0.69,0.69 0 1 1 0.81,-0.64 3.6,3.6 0 0 1 -0.15,0.66 z" id="path125" style="fill:#2f0a28;fill-opacity:1"></path>
      <path d="m 76.16,50.65 a 0.71,0.71 0 1 1 0,1.41 0.71,0.71 0 0 1 0,-1.41 z" id="path127" style="fill:#2f0a28;fill-opacity:1"></path>
      <path d="m 61.19,62.65 a 0.76,0.76 0 0 1 -0.81,0.71 0.62,0.62 0 0 1 -0.61,-0.66 0.74,0.74 0 0 1 0.74,-0.77 0.71,0.71 0 0 1 0.68,0.72 z" id="path129" style="fill:#2f0a28;fill-opacity:1"></path>
      <path d="m 54.3,9.87 a 0.68,0.68 0 0 1 -0.73,-0.64 0.71,0.71 0 0 1 0.71,-0.78 0.76,0.76 0 0 1 0.7,0.7 0.7,0.7 0 0 1 -0.68,0.72 z" id="path131" style="fill:#2f0a28;fill-opacity:1"></path>
      <path d="m 23.67,49.59 v 0 a 3.55,3.55 0 0 1 0,-0.79 0.61,0.61 0 0 1 0.72,-0.52 0.63,0.63 0 0 1 0.58,0.59 0.6,0.6 0 0 1 -0.51,0.72 3.69,3.69 0 0 1 -0.79,0 z" id="path133" style="fill:#2f0a28;fill-opacity:1"></path>
      <path d="m 68.51,39.22 a 0.71,0.71 0 0 1 -0.69,0.71 0.77,0.77 0 0 1 -0.71,-0.71 0.71,0.71 0 0 1 0.7,-0.69 0.67,0.67 0 0 1 0.7,0.69 z" id="path135" style="fill:#2f0a28;fill-opacity:1"></path>
      <path d="m 64.73,37.18 a 0.68,0.68 0 0 1 0.64,0.73 0.72,0.72 0 0 1 -0.74,0.65 0.68,0.68 0 0 1 -0.63,-0.74 0.67,0.67 0 0 1 0.73,-0.64 z" id="path137" style="fill:#2f0a28;fill-opacity:1"></path>
      <path d="M 58.2,45.62 A 0.69,0.69 0 0 1 57.55,46.34 0.7,0.7 0 0 1 56.86,45.65 0.62,0.62 0 0 1 57.47,45 0.63,0.63 0 0 1 58.2,45.62 Z" id="path139" style="fill:#2f0a28;fill-opacity:1"></path>
      <path d="m 33.5,50.78 a 0.74,0.74 0 0 1 -0.65,0.81 0.69,0.69 0 1 1 0,-1.37 0.59,0.59 0 0 1 0.65,0.56 z" id="path141" style="fill:#2f0a28;fill-opacity:1"></path>
      <path d="m 70.22,37.94 a 0.71,0.71 0 0 1 -0.66,0.74 0.62,0.62 0 0 1 -0.7,-0.57 0.67,0.67 0 0 1 0.59,-0.78 0.68,0.68 0 0 1 0.77,0.61 z" id="path143" style="fill:#2f0a28;fill-opacity:1"></path>
      <path d="m 27.57,34.12 a 0.65,0.65 0 0 1 0.67,0.69 0.66,0.66 0 0 1 -0.62,0.66 0.68,0.68 0 0 1 -0.73,-0.65 0.71,0.71 0 0 1 0.68,-0.7 z" id="path145" style="fill:#2f0a28;fill-opacity:1"></path>
      <path d="m 57.8,53.75 a 0.65,0.65 0 0 1 -0.6,0.67 0.66,0.66 0 1 1 0,-1.32 0.65,0.65 0 0 1 0.6,0.65 z" id="path147" style="fill:#2f0a28;fill-opacity:1"></path>
      <path d="m 59.73,20.31 a 0.65,0.65 0 0 1 0,1.3 0.65,0.65 0 0 1 -0.67,-0.7 0.64,0.64 0 0 1 0.67,-0.6 z" id="path149" style="fill:#2f0a28;fill-opacity:1"></path>
      <path d="m 57,52 a 0.64,0.64 0 0 1 -0.74,0.61 0.62,0.62 0 0 1 -0.55,-0.7 0.66,0.66 0 0 1 0.74,-0.62 A 0.64,0.64 0 0 1 57,52 Z" id="path151" style="fill:#2f0a28;fill-opacity:1"></path>
      <path d="m 54.14,14.42 a 0.62,0.62 0 0 1 -0.62,0.63 0.58,0.58 0 0 1 -0.66,-0.59 0.57,0.57 0 0 1 0.61,-0.64 0.62,0.62 0 0 1 0.67,0.6 z" id="path153" style="fill:#2f0a28;fill-opacity:1"></path>
      <path d="m 67.08,42.56 a 0.73,0.73 0 0 1 -0.73,-0.7 0.61,0.61 0 0 1 0.61,-0.65 0.71,0.71 0 0 1 0.69,0.7 0.63,0.63 0 0 1 -0.57,0.65 z" id="path155" style="fill:#2f0a28;fill-opacity:1"></path>
      <path d="m 63.46,19 a 0.6,0.6 0 0 1 -0.67,0.6 0.59,0.59 0 0 1 -0.59,-0.68 0.6,0.6 0 0 1 0.66,-0.6 0.61,0.61 0 0 1 0.6,0.68 z" id="path157" style="fill:#2f0a28;fill-opacity:1"></path>
      <path d="m 37.18,26.66 a 0.64,0.64 0 0 1 0.12,-1.27 0.61,0.61 0 0 1 0.58,0.68 0.64,0.64 0 0 1 -0.7,0.59 z" id="path159" style="fill:#2f0a28;fill-opacity:1"></path>
      <path d="M 69.67,40.8 69.48,41 a 2.24,2.24 0 0 1 -0.58,-0.1 0.56,0.56 0 0 1 -0.35,-0.73 0.64,0.64 0 0 1 0.75,-0.49 0.57,0.57 0 0 1 0.49,0.64 2.44,2.44 0 0 1 -0.12,0.48 z" id="path161" style="fill:#2f0a28;fill-opacity:1"></path>
      <path d="M 11.83,62.2 C 11.47,62.15 11.19,62.01 11.16,61.6 A 0.62,0.62 0 0 1 11.8,61 0.71,0.71 0 0 1 12.52,61.66 0.61,0.61 0 0 1 11.83,62.2 Z" id="path163" style="fill:#2f0a28;fill-opacity:1"></path>
      <path d="m 71.14,36 a 0.59,0.59 0 0 1 0.63,0.62 0.57,0.57 0 0 1 -0.55,0.59 0.6,0.6 0 0 1 -0.68,-0.57 0.61,0.61 0 0 1 0.6,-0.64 z" id="path165" style="fill:#2f0a28;fill-opacity:1"></path>
      <path d="m 68.29,50.09 a 0.61,0.61 0 0 1 0.68,0.58 0.62,0.62 0 0 1 -1.23,0.09 0.61,0.61 0 0 1 0.55,-0.67 z" id="path167" style="fill:#2f0a28;fill-opacity:1"></path>
      <path d="M 50.25,26.5 A 0.62837091,0.62837091 0 1 1 49,26.37 a 0.6,0.6 0 0 1 0.63,-0.53 0.61,0.61 0 0 1 0.62,0.66 z" id="path169" style="fill:#2f0a28;fill-opacity:1"></path>
      <path d="m 35.74,26.72 a 0.6,0.6 0 0 1 -0.63,0.58 0.59,0.59 0 0 1 -0.62,-0.63 0.61,0.61 0 0 1 0.64,-0.62 0.59,0.59 0 0 1 0.61,0.67 z" id="path171" style="fill:#2f0a28;fill-opacity:1"></path>
      <path d="m 33.48,24 c -0.43,-0.06 -0.66,-0.26 -0.65,-0.65 a 0.57,0.57 0 0 1 0.62,-0.62 0.59,0.59 0 0 1 0.61,0.63 c 0,0.43 -0.29,0.57 -0.58,0.64 z" id="path173" style="fill:#2f0a28;fill-opacity:1"></path>
      <path d="m 58.6,14.88 c -0.25,-0.1 -0.51,0.1 -0.77,0 a 0.59,0.59 0 0 1 -0.39,-0.71 0.56,0.56 0 0 1 0.54,-0.49 0.58,0.58 0 0 1 0.66,0.47 2.28,2.28 0 0 1 -0.07,0.78 z" id="path175" style="fill:#2f0a28;fill-opacity:1"></path>
      <path d="m 55.68,28.92 a 0.6,0.6 0 0 1 0.58,0.66 0.57,0.57 0 0 1 -0.58,0.55 0.61,0.61 0 1 1 0,-1.22 z" id="path177" style="fill:#2f0a28;fill-opacity:1"></path>
      <path d="m 37.72,29.92 a 0.58,0.58 0 0 1 0.64,0.59 0.57,0.57 0 0 1 -0.52,0.61 0.61,0.61 0 0 1 -0.69,-0.54 0.6,0.6 0 0 1 0.57,-0.66 z" id="path179" style="fill:#2f0a28;fill-opacity:1"></path>
      <path d="m 33.5,26.7 a 0.59103722,0.59103722 0 1 1 0.07,-1.18 0.54,0.54 0 0 1 0.51,0.62 0.55,0.55 0 0 1 -0.58,0.56 z" id="path181" style="fill:#2f0a28;fill-opacity:1"></path>
      <path d="m 53.47,29.13 c 0.45,0 0.71,0.18 0.74,0.58 a 0.62699681,0.62699681 0 0 1 -1.25,0.1 0.59,0.59 0 0 1 0.51,-0.68 z" id="path183" style="fill:#2f0a28;fill-opacity:1"></path>
      <path d="m 54.67,27.51 a 0.54,0.54 0 0 1 0.55,0.55 0.59135438,0.59135438 0 1 1 -1.18,0.08 0.59,0.59 0 0 1 0.63,-0.63 z" id="path185" style="fill:#2f0a28;fill-opacity:1"></path>
      <path d="m 69.09,28.59 a 0.64,0.64 0 0 1 -0.64,-0.71 0.61,0.61 0 0 1 0.66,-0.59 0.63,0.63 0 0 1 0.64,0.71 0.64,0.64 0 0 1 -0.66,0.59 z" id="path187" style="fill:#2f0a28;fill-opacity:1"></path>
      <path d="m 58.85,44 a 0.57,0.57 0 0 1 -0.59,0.54 0.60168513,0.60168513 0 1 1 0.09,-1.2 0.58,0.58 0 0 1 0.5,0.66 z" id="path189" style="fill:#2f0a28;fill-opacity:1"></path>
      <path d="m 36.07,24.33 a 0.58,0.58 0 0 1 0.62,0.61 0.54,0.54 0 0 1 -0.55,0.57 0.55,0.55 0 0 1 -0.62,-0.5 0.59,0.59 0 0 1 0.55,-0.68 z" id="path191" style="fill:#2f0a28;fill-opacity:1"></path>
      <path d="M 50,10.7 A 0.59,0.59 0 0 1 49.36,11.28 0.53,0.53 0 0 1 48.79,10.71 0.6,0.6 0 0 1 49.38,10.03 0.59,0.59 0 0 1 50,10.7 Z" id="path193" style="fill:#2f0a28;fill-opacity:1"></path>
      <path d="m 63.45,38.35 c -0.06,0.43 -0.27,0.66 -0.66,0.65 a 0.62,0.62 0 0 1 0.05,-1.23 0.6,0.6 0 0 1 0.61,0.58 z" id="path195" style="fill:#2f0a28;fill-opacity:1"></path>
      <path d="m 28.57,33.24 a 0.6,0.6 0 0 1 -0.54,0.58 0.58,0.58 0 0 1 -0.65,-0.57 0.59,0.59 0 0 1 0.53,-0.61 0.63,0.63 0 0 1 0.66,0.6 z" id="path197" style="fill:#2f0a28;fill-opacity:1"></path>
      <path d="M 36.43,27 A 0.6,0.6 0 0 1 36.98,27.68 0.6,0.6 0 0 1 35.79,27.6 0.6,0.6 0 0 1 36.43,27 Z" id="path199" style="fill:#2f0a28;fill-opacity:1"></path>
      <path d="m 56.15,45.33 a 0.59,0.59 0 0 1 -0.56,-0.67 0.54,0.54 0 0 1 0.6,-0.52 0.56,0.56 0 0 1 0.57,0.56 0.61,0.61 0 0 1 -0.61,0.63 z" id="path201" style="fill:#2f0a28;fill-opacity:1"></path>
      <path d="m 72.18,52.22 a 0.6,0.6 0 1 1 -0.53,0.58 0.54,0.54 0 0 1 0.53,-0.58 z" id="path203" style="fill:#2f0a28;fill-opacity:1"></path>
      <path d="M 42.24,8.22 A 0.53,0.53 0 0 1 41.71,7.67 0.59,0.59 0 1 1 42.88,7.6 0.58,0.58 0 0 1 42.24,8.22 Z" id="path205" style="fill:#2f0a28;fill-opacity:1"></path>
      <path d="m 33.87,52.75 a 0.61,0.61 0 0 1 -0.63,0.65 0.6,0.6 0 0 1 0.08,-1.19 0.54,0.54 0 0 1 0.55,0.54 z" id="path207" style="fill:#2f0a28;fill-opacity:1"></path>
      <path d="m 29.39,47.16 a 0.57,0.57 0 0 1 -0.56,0.58 0.52,0.52 0 0 1 -0.57,-0.55 0.5,0.5 0 0 1 0.54,-0.57 0.54,0.54 0 0 1 0.59,0.54 z" id="path209" style="fill:#2f0a28;fill-opacity:1"></path>
      <path d="m 33.27,24.75 a 0.52,0.52 0 0 1 -0.6,0.53 0.51,0.51 0 0 1 -0.51,-0.52 0.53,0.53 0 0 1 0.55,-0.59 c 0.36,0 0.54,0.23 0.56,0.58 z" id="path211" style="fill:#2f0a28;fill-opacity:1"></path>
      <path d="m 47.44,18.89 a 0.52,0.52 0 0 1 0.5,0.61 0.5,0.5 0 0 1 -0.52,0.49 0.52,0.52 0 0 1 -0.57,-0.56 0.53,0.53 0 0 1 0.59,-0.54 z" id="path213" style="fill:#2f0a28;fill-opacity:1"></path>
      <path d="m 42.4,48.69 a 0.54,0.54 0 0 1 0.51,0.6 0.5,0.5 0 0 1 -0.58,0.52 0.52,0.52 0 0 1 -0.52,-0.59 0.55,0.55 0 0 1 0.59,-0.53 z" id="path215" style="fill:#2f0a28;fill-opacity:1"></path>
      <path d="m 60.92,60.31 a 3.49,3.49 0 0 1 -0.42,0.55 0.51,0.51 0 0 1 -0.73,0 0.53,0.53 0 0 1 -0.09,-0.72 c 0.16,-0.27 0.43,-0.27 0.71,-0.2 0.28,0.07 0.22,0.44 0.53,0.37 z" id="path217" style="fill:#2f0a28;fill-opacity:1"></path>
      <path d="m 35.33,24 c 0,0.3 -0.21,0.51 -0.52,0.5 a 0.5,0.5 0 0 1 -0.52,-0.59 0.49,0.49 0 0 1 0.51,-0.5 c 0.35,-0.02 0.52,0.21 0.53,0.59 z" id="path219" style="fill:#2f0a28;fill-opacity:1"></path>
      <path d="m 38.06,13.22 c 0.35,0 0.54,0.2 0.54,0.49 a 0.47,0.47 0 0 1 -0.48,0.51 0.48,0.48 0 0 1 -0.55,-0.54 0.46,0.46 0 0 1 0.49,-0.46 z" id="path221" style="fill:#2f0a28;fill-opacity:1"></path>
      <path d="m 61.54,58.72 a 0.51,0.51 0 0 1 0.51,0.6 0.52,0.52 0 0 1 -1,0 0.51,0.51 0 0 1 0.49,-0.6 z" id="path223" style="fill:#2f0a28;fill-opacity:1"></path>
      <path d="M 49.61,9 A 0.48,0.48 0 0 1 49.07,9.45 0.46,0.46 0 0 1 48.58,8.94 0.48,0.48 0 0 1 49.17,8.44 C 49.49,8.47 49.6,8.69 49.61,9 Z" id="path225" style="fill:#2f0a28;fill-opacity:1"></path>
      <path d="m 32.58,28.68 c 0.32,0 0.53,0.14 0.56,0.46 a 0.47,0.47 0 0 1 -0.43,0.56 0.51,0.51 0 1 1 -0.13,-1 z" id="path227" style="fill:#2f0a28;fill-opacity:1"></path>
      <path d="m 47.3,20.73 a 0.5,0.5 0 0 1 0.49,0.52 0.45,0.45 0 0 1 -0.49,0.5 0.46,0.46 0 0 1 -0.5,-0.5 0.51,0.51 0 0 1 0.5,-0.52 z" id="path229" style="fill:#2f0a28;fill-opacity:1"></path>
      <path d="m 57.83,39.39 a 0.45,0.45 0 0 1 -0.54,0.45 0.44,0.44 0 0 1 -0.43,-0.54 0.47,0.47 0 0 1 0.54,-0.44 0.48,0.48 0 0 1 0.43,0.53 z" id="path231" style="fill:#2f0a28;fill-opacity:1"></path>
      <path d="m 26.68,48.22 h -0.39 a 0.5,0.5 0 0 1 -0.52,-0.58 0.44,0.44 0 0 1 0.56,-0.41 0.47,0.47 0 0 1 0.4,0.65 c 0,0.12 -0.05,0.25 -0.08,0.38 z" id="path233" style="fill:#2f0a28;fill-opacity:1"></path>
      <path d="m 27.85,46.53 c 0,0.3 -0.2,0.5 -0.53,0.46 a 0.46,0.46 0 0 1 -0.43,-0.55 0.44,0.44 0 0 1 0.47,-0.41 c 0.33,-0.03 0.49,0.18 0.49,0.5 z" id="path235" style="fill:#2f0a28;fill-opacity:1"></path>
      <path d="m 28.22,44.69 a 0.48,0.48 0 0 1 0.53,0.48 0.42,0.42 0 0 1 -0.42,0.46 0.41,0.41 0 0 1 -0.5,-0.36 0.48,0.48 0 0 1 0.39,-0.58 z" id="path237" style="fill:#2f0a28;fill-opacity:1"></path>
      <path d="m 47.93,57.46 a 0.78,0.78 0 0 1 -0.76,0.77 0.73,0.73 0 0 1 -0.7,-0.71 0.73061618,0.73061618 0 1 1 1.46,-0.06 z" id="path239" style="fill:#2f0a28;fill-opacity:1"></path>
      <path d="M 48.14,67 A 0.73,0.73 0 0 1 47.42,67.69 0.72,0.72 0 0 1 46.71,66.9 0.71,0.71 0 0 1 47.47,66.27 0.73,0.73 0 0 1 48.14,67 Z" id="path241" style="fill:#2f0a28;fill-opacity:1"></path>
      <path d="m 49.83,61.07 a 0.69,0.69 0 0 1 -0.65,0.72 0.73,0.73 0 0 1 -0.72,-0.66 0.75,0.75 0 0 1 0.66,-0.73 0.7,0.7 0 0 1 0.71,0.67 z" id="path243" style="fill:#2f0a28;fill-opacity:1"></path>
      <path d="M 49.14,66 A 0.58,0.58 0 0 1 48.6,65.43 0.76,0.76 0 0 1 49.34,64.67 0.54,0.54 0 0 1 49.91,65.23 0.79,0.79 0 0 1 49.14,66 Z" id="path245" style="fill:#2f0a28;fill-opacity:1"></path>
      <path d="m 46.74,61.92 a 0.62,0.62 0 0 1 -0.6,-0.65 0.63,0.63 0 0 1 0.72,-0.64 0.6,0.6 0 0 1 0.56,0.7 0.62,0.62 0 0 1 -0.68,0.59 z" id="path247" style="fill:#2f0a28;fill-opacity:1"></path>
      <path d="m 47.87,59.31 c -0.09,0.36 -0.28,0.6 -0.68,0.57 a 0.62163092,0.62163092 0 1 1 0.09,-1.24 0.62,0.62 0 0 1 0.59,0.67 z" id="path249" style="fill:#2f0a28;fill-opacity:1"></path>
      <path d="m 50.39,63.95 a 0.58,0.58 0 0 1 -0.57,-0.65 0.62597923,0.62597923 0 0 1 1.25,0.07 0.6,0.6 0 0 1 -0.68,0.58 z" id="path251" style="fill:#2f0a28;fill-opacity:1"></path>
      <path d="m 45.53,58.21 a 0.61,0.61 0 0 1 0.63,0.63 0.59,0.59 0 0 1 -0.54,0.62 0.61,0.61 0 0 1 -0.68,-0.58 0.62,0.62 0 0 1 0.59,-0.67 z" id="path253" style="fill:#2f0a28;fill-opacity:1"></path>
      <path d="m 47.8,63 a 0.63,0.63 0 0 1 0.65,0.61 0.62,0.62 0 1 1 -1.24,0 C 47.2,63.28 47.45,63.08 47.8,63 Z" id="path255" style="fill:#2f0a28;fill-opacity:1"></path>
      <path d="M 50,58.43 A 0.63,0.63 0 0 1 49.35,59.05 0.62,0.62 0 0 1 48.78,58.36 0.58,0.58 0 0 1 49.37,57.8 0.62,0.62 0 0 1 50,58.43 Z" id="path257" style="fill:#2f0a28;fill-opacity:1"></path>
      <path d="m 51.69,61.22 c -0.05,0.32 -0.21,0.51 -0.52,0.51 a 0.47,0.47 0 0 1 -0.53,-0.46 0.48,0.48 0 0 1 0.55,-0.54 c 0.32,0.01 0.44,0.27 0.5,0.49 z" id="path259" style="fill:#2f0a28;fill-opacity:1"></path>
    </g>
  </g>
  <metadata id="metadata439">
    <rdf:rdf>
      <cc:work rdf:about="">
        <dc:title>romanesco</dc:title>
      </cc:work>
    </rdf:rdf>
  </metadata>
</svg></svg></g></svg></g><g id="dark-icon"><svg xmlns="http://www.w3.org/2000/svg" version="1.1" xmlns:xlink="http://www.w3.org/1999/xlink" xmlns:svgjs="http://svgjs.com/svgjs" width="1000" height="1000"><rect width="1000" height="1000" rx="500" ry="500" fill="#2f0a28"></rect><g transform="matrix(11.134989601422935,0,0,11.134989601422935,-0.0011848790883277616,-0.001996968126718457)"><svg xmlns="http://www.w3.org/2000/svg" version="1.1" xmlns:xlink="http://www.w3.org/1999/xlink" xmlns:svgjs="http://svgjs.com/svgjs" width="89.806999" height="89.806999"><svg viewBox="0 -7.61 89.806996 89.806996" x="0px" y="0px" version="1.1" id="svg269" sodipodi:docname="noun-romanesco-light.svg" width="89.806999" height="89.806999" inkscape:version="1.2.2 (b0a8486541, 2022-12-01)" xmlns:inkscape="http://www.inkscape.org/namespaces/inkscape" xmlns:sodipodi="http://sodipodi.sourceforge.net/DTD/sodipodi-0.dtd" xmlns="http://www.w3.org/2000/svg" xmlns:svg="http://www.w3.org/2000/svg" xmlns:rdf="http://www.w3.org/1999/02/22-rdf-syntax-ns#" xmlns:cc="http://creativecommons.org/ns#" xmlns:dc="http://purl.org/dc/elements/1.1/">
  <defs id="defs273"></defs>
  <sodipodi:namedview id="namedview271" pagecolor="#ffffff" bordercolor="#666666" borderopacity="1.0" inkscape:showpageshadow="2" inkscape:pageopacity="0.0" inkscape:pagecheckerboard="0" inkscape:deskcolor="#d1d1d1" showgrid="false" inkscape:zoom="5.8345623" inkscape:cx="12.51165" inkscape:cy="46.61875" inkscape:window-width="960" inkscape:window-height="740" inkscape:window-x="1454" inkscape:window-y="126" inkscape:window-maximized="0" inkscape:current-layer="svg269"></sodipodi:namedview>
  <title id="title9">romanesco</title>
  <g data-name="Calque 2" id="g263" transform="translate(0.02359917,0.00138093)" style="fill:#cadbc0;fill-opacity:1">
    <g data-name="Calque 1" id="g261" style="fill:#cadbc0;fill-opacity:1">
      <path d="m 23.67,49.59 c 0.33,0.21 0.54,0.6 1,0.67 0.21,-0.06 0.17,-0.27 0.27,-0.4 0.33,-0.41 0.69,-0.49 1,-0.25 0.31,0.24 0.4,0.6 0.13,1 a 0.57,0.57 0 0 1 -0.14,0.14 c -0.24,0.19 0,0.28 0.09,0.35 0.09,0.07 0.33,0.12 0.36,-0.13 A 1.29,1.29 0 0 1 26.51,50.39 0.92,0.92 0 0 1 27.56,50 c 0.38,0.15 0.5,0.47 0.34,1 a 2.27,2.27 0 0 1 -0.16,0.33 c 0.07,0 0.1,0.07 0.12,0.06 0.44,-0.1 0.89,-0.21 1,0.4 0.11,0.44 -0.29,0.92 -0.88,1 a 3.87,3.87 0 0 1 -1.79,-0.1 7.87,7.87 0 0 1 -2.44,-1.16 c -0.54,-0.38 -0.56,-0.55 -1.12,0.14 a 30.43,30.43 0 0 0 -3.13,4.91 9.68,9.68 0 0 1 -1.13,2 c -0.18,0.2 -0.23,0.39 0,0.6 a 9,9 0 0 0 1.89,1.47 12.56,12.56 0 0 1 0.06,-2.82 3.29,3.29 0 0 1 4.28,-2.63 1.14,1.14 0 0 0 1.11,-0.2 9.51,9.51 0 0 1 2.9,-1.57 c 0.59,-0.18 1.17,-0.35 1.68,0.19 0.14,0.15 0.27,0.08 0.44,0 a 2,2 0 0 1 2.11,1.74 0.65,0.65 0 0 1 -0.42,0.63 0.62,0.62 0 0 1 -0.73,-0.2 c -0.45,-0.49 -0.9,-1 -1.34,-1.48 -1.25,0.65 -2.67,0.93 -3.76,2 0.6,0.71 1.34,1.28 1.87,2 l 1.65,2.37 c 0.66,-0.9 1.41,-0.08 2.13,-0.16 0.28,0 0.33,0.45 0.22,0.76 a 6,6 0 0 1 -0.71,1.44 0.57,0.57 0 0 0 0,0.73 24,24 0 0 0 2.33,2.89 c 0,0 0.12,0 0.18,0 0.1,-0.15 0,-0.25 -0.1,-0.34 A 6.78,6.78 0 0 1 33,61.85 a 17,17 0 0 1 0.29,-3.6 7,7 0 0 1 1.27,-2.71 11.15,11.15 0 0 1 7.9,-4.49 11.37,11.37 0 0 1 3.4,0 1.15,1.15 0 0 0 0.71,0 c 0,-0.39 -0.29,-0.66 -0.42,-1 A 1.72,1.72 0 0 1 46,48.91 a 0.67,0.67 0 0 1 0.64,-0.55 0.57,0.57 0 0 1 0.65,0.5 3.78,3.78 0 0 0 5.26,2.52 c -0.16,-0.34 -0.57,-0.59 -0.42,-1 a 0.84,0.84 0 0 1 0.35,-0.47 c 0.43,-0.27 0.74,-0.15 1.28,0.53 0.25,-0.14 0.51,-0.51 0.36,-0.59 -0.35,-0.19 -0.47,-0.68 -0.92,-0.68 -0.16,0 -0.34,0.09 -0.49,0.06 a 0.79,0.79 0 0 1 -0.67,-0.77 0.74,0.74 0 0 1 0.47,-0.81 0.76,0.76 0 0 1 0.9,0.23 c 0.15,0.16 0.13,0.45 0.44,0.48 a 0.67,0.67 0 0 0 0.82,-0.67 c 0,-0.07 0,-0.13 0,-0.2 0.07,-0.36 0.24,-0.64 0.64,-0.65 0.4,-0.01 0.59,0.25 0.69,0.61 a 5.2,5.2 0 0 1 -2,5.06 5.74,5.74 0 0 1 -3.67,1 10.51,10.51 0 0 1 3,10.78 1.17,1.17 0 0 1 1.46,0.07 4,4 0 0 0 3.73,0.47 9.18,9.18 0 0 0 3.41,-1.86 3.58,3.58 0 0 0 1.07,-2.57 2.69,2.69 0 0 0 -1.7,-2.71 8.57,8.57 0 0 0 -3.08,-0.83 2.81,2.81 0 0 0 -2.37,1.07 c -0.2,0.23 -0.37,0.48 -0.58,0.69 A 0.67,0.67 0 0 1 54.35,58.7 0.71,0.71 0 0 1 54.08,57.81 1.72,1.72 0 0 1 54.36,57.28 4.78,4.78 0 0 1 58.85,55.35 8.69,8.69 0 0 1 63,57.13 4.39,4.39 0 0 1 64.17,62 7.46,7.46 0 0 1 62.06,65 4.3,4.3 0 0 0 61.42,65.64 5.27,5.27 0 0 0 65,63 3,3 0 0 0 65.22,61 5,5 0 0 1 65.1,60 c 0,-0.64 0.19,-0.95 0.81,-1.1 a 2.69,2.69 0 0 0 2,-1.5 1,1 0 0 1 1,-0.52 2.22,2.22 0 0 0 1.09,-0.16 c 0.13,-0.21 0,-0.27 -0.11,-0.35 a 0.74,0.74 0 0 1 -0.15,-0.92 0.77,0.77 0 0 1 1,-0.3 2.89,2.89 0 0 0 1.33,0.06 c -0.21,-0.44 -0.66,-0.84 -0.18,-1.34 a 0.68,0.68 0 0 1 0.83,-0.14 c 0.58,0.28 0.48,0.79 0.28,1.33 a 2.45,2.45 0 0 0 1.33,-0.47 c -0.3,-0.43 -0.56,-0.84 -0.17,-1.36 0.17,-0.22 -0.19,-0.28 -0.31,-0.41 a 0.62,0.62 0 0 1 -0.07,-0.9 0.55,0.55 0 0 1 0.72,-0.17 0.61,0.61 0 0 1 0.32,0.84 2.14,2.14 0 0 1 -0.25,0.37 l 0.79,0.63 A 8.46,8.46 0 0 0 78.31,49 0.58,0.58 0 0 0 77.91,48.23 c -1.48,-0.63 -2.94,-1.3 -4.4,-2 a 4.28,4.28 0 0 0 -2.21,-0.28 2.19,2.19 0 0 0 0.25,1.05 2.08,2.08 0 0 1 0.2,1 c -0.37,2.22 -0.7,4.46 -2.38,6.17 -1.46,1.48 -3.14,2.57 -5.32,2.38 a 5.76,5.76 0 0 1 -5,-3.8 7.82,7.82 0 0 1 -0.13,-5.61 11.71,11.71 0 0 1 3.57,-5.14 3.32,3.32 0 0 1 1.38,-0.8 c 0.4,-0.1 0.84,-0.14 1,0.34 0.16,0.48 -0.13,0.68 -0.46,0.88 a 10.67,10.67 0 0 0 -3.22,3.41 7.28,7.28 0 0 0 -1.19,4.61 5.79,5.79 0 0 0 0.53,2 4.22,4.22 0 0 0 6,2.05 c -0.08,-0.38 -0.59,-0.65 -0.37,-1.13 a 1,1 0 0 1 0.37,-0.46 c 0.46,-0.28 0.85,-0.1 1.36,0.64 0.3,-0.2 0.71,-0.33 0.24,-0.8 a 0.55,0.55 0 0 1 0,-0.74 0.48,0.48 0 0 1 0.62,-0.2 c 0.6,0.37 0.75,0 0.93,-0.46 0.08,-0.19 0.15,-0.37 0.22,-0.56 0.07,-0.19 0.13,-0.51 -0.27,-0.59 a 0.59,0.59 0 0 1 -0.49,-0.75 0.62,0.62 0 0 1 0.82,-0.52 c 0.39,0.1 0.44,-0.11 0.53,-0.4 a 2.57,2.57 0 0 0 -0.22,-1.65 c -0.16,-0.48 -0.41,-1 0.26,-1.28 a 0.17,0.17 0 0 0 0.11,-0.24 C 70.5,45.05 70.33,44.76 70.2,44.45 70.07,44.14 69.74,44.2 69.44,44.23 a 1.28,1.28 0 0 1 -1.19,-0.78 0.56,0.56 0 0 1 0.19,-0.79 c 0.14,-0.11 0.41,-0.12 0.32,-0.42 -0.21,-0.69 0.35,-0.93 0.74,-1.27 l 0.19,-0.2 A 1.22,1.22 0 0 0 70.34,40.32 2.11,2.11 0 0 0 71,39.47 c -0.2,-0.18 -0.62,-0.22 -0.66,-0.6 a 0.68,0.68 0 0 1 0.09,-0.48 c 0.21,-0.31 0.5,-0.32 1.24,0 a 0.74,0.74 0 0 0 0.28,-0.4 20,20 0 0 0 0.94,-3.38 c 0.15,-0.6 0,-0.77 -0.58,-0.72 A 7.78,7.78 0 0 1 69,33.45 12.19,12.19 0 0 0 65.85,33 c -0.2,0 -0.4,0 -0.6,0 -0.6,0 -0.93,-0.27 -1,-0.67 -0.07,-0.4 0.27,-0.78 0.9,-0.88 a 7.47,7.47 0 0 1 2.69,0.21 c 0.62,0.13 1.23,0.32 1.84,0.48 a 11.28,11.28 0 0 0 2.16,0.43 2.43,2.43 0 0 0 2.51,-1 8.55,8.55 0 0 1 2.23,-1.86 c 1.12,-0.8 2.27,-1.55 3.43,-2.29 0.75,-0.47 1.2,-0.35 1.73,0.34 a 2.15,2.15 0 0 1 0,3.1 46.56,46.56 0 0 0 -4.07,6.69 34.39,34.39 0 0 0 -2.75,6.79 0.9,0.9 0 0 0 0.85,1.21 c 0.22,0 0.29,-0.13 0.35,-0.29 0.13,-0.38 0.26,-0.76 0.39,-1.14 a 37.35,37.35 0 0 1 1.89,-5.08 c 0.83,-1.63 2.08,-1.7 3.13,-0.2 a 3.93,3.93 0 0 1 0.55,3.27 c -0.2,0.85 -0.48,1.67 -0.71,2.51 -0.08,0.31 -0.32,0.61 -0.13,1 0.35,-0.22 0.39,-0.61 0.51,-0.93 0.6,-1.56 1.18,-3.14 1.78,-4.7 a 10.48,10.48 0 0 1 1,-2 4.33,4.33 0 0 1 1,-1.11 2.66,2.66 0 0 1 2.83,-0.43 2.49,2.49 0 0 1 1.42,2.37 16.65,16.65 0 0 1 -0.49,4.38 30.24,30.24 0 0 1 -3.1,7.8 35.49,35.49 0 0 1 -6.47,8.8 15.75,15.75 0 0 1 -5.72,3.77 0.73,0.73 0 0 0 -0.58,0.61 3.74,3.74 0 0 1 -1.73,2.48 c -0.24,0.17 -0.41,0.32 -0.35,0.64 a 3.15,3.15 0 0 1 -1.2,2.84 14.19,14.19 0 0 1 -4.74,3.15 17.77,17.77 0 0 1 -10.56,0.86 8.29,8.29 0 0 1 -4.54,-2.42 0.9,0.9 0 0 0 -1.22,-0.27 8.76,8.76 0 0 1 -1.41,0.52 2.74,2.74 0 0 0 -1.67,1.14 4,4 0 0 1 -4.71,1.07 13.3,13.3 0 0 0 -2.65,-1.13 15.93,15.93 0 0 0 -3.51,-0.83 1.09,1.09 0 0 0 -1.1,0.46 4.91,4.91 0 0 1 -4.89,1.79 5.44,5.44 0 0 1 -2.94,-1.56 13.93,13.93 0 0 1 -3.8,-5.73 2.14,2.14 0 0 0 -2.4,-1.72 15.19,15.19 0 0 1 -4.86,-0.65 2.4,2.4 0 0 1 -1,-0.44 0.81,0.81 0 0 1 -0.25,-1 0.73,0.73 0 0 1 0.82,-0.46 12.51,12.51 0 0 1 1.47,0.31 34,34 0 0 0 4.47,0.68 1.67,1.67 0 0 0 0.39,0 C 20.89,62.66 20.85,62.75 19.69,62.49 A 24.36,24.36 0 0 1 12.69,59.9 19.56,19.56 0 0 1 4.3,50.97 24.8,24.8 0 0 1 2.6,44.58 c 0,-0.2 -0.05,-0.39 -0.08,-0.61 -0.35,0.17 -0.28,0.47 -0.3,0.72 a 10.94,10.94 0 0 0 0.49,4 29,29 0 0 0 4,8.53 12,12 0 0 0 2.49,2.74 2.69,2.69 0 0 1 0.3,0.26 0.66,0.66 0 0 1 0.14,0.74 0.69,0.69 0 0 1 -0.73,0.42 1.74,1.74 0 0 1 -1,-0.43 A 8.31,8.31 0 0 1 6.3,59.3 28.62,28.62 0 0 1 0.59,46.7 a 8.8,8.8 0 0 1 0.28,-4.18 2.36,2.36 0 0 1 3.52,-1.45 2.34,2.34 0 0 1 1,1.45 23.55,23.55 0 0 0 2.69,5.82 A 3.77,3.77 0 0 0 9,49.54 18.12,18.12 0 0 0 8.42,39.61 C 8.18,38.84 7.86,38.1 7.6,37.34 A 6.55,6.55 0 0 0 3.4,33.17 C 1,32.35 0.38,30.42 0,28.27 A 1.23,1.23 0 0 1 0.86,26.85 5.42,5.42 0 0 0 2.25,26 3.45,3.45 0 0 1 6.69,26 c 2,1.61 4.07,3.18 6,4.87 a 43.73,43.73 0 0 1 5.46,6.3 c 0.12,0.15 0.23,0.32 0.38,0.52 0.22,-0.34 0,-0.59 -0.06,-0.83 a 56,56 0 0 1 -1.58,-7.87 3,3 0 0 1 1.83,-3.42 1.44,1.44 0 0 0 0.91,-1.19 c 0.1,-0.62 0.35,-1.29 1.1,-1.41 0.75,-0.12 1,0.51 1.33,1 a 17.18,17.18 0 0 1 1.94,5.12 4.25,4.25 0 0 0 0.35,1.18 8.84,8.84 0 0 1 2.84,-0.57 2.16,2.16 0 0 1 1.07,0.21 0.82,0.82 0 0 1 0.5,0.9 0.69,0.69 0 0 1 -0.82,0.58 c -1.64,-0.31 -3,0.42 -4.42,1.05 a 17.89,17.89 0 0 1 -2.43,0.75 c 0.59,1.21 1.15,2.38 1.74,3.54 a 2.1,2.1 0 0 0 1.1,1.12 c 0.58,0.21 0.7,0.62 0.7,1.18 0,0.81 0,0.81 0.87,0.78 0.87,-0.03 1.74,-0.1 2.61,-0.09 a 4.34,4.34 0 0 1 3.72,2 c 0.3,0.44 0.57,0.9 0.85,1.36 0.28,0.46 0.3,0.72 -0.13,1 -0.43,0.28 -0.68,-0.08 -0.89,-0.4 -0.21,-0.32 -0.47,-0.73 -0.7,-1.1 a 3,3 0 0 0 -2.79,-1.49 40.39,40.39 0 0 0 -6.79,0.69 c -0.64,0.13 -0.7,0.2 -0.52,0.79 0.59,1.88 1.21,3.76 1.84,5.64 a 3.56,3.56 0 0 0 1,1.38 z m 15.66,18.85 c 0.14,-0.15 0.07,-0.31 0,-0.47 A 46.73,46.73 0 0 1 39,61.35 2.07,2.07 0 0 1 39.81,59.61 3.38,3.38 0 0 1 41,59 12.06,12.06 0 0 0 42.52,58.49 c 0.68,-0.3 1,-0.13 1.15,0.59 0.1,0.52 0.28,0.82 0.85,0.93 0.57,0.11 0.82,0.44 0.53,1.09 a 0.72,0.72 0 0 0 0.34,1.07 c 0.4,0.22 0.42,0.53 0.26,0.94 a 1.44,1.44 0 0 0 0.35,1.79 0.7,0.7 0 0 1 0.2,1 c -0.12,0.2 -0.3,0.35 -0.25,0.62 0.09,0.53 0.16,1.06 0.23,1.59 0,0.32 0.2,0.49 0.54,0.42 0.34,-0.07 0.46,-0.09 0.68,-0.15 A 6.75,6.75 0 0 0 52.17,60 10.47,10.47 0 0 0 50,55.33 c -0.56,-0.61 -0.82,-1.28 0,-2 A 6.2,6.2 0 0 1 48.33,52.65 C 48.17,52.54 48,52.42 47.78,52.52 a 3.9,3.9 0 0 1 -1.88,0.11 21.48,21.48 0 0 0 -4.21,0.19 9.34,9.34 0 0 0 -6.58,4.51 5.28,5.28 0 0 0 -0.77,2.67 c 0,0.74 0,1.47 0,2.21 a 7,7 0 0 0 4.99,6.23 z M 16.43,43.11 A 8.13,8.13 0 0 0 17.88,41 1.51,1.51 0 0 0 17.77,39.24 C 17,38.14 16.06,37.17 15.26,36.1 12.62,32.56 9.09,30 5.71,27.25 4.8,26.52 4.2,26.6 3.28,27.35 a 4.4,4.4 0 0 1 -1.21,0.89 c -0.39,0.14 -0.41,0.38 -0.31,0.71 0.4,1.24 0.84,2.43 2.31,2.78 a 1.4,1.4 0 0 1 0.28,0.12 9,9 0 0 1 4.65,4.68 33.07,33.07 0 0 1 1.86,5.93 c 0.36,1.72 1,1.9 2.25,1.91 a 6.44,6.44 0 0 0 1.2,-0.1 c 0.8,-0.14 0.84,-0.2 0.52,-1 A 36.15,36.15 0 0 0 11.91,37.66 24.32,24.32 0 0 0 6,30.74 2.61,2.61 0 0 1 5.5,30.25 a 0.67,0.67 0 0 1 0,-0.84 0.72,0.72 0 0 1 0.8,-0.28 1.72,1.72 0 0 1 0.69,0.39 13.36,13.36 0 0 1 2,1.82 41.55,41.55 0 0 1 5,6.81 39.22,39.22 0 0 1 2.44,4.96 z m 4.94,15.34 a 3.58,3.58 0 0 0 0.05,0.43 37.33,37.33 0 0 0 2,6 1.6,1.6 0 0 0 0.34,0.49 0.58,0.58 0 0 0 0.74,0.11 0.55,0.55 0 0 0 0.31,-0.59 4.17,4.17 0 0 0 -0.21,-0.77 c -0.53,-1.52 -1.06,-3 -1.46,-4.59 -0.13,-0.52 -0.2,-1.05 -0.33,-1.57 a 0.7,0.7 0 0 0 -0.79,-0.62 0.75,0.75 0 0 0 -0.67,0.76 3.64,3.64 0 0 0 0.02,0.35 z m 20.75,5.8 H 42 c 0,-0.5 0,-1 -0.07,-1.51 -0.07,-0.51 0,-0.94 -0.06,-1.41 a 0.83,0.83 0 0 0 -1.65,-0.06 2.39,2.39 0 0 0 -0.05,0.7 c 0.1,1.44 0.22,2.87 0.33,4.31 a 2.5,2.5 0 0 0 0.25,1 0.68,0.68 0 0 0 0.74,0.4 0.67,0.67 0 0 0 0.59,-0.6 4.13,4.13 0 0 0 0,-0.6 c 0.05,-0.76 0.05,-1.48 0.05,-2.23 z m 37.8,-11.06 a 1.42,1.42 0 0 0 0.85,-0.65 30.34,30.34 0 0 0 3.28,-5.6 1.16,1.16 0 0 0 0.1,-0.28 0.62,0.62 0 0 0 -0.32,-0.76 0.57,0.57 0 0 0 -0.72,0.17 3.67,3.67 0 0 0 -0.43,0.67 50.6,50.6 0 0 1 -2.93,5 1.89,1.89 0 0 0 -0.4,0.8 0.56,0.56 0 0 0 0.58,0.65 z M 20,31.73 a 38.6,38.6 0 0 1 -0.75,-3.81 0.75,0.75 0 0 0 -0.08,-0.18 0.67,0.67 0 0 0 -0.72,-0.42 0.7,0.7 0 0 0 -0.6,0.58 1.26,1.26 0 0 0 0,0.69 c 0.24,1 0.47,2 0.72,3 a 2.65,2.65 0 0 0 0.26,0.64 0.61,0.61 0 0 0 0.76,0.32 C 20,32.44 20.06,32.15 20,31.73 Z m 58.7,-0.66 a 0.52,0.52 0 0 0 -0.86,-0.43 19.92,19.92 0 0 0 -2.82,2.07 c -0.29,0.26 -0.47,0.6 -0.16,1 a 0.62,0.62 0 0 0 1,0 28.59,28.59 0 0 1 2.42,-1.93 0.86,0.86 0 0 0 0.46,-0.71 z M 16.81,45.65 c -0.39,0 -0.64,0.33 -0.58,0.81 a 7.29,7.29 0 0 0 0.7,2.49 1.42,1.42 0 0 0 0.37,0.47 0.55,0.55 0 0 0 0.66,0 0.48,0.48 0 0 0 0.25,-0.59 c -0.35,-0.9 -0.53,-1.85 -0.83,-2.77 a 0.6,0.6 0 0 0 -0.57,-0.41 z m 61.52,-2.56 c 0,0.33 0,0.63 0.38,0.73 a 0.58,0.58 0 0 0 0.69,-0.27 1.53,1.53 0 0 0 0.18,-0.36 c 0.21,-0.67 0.42,-1.34 0.61,-2 0.11,-0.41 0.1,-0.82 -0.39,-1 -0.49,-0.18 -0.74,0.09 -0.92,0.69 -0.18,0.6 -0.37,1.47 -0.55,2.21 z M 21.05,35.73 a 10.4,10.4 0 0 0 -0.37,-1 0.55,0.55 0 0 0 -0.68,-0.29 0.57,0.57 0 0 0 -0.44,0.6 1.88,1.88 0 0 0 0.44,1.23 0.56,0.56 0 0 0 0.72,0.14 c 0.28,-0.12 0.34,-0.34 0.33,-0.68 z m 5.24,32 a 1.93,1.93 0 0 0 -0.7,-1.16 0.64,0.64 0 0 0 -0.94,0.53 1.53,1.53 0 0 0 1,1.23 0.58,0.58 0 0 0 0.65,-0.63 z M 85,42.92 a 0.5,0.5 0 0 0 -0.56,-0.5 c -0.41,0 -0.57,0.32 -0.59,0.67 a 0.52,0.52 0 0 0 0.51,0.6 0.67,0.67 0 0 0 0.64,-0.77 z m 0.2,-2 a 0.48,0.48 0 0 0 0.43,-0.56 0.42,0.42 0 0 0 -0.47,-0.41 0.44,0.44 0 0 0 -0.49,0.49 0.49,0.49 0 0 0 0.54,0.56 z" id="path11" style="fill:#cadbc0;fill-opacity:1"></path>
      <path d="M 41.41,43.82 A 3.17,3.17 0 0 0 42.78,43.1 C 42.65,42.76 42.09,42.7 42.21,42.32 A 5.1,5.1 0 0 1 42.9,41 a 0.5,0.5 0 0 1 0.73,-0.06 0.62,0.62 0 0 1 0.23,0.79 c -0.1,0.25 -0.42,0.33 -0.48,0.78 a 3.38,3.38 0 0 0 1.27,-1.26 c 0.24,-0.4 0.43,-0.83 0.66,-1.24 0.23,-0.41 0.44,-0.55 0.81,-0.39 0.37,0.16 0.38,0.51 0.24,0.86 C 45.05,43.62 42,46.17 37.91,45 a 4.53,4.53 0 0 1 -3.33,-3.3 6.63,6.63 0 0 1 0.28,-4.7 4.31,4.31 0 0 1 1.9,-2 1.4,1.4 0 0 1 1.16,-0.18 0.76,0.76 0 0 1 0.62,0.7 0.71,0.71 0 0 1 -0.45,0.71 l -0.18,0.08 a 3.08,3.08 0 0 0 -2,2.63 5.77,5.77 0 0 0 -0.09,1 3.56,3.56 0 0 0 3.5,4 c 0.16,0 0.37,0.08 0.43,-0.11 0.06,-0.19 0.1,-0.47 -0.19,-0.6 A 1.46,1.46 0 0 1 39.2,43.07 0.48,0.48 0 0 1 39.1,42.36 c 0.22,-0.28 0.58,-0.37 0.77,-0.09 a 1.22,1.22 0 0 0 1,0.52 c 0.28,0.05 0.32,0.21 0.54,1.03 z" id="path13" style="fill:#cadbc0;fill-opacity:1"></path>
      <path d="m 38.33,23.76 a 0.6,0.6 0 0 1 -0.34,0.66 0.53,0.53 0 0 1 -0.64,-0.15 1.5,1.5 0 0 1 -0.28,-0.41 c -0.73,-1.67 -2.2,-2.26 -3.83,-2.55 a 14,14 0 0 0 -3.91,0 c -0.68,0.07 -0.73,0.11 -0.48,0.72 a 16.47,16.47 0 0 1 0.8,3.31 10.33,10.33 0 0 0 1.1,3.21 4.56,4.56 0 0 0 1.61,1.76 c 0.52,0.32 0.65,0.66 0.46,1.05 a 0.94,0.94 0 0 1 -1.3,0.37 4.48,4.48 0 0 1 -1.93,-2 15.24,15.24 0 0 1 -1.51,-5.08 11.94,11.94 0 0 0 -0.82,-3 c -0.4,-1 -0.15,-1.38 0.85,-1.54 a 23.15,23.15 0 0 1 4.81,-0.24 7,7 0 0 1 3.32,1 4.86,4.86 0 0 1 2,2.47 3,3 0 0 1 0.09,0.42 z" id="path15" style="fill:#cadbc0;fill-opacity:1"></path>
      <path d="m 63.09,26.49 c 0.27,-0.83 0.27,-0.82 -0.44,-1 a 7,7 0 0 0 -4.72,0.08 3.05,3.05 0 0 1 -0.77,0.2 0.6,0.6 0 0 1 -0.68,-0.33 0.68,0.68 0 0 1 0.17,-0.82 2.07,2.07 0 0 1 0.78,-0.44 6.83,6.83 0 0 1 4.42,-0.4 c 0.77,0.22 1.57,0.35 2.35,0.54 0.78,0.19 0.93,0.51 0.78,1.16 a 19.12,19.12 0 0 1 -0.92,3.18 6.93,6.93 0 0 1 -1.93,2.66 c -0.71,0.59 -1,0.56 -1.66,-0.09 a 0.5,0.5 0 0 0 -0.32,-0.19 c -0.54,-0.08 -0.81,-0.36 -0.51,-0.9 0.17,-0.32 -0.08,-0.39 -0.23,-0.55 a 0.6,0.6 0 0 1 0,-0.9 0.56,0.56 0 0 1 0.74,-0.09 0.62,0.62 0 0 1 0.27,0.78 c -0.12,0.49 -0.11,0.49 0.42,1.08 A 1.12,1.12 0 0 0 61.5,29.9 c -0.73,-0.53 -0.88,-0.86 -0.59,-1.25 0.29,-0.39 0.6,-0.34 1.28,0.17 a 1.37,1.37 0 0 0 0.49,-0.93 c -0.5,-0.13 -0.93,-0.5 -1.46,0.08 -0.28,0.31 -0.62,-0.24 -0.89,-0.16 -0.27,0.08 -0.44,0.52 -0.84,0.46 a 0.7,0.7 0 0 1 -0.6,-0.47 0.68,0.68 0 0 1 0.14,-0.75 c 0.2,-0.2 0.55,-0.37 0.71,-0.17 0.56,0.68 1.17,-0.25 1.72,0.12 0.09,0.06 0.14,-0.09 0.21,-0.16 0.57,-0.56 0.58,-0.56 1.42,-0.35 z" id="path17" style="fill:#cadbc0;fill-opacity:1"></path>
      <path d="M 45,4.33 A 0.71,0.71 0 0 0 45.7,5 0.51,0.51 0 0 1 46.13,5.59 0.54,0.54 0 0 1 45.81,6.06 c -0.29,0.15 -0.49,0 -0.72,-0.17 A 4.83,4.83 0 0 1 43.91,3.89 0.62,0.62 0 0 1 44,3.34 c 0.44,-0.78 0.44,-0.78 -0.29,-1.6 a 17.57,17.57 0 0 0 -1,3.29 c -0.06,0.24 0.16,0.33 0.37,0.39 0.21,0.06 0.71,0.19 1.05,0.33 a 0.7,0.7 0 0 1 0.52,0.86 C 44.53,7.06 44.17,7.12 43.77,7.07 A 2.36,2.36 0 0 1 43.08,6.95 c -1.05,-0.5 -2,-0.09 -3,0.24 -0.43,0.14 -0.5,0.38 -0.37,0.75 a 10.79,10.79 0 0 1 0.37,1 0.78461774,0.78461774 0 0 1 -1.45,0.6 5.91,5.91 0 0 1 -0.74,-1.75 1.63,1.63 0 0 1 1.16,-2 c 0.47,-0.16 1,-0.29 1.45,-0.41 a 1,1 0 0 0 0.8,-0.77 c 0.16,-0.72 0.39,-1.42 0.6,-2.12 a 5.78,5.78 0 0 1 0.91,-1.92 1.07,1.07 0 0 1 1.79,-0.16 3,3 0 0 1 0.78,1.16 c 0.2,0.53 0.41,1.06 0.6,1.6 0.36,0.99 0.18,1.22 -0.98,1.16 z" id="path19" style="fill:#cadbc0;fill-opacity:1"></path>
      <path d="M 54.56,42.85 A 4.74,4.74 0 0 1 49.87,37.68 6.73,6.73 0 0 1 52,33 3.85,3.85 0 0 1 53.48,32.18 c 0.61,-0.18 1,0 1.19,0.41 0.19,0.41 -0.16,0.81 -0.57,1 a 4.7,4.7 0 0 0 -2.52,4.66 3.06,3.06 0 0 0 2.12,2.89 3.72,3.72 0 0 0 2.56,0.13 6.06,6.06 0 0 0 2.92,-1.47 0.53,0.53 0 0 1 0.81,-0.06 0.58,0.58 0 0 1 0.05,0.82 2.14,2.14 0 0 1 -0.54,0.59 7.92,7.92 0 0 1 -4.94,1.7 z" id="path21" style="fill:#cadbc0;fill-opacity:1"></path>
      <path d="m 49.51,7.52 c -0.49,0.22 -0.91,0.49 -1.2,-0.09 -0.19,-0.38 0,-0.62 0.8,-0.93 A 4,4 0 0 0 48.48,5.15 2.09,2.09 0 0 0 48,6.24 35.64,35.64 0 0 1 46.57,9.9 c -0.35,0.73 -0.66,0.95 -1.09,0.79 -0.43,-0.16 -0.58,-0.63 -0.25,-1.38 0.68,-1.6 1.34,-3.21 1.94,-4.84 a 4.19,4.19 0 0 1 0.2,-0.46 c 0.61,-1.2 1.4,-1.24 2.16,-0.11 a 6.28,6.28 0 0 1 0.75,1.53 c 0.5,1.52 1,3.05 1.49,4.58 0.11,0.35 0.21,0.7 0.35,1 a 1,1 0 0 1 -0.3,1.26 3.55,3.55 0 0 1 -1.94,1 c -0.57,0.06 -1,-0.13 -1.06,-0.53 a 0.83,0.83 0 0 1 0.51,-1 c 0.29,-0.17 0.59,-0.32 0.89,-0.46 a 0.63,0.63 0 0 0 0.35,-0.9 C 50.22,9.47 49.88,8.53 49.51,7.52 Z" id="path23" style="fill:#cadbc0;fill-opacity:1"></path>
      <path d="m 64.88,20.79 c -0.5,-0.21 -0.84,-0.48 -0.56,-1 0.18,-0.33 -0.07,-0.4 -0.23,-0.55 a 0.57,0.57 0 0 1 -0.05,-0.88 0.52,0.52 0 0 1 0.64,-0.15 c 0.37,0.17 0.53,0.51 0.33,0.82 -0.42,0.63 0.22,0.57 0.38,0.87 0.3,-0.32 0.54,-0.64 0.48,-0.95 -0.06,-0.31 -0.43,-0.63 -0.58,-1 -0.07,-0.19 -0.37,-0.11 -0.56,-0.08 l -3.19,0.37 a 8.81,8.81 0 0 1 -1.1,0.09 0.72,0.72 0 0 1 -0.71,-0.6 0.77,0.77 0 0 1 0.3,-0.8 2.12,2.12 0 0 1 1,-0.42 31.81,31.81 0 0 1 5.3,-0.41 c 1,0 1.4,0.39 1.38,1.41 a 6.68,6.68 0 0 1 -1.31,3.73 11.62,11.62 0 0 1 -1.4,1.44 1.92,1.92 0 0 1 -0.58,0.39 0.63,0.63 0 0 1 -0.88,-0.21 0.59,0.59 0 0 1 0.19,-0.8 5,5 0 0 0 1.15,-1.27 z" id="path25" style="fill:#cadbc0;fill-opacity:1"></path>
      <path d="m 54.17,20.23 c -1.2,-0.64 -0.36,-1.38 -0.28,-2.11 h -0.52 a 0.74,0.74 0 0 1 -0.72,-0.71 0.79,0.79 0 0 1 0.61,-0.82 4.63,4.63 0 0 1 1.57,-0.28 1.16,1.16 0 0 1 1.2,0.87 3.91,3.91 0 0 1 -2.73,5.08 3.28,3.28 0 0 1 -3.76,-3 2,2 0 0 1 0.86,-1.82 0.69,0.69 0 0 1 0.92,0.05 0.6,0.6 0 0 1 0.11,0.82 1.33,1.33 0 0 0 0.23,1.81 1.59,1.59 0 0 0 1.92,0.41 z" id="path27" style="fill:#cadbc0;fill-opacity:1"></path>
      <path d="m 44.88,20.55 a 3.15,3.15 0 0 1 -1.73,2.83 3.28,3.28 0 0 1 -3.63,-0.69 5.62,5.62 0 0 1 -1.3,-4.11 2,2 0 0 1 2.5,-1.7 0.81,0.81 0 0 1 0.7,0.75 0.77,0.77 0 0 1 -0.55,0.76 1.73,1.73 0 0 1 -0.29,0.08 c -1.08,0.27 -1.16,0.39 -1,1.5 a 3.56,3.56 0 0 0 0.46,1.42 2,2 0 0 0 2,0.94 1.43,1.43 0 0 0 1.39,-1.64 c -0.09,-0.85 -0.16,-1.76 -1.08,-2.24 a 0.56,0.56 0 0 1 -0.26,-0.78 0.63,0.63 0 0 1 0.85,-0.3 1.87,1.87 0 0 1 1.06,0.73 5.26,5.26 0 0 1 0.88,2.45 z" id="path29" style="fill:#cadbc0;fill-opacity:1"></path>
      <path d="m 71.83,27.17 c 0.1,-0.51 0,-0.67 -0.45,-0.66 -1.21,0 -2.41,0 -3.62,0 -0.43,0 -0.85,0 -0.94,-0.51 -0.09,-0.51 0.21,-0.74 0.61,-0.93 a 2.18,2.18 0 0 1 1,-0.19 c 1.17,0 2.35,0 3.52,0 a 1.09,1.09 0 0 1 1.2,1 6.74,6.74 0 0 1 -0.44,4.12 1.18,1.18 0 0 1 -0.43,0.54 0.71,0.71 0 0 1 -1.16,-0.23 c -0.4,-0.6 -0.49,-0.62 -1,-0.16 -0.51,0.46 -1,0.47 -1.31,0.08 a 1,1 0 0 1 0.1,-1.35 c 0.19,-0.18 0.45,-0.33 0.62,-0.17 0.65,0.6 1.3,-0.22 1.94,0 0.09,0 0.16,-0.1 0.15,-0.21 -0.01,-0.11 -0.11,-0.14 -0.21,-0.12 a 1.14,1.14 0 0 1 -0.39,0.07 0.76,0.76 0 0 1 -0.6,-0.9 0.68,0.68 0 0 1 0.79,-0.6 3.24,3.24 0 0 1 0.62,0.22 z" id="path31" style="fill:#cadbc0;fill-opacity:1"></path>
      <path d="m 39.93,13.74 c -1.4,-1.08 -3.11,-1.23 -4.86,-1.77 0.49,1.18 0.91,2.19 1.32,3.2 a 4.77,4.77 0 0 1 0.26,0.76 0.61,0.61 0 0 1 -0.35,0.75 0.66,0.66 0 0 1 -0.82,-0.17 1.79,1.79 0 0 1 -0.35,-0.6 c -0.39,-1.18 -0.91,-2.3 -1.4,-3.43 -0.49,-1.13 -0.1,-1.8 1.16,-1.85 a 2.29,2.29 0 0 1 0.6,0 13.33,13.33 0 0 1 5.26,2.12 c 0.67,0.5 0.68,0.74 0,1.25 a 0.45,0.45 0 0 0 -0.24,0.38 c 0,0.27 -0.15,0.48 -0.41,0.47 a 0.82,0.82 0 0 0 -0.73,0.41 0.46,0.46 0 0 1 -0.64,0.07 0.5,0.5 0 0 1 -0.23,-0.52 c 0,-0.28 0.21,-0.39 0.47,-0.45 0.61,-0.11 0.61,-0.12 0.96,-0.62 z" id="path33" style="fill:#cadbc0;fill-opacity:1"></path>
      <path d="m 47.09,30.44 c 0.48,-0.09 0.8,0 0.86,0.48 a 0.74,0.74 0 0 1 -0.76,0.77 4.12,4.12 0 0 1 -3.19,-0.93 4,4 0 0 1 -1.15,-4 5.18,5.18 0 0 1 2.7,-3.45 1.91,1.91 0 0 1 1.36,-0.24 0.84,0.84 0 0 1 0.73,0.73 0.76,0.76 0 0 1 -0.61,0.81 c -0.16,0.05 -0.33,0.08 -0.48,0.14 a 3.72,3.72 0 0 0 -2,1.79 2.54,2.54 0 0 0 2.54,3.9 z" id="path35" style="fill:#cadbc0;fill-opacity:1"></path>
      <path d="m 58.57,14.92 a 5.47,5.47 0 0 0 0.42,-0.68 c 0.15,-0.35 0.37,-0.66 -0.2,-1 -0.57,-0.34 -0.36,-0.82 0.2,-1 0.14,-0.06 0.34,0.06 0.43,-0.14 -0.08,-0.3 -0.25,-0.08 -0.38,-0.06 a 18,18 0 0 0 -4,1 0.76,0.76 0 0 1 -1,-0.21 0.77,0.77 0 0 1 0.14,-1.08 c 0.17,-0.16 0.55,-0.28 0,-0.54 a 0.54,0.54 0 0 1 -0.19,-0.78 0.49,0.49 0 0 1 0.57,-0.31 0.62,0.62 0 0 1 0.51,0.74 c 0,0.12 -0.11,0.25 0.05,0.41 a 31.75,31.75 0 0 0 4.29,-0.71 c 0.75,-0.26 1.14,0 1.24,0.82 a 6.78,6.78 0 0 1 -0.9,4 c -0.18,0.36 -0.45,0.73 -0.93,0.58 -0.48,-0.15 -0.4,-0.67 -0.3,-1.09 z" id="path37" style="fill:#cadbc0;fill-opacity:1"></path>
      <path d="m 47.08,16.36 a 1,1 0 0 1 0.4,-1.34 1.28,1.28 0 0 0 -0.81,-0.58 c -0.35,0.29 -0.35,0.72 -0.51,1.08 -0.16,0.36 -0.42,0.62 -0.85,0.52 a 0.76,0.76 0 0 1 -0.48,-1 8.07,8.07 0 0 1 0.86,-2 0.83,0.83 0 0 1 1.14,-0.33 4.72,4.72 0 0 1 2.74,3 1.79,1.79 0 0 1 -1.66,2.33 3.43,3.43 0 0 1 -1.2,-0.05 1.43,1.43 0 0 1 -1,-0.78 0.68,0.68 0 0 1 0.63,-1 3.91,3.91 0 0 1 0.74,0.15 z" id="path39" style="fill:#cadbc0;fill-opacity:1"></path>
      <path d="m 53.5,46.65 a 20.16,20.16 0 0 1 -3,-0.35 2.67,2.67 0 0 0 -3,1 c -0.28,0.38 -0.63,0.62 -1.11,0.37 a 0.92,0.92 0 0 1 -0.27,-1.25 2.8,2.8 0 0 1 1.65,-1.51 4.74,4.74 0 0 1 2.66,-0.22 c 1.11,0.23 2.22,0.44 3.34,0.61 a 3.39,3.39 0 0 1 0.94,0.3 0.57,0.57 0 0 1 -0.29,1.08 z" id="path41" style="fill:#cadbc0;fill-opacity:1"></path>
      <path d="m 52.07,26.45 a 4.8,4.8 0 0 1 -0.87,2.74 1.86,1.86 0 0 1 -0.65,0.61 0.58,0.58 0 0 1 -0.66,0 0.56,0.56 0 0 1 -0.22,-0.7 4.9,4.9 0 0 1 0.39,-0.7 3.32,3.32 0 0 0 0.55,-1.79 2.08,2.08 0 0 0 -1.27,-2.08 c -0.61,-0.29 -0.79,-0.61 -0.58,-1 A 1,1 0 0 1 50,23 a 3.47,3.47 0 0 1 2.07,3.45 z" id="path43" style="fill:#cadbc0;fill-opacity:1"></path>
      <path d="m 36.27,47.25 c 0.21,0.63 0.39,1.13 0.53,1.64 0.14,0.51 0,0.93 -0.4,1.1 a 0.82,0.82 0 0 1 -1.08,-0.61 c -0.21,-0.64 -0.5,-1.24 -0.73,-1.86 a 1.28,1.28 0 0 1 1.28,-1.9 6.2,6.2 0 0 1 1.69,0.11 c 0.57,0.14 0.84,0.44 0.81,0.86 -0.03,0.42 -0.33,0.64 -0.95,0.66 -0.33,0.01 -0.67,0 -1.15,0 z" id="path45" style="fill:#cadbc0;fill-opacity:1"></path>
      <path d="m 68.93,47.62 c 0.36,-0.11 0.74,-0.38 1.06,0 a 0.52,0.52 0 0 1 0,0.66 c -0.33,0.44 -0.71,0.15 -1.07,0 a 9,9 0 0 1 -0.42,0.92 0.57,0.57 0 0 1 -0.71,0.22 0.52,0.52 0 0 1 -0.36,-0.54 c 0,-0.5 0,-1 0,-1.5 0,-0.71 -0.07,-0.72 -0.76,-0.76 a 2.61,2.61 0 0 1 -1,-0.13 0.71,0.71 0 0 1 -0.47,-0.7 0.64,0.64 0 0 1 0.52,-0.65 3.1,3.1 0 0 1 2.49,0.42 1.37,1.37 0 0 1 0.52,0.94 3.91,3.91 0 0 0 0.2,1.12 z" id="path47" style="fill:#cadbc0;fill-opacity:1"></path>
      <path d="m 54.9,7.65 c -0.36,0 -0.57,0.33 -0.86,0.49 a 8.43,8.43 0 0 1 -1,0.49 0.72,0.72 0 0 1 -1,-0.3 0.68,0.68 0 0 1 0.25,-1 c 0.8,-0.53 1.62,-1.06 2.47,-1.51 a 1,1 0 0 1 1.41,0.53 4,4 0 0 1 0.39,2 0.78,0.78 0 0 1 -0.73,0.81 c -0.5,0 -0.71,-0.26 -0.74,-0.73 A 1.43,1.43 0 0 0 54.9,7.65 Z" id="path49" style="fill:#cadbc0;fill-opacity:1"></path>
      <path d="m 29.46,49.43 c 0.2,-0.26 0.39,-0.53 0.6,-0.79 0.21,-0.26 0.46,-0.65 0,-1.05 a 0.69,0.69 0 0 1 0.2,-1.1 0.75,0.75 0 0 1 1,0.31 c 0.06,0.11 0,0.31 0.12,0.37 0.89,0.7 0.44,1.36 0,2.05 -0.28,0.42 -0.48,0.88 -0.74,1.3 -0.26,0.42 -0.69,0.68 -1.07,0.5 -0.38,-0.18 -0.52,-0.63 -0.33,-1.09 a 1.32,1.32 0 0 0 0.05,-0.29 z" id="path51" style="fill:#cadbc0;fill-opacity:1"></path>
      <path d="m 41.15,48.62 a 2.87,2.87 0 0 1 -0.51,1.59 1.43,1.43 0 0 1 -0.69,0.55 0.73,0.73 0 0 1 -0.91,-0.18 0.64,0.64 0 0 1 0,-0.91 1.46,1.46 0 0 0 0.17,-1.91 c -0.28,-0.53 -0.17,-0.91 0.2,-1.14 0.37,-0.23 0.77,-0.12 1.11,0.34 a 2.72,2.72 0 0 1 0.63,1.66 z" id="path53" style="fill:#cadbc0;fill-opacity:1"></path>
      <path d="m 41.89,40 c 0.29,-0.22 0,-0.45 0.08,-0.66 a 0.66,0.66 0 0 1 0.56,-0.5 0.55,0.55 0 0 1 0.52,0.23 0.51,0.51 0 0 1 0,0.73 1,1 0 0 0 -0.48,1 0.42,0.42 0 0 1 -0.38,0.41 c -0.37,0 -0.4,0.21 -0.33,0.53 a 0.46,0.46 0 0 1 -0.44,0.56 0.45,0.45 0 0 1 -0.5,-0.25 c -0.13,-0.28 -0.09,-0.6 0.2,-0.68 0.53,-0.15 0.28,-0.47 0.26,-0.76 -0.02,-0.29 0,-0.33 -0.27,-0.32 -0.27,0.01 -0.26,0.14 -0.23,0.34 a 1.08,1.08 0 0 1 0,0.4 0.72,0.72 0 0 1 -0.69,0.61 0.59,0.59 0 0 1 -0.63,-0.4 0.64,0.64 0 0 1 0.29,-0.87 c 0.41,-0.18 0.7,-0.34 0.61,-0.87 0,-0.22 0.2,-0.41 0.46,-0.46 a 0.68,0.68 0 0 1 0.7,0.28 c 0.16,0.17 -0.03,0.51 0.27,0.68 z" id="path55" style="fill:#cadbc0;fill-opacity:1"></path>
      <path d="m 34.09,29.28 c -0.07,-0.29 0.07,-0.69 -0.46,-0.73 -0.3,0 -0.44,-0.28 -0.37,-0.6 a 0.45,0.45 0 0 1 0.39,-0.39 0.5,0.5 0 0 1 0.6,0.4 c 0.05,0.2 0.09,0.39 0.37,0.36 a 0.65,0.65 0 0 1 0.71,0.27 7.8,7.8 0 0 1 0.54,1.16 c 0.08,0.23 -0.08,0.45 -0.25,0.62 a 3.31,3.31 0 0 1 -0.91,0.61 0.68,0.68 0 0 1 -0.9,-0.16 0.65,0.65 0 0 1 0,-0.83 C 34,29.76 34.22,29.6 34.09,29.28 Z" id="path57" style="fill:#cadbc0;fill-opacity:1"></path>
      <path d="M 60.6,35.6 A 0.64,0.64 0 0 1 60,35.15 3.79,3.79 0 0 0 58.58,33.41 C 58,32.99 57.89,32.54 58.15,32.24 c 0.26,-0.3 0.64,-0.25 1.18,0.29 0.54,0.54 1.26,0.88 1.6,1.61 a 1.79,1.79 0 0 1 0.29,0.84 0.6,0.6 0 0 1 -0.62,0.62 z" id="path59" style="fill:#cadbc0;fill-opacity:1"></path>
      <path d="m 60,36.17 a 0.61,0.61 0 0 1 -0.86,0.55 c -0.54,-0.19 -0.93,-0.24 -1.27,0.33 a 0.61,0.61 0 0 1 -0.82,0.14 0.69,0.69 0 0 1 -0.43,-0.73 0.64,0.64 0 0 1 0.54,-0.64 1.64,1.64 0 0 0 0.89,-0.37 2.38,2.38 0 0 1 1.78,0.26 0.61,0.61 0 0 1 0.17,0.46 z" id="path61" style="fill:#cadbc0;fill-opacity:1"></path>
      <path d="m 46.46,37.79 a 1.83,1.83 0 0 1 0,0.27 c -0.05,0.28 -0.16,0.52 -0.48,0.55 a 0.51,0.51 0 0 1 -0.59,-0.43 8.26,8.26 0 0 0 -0.7,-1.87 0.56,0.56 0 0 1 0.19,-0.79 0.62,0.62 0 0 1 0.88,0.18 3.83,3.83 0 0 1 0.7,2.09 z" id="path63" style="fill:#cadbc0;fill-opacity:1"></path>
      <path d="m 29.46,49.43 -0.2,0.21 c -0.47,0.32 -0.91,0.38 -1.26,-0.17 -0.1,-0.15 -0.21,-0.24 -0.39,-0.1 a 0.71,0.71 0 0 1 -1.06,0 c -0.36,-0.4 -0.17,-0.79 0.13,-1.14 v 0 c 0.77,0 0.77,0 1.3,0.6 0.34,-0.29 0.63,-0.75 1.17,-0.52 0.54,0.23 0.38,0.69 0.31,1.12 z" id="path65" style="fill:#cadbc0;fill-opacity:1"></path>
      <path d="m 44.13,40.6 a 0.59,0.59 0 0 1 -0.65,-0.68 c 0.09,-0.38 0.16,-0.76 0.23,-1.15 a 0.76,0.76 0 0 1 1,-0.58 0.7,0.7 0 0 1 0.39,1 3.3,3.3 0 0 0 -0.43,1 0.52,0.52 0 0 1 -0.54,0.41 z" id="path67" style="fill:#cadbc0;fill-opacity:1"></path>
      <path d="m 61.45,37.35 a 4.14,4.14 0 0 1 -0.2,1.14 c -0.12,0.31 -0.32,0.53 -0.67,0.49 a 0.6,0.6 0 0 1 -0.54,-0.72 7.61,7.61 0 0 1 0.16,-1.19 0.67,0.67 0 0 1 0.78,-0.61 c 0.49,0.08 0.53,0.46 0.47,0.89 z" id="path69" style="fill:#cadbc0;fill-opacity:1"></path>
      <path d="m 30.11,33.93 c 0,0.57 -0.41,0.67 -0.58,0.95 -0.17,0.28 0.37,0.61 0.1,1 a 0.59,0.59 0 0 1 -0.78,0.23 c -0.31,-0.14 -0.52,-0.5 -0.32,-0.72 A 1.46,1.46 0 0 0 28.77,34 c -0.05,-0.36 0.39,-0.67 0.75,-0.63 a 0.62,0.62 0 0 1 0.59,0.56 z" id="path71" style="fill:#cadbc0;fill-opacity:1"></path>
      <path d="m 40.06,30.57 a 0.66,0.66 0 0 1 -0.65,0.67 c -0.38,0 -0.74,-0.41 -0.57,-0.76 a 0.7,0.7 0 0 0 -0.2,-1 0.56,0.56 0 0 1 0.06,-0.81 0.62,0.62 0 0 1 0.73,-0.15 c 0.31,0.13 0.54,0.44 0.39,0.71 -0.26,0.45 -0.35,0.79 0.16,1.1 0.02,0.04 0.02,0.18 0.08,0.24 z" id="path73" style="fill:#cadbc0;fill-opacity:1"></path>
      <path d="M 29.69,38 A 0.68,0.68 0 0 1 29,37.5 0.66,0.66 0 0 1 29.32,36.65 c 0.36,-0.16 0.74,-0.2 0.72,-0.75 0,-0.24 0.25,-0.37 0.51,-0.37 a 0.5,0.5 0 0 1 0.52,0.38 0.47,0.47 0 0 1 -0.19,0.61 c -0.4,0.17 -0.46,0.44 -0.46,0.84 0,0.4 -0.33,0.64 -0.73,0.64 z" id="path75" style="fill:#cadbc0;fill-opacity:1"></path>
      <path d="m 52.72,13.43 c 0,0.05 0,0.1 0,0.12 a 1.43,1.43 0 0 0 -0.28,1.53 c 0.06,0.22 -0.2,0.4 -0.45,0.46 a 0.59,0.59 0 0 1 -0.62,-0.22 c -0.16,-0.19 -0.25,-0.48 -0.07,-0.64 0.39,-0.34 0.53,-0.63 0.15,-1.09 -0.14,-0.17 0,-0.46 0.18,-0.62 a 0.65,0.65 0 0 1 0.75,-0.08 0.62,0.62 0 0 1 0.34,0.54 z" id="path77" style="fill:#cadbc0;fill-opacity:1"></path>
      <path d="m 30.22,45.79 a 2.09,2.09 0 0 1 -0.3,-0.09 c -0.4,-0.19 -0.35,-0.58 -0.46,-0.92 -0.11,-0.34 -0.73,-0.09 -0.8,-0.59 a 0.53,0.53 0 0 1 0.34,-0.64 0.45,0.45 0 0 1 0.65,0.28 c 0.09,0.47 0.31,0.52 0.74,0.54 0.43,0.02 0.59,0.39 0.52,0.81 a 0.75,0.75 0 0 1 -0.69,0.61 z" id="path79" style="fill:#cadbc0;fill-opacity:1"></path>
      <path d="m 42.09,21.77 a 0.62,0.62 0 0 1 -0.58,-0.91 1.11,1.11 0 0 0 0.19,-1 0.51,0.51 0 0 1 0.37,-0.63 0.57,0.57 0 0 1 0.64,0.15 0.49,0.49 0 0 1 0.12,0.64 1,1 0 0 0 -0.15,1 0.6,0.6 0 0 1 -0.59,0.75 z" id="path81" style="fill:#cadbc0;fill-opacity:1"></path>
      <path d="M 43.66,9.66 A 0.64,0.64 0 0 1 43,9.19 0.52,0.52 0 0 1 43.27,8.51 1,1 0 0 0 44,7.71 c 0,-0.29 0.36,-0.37 0.65,-0.32 a 0.53,0.53 0 0 1 0.44,0.35 c 0.09,0.27 0.08,0.59 -0.19,0.71 a 1,1 0 0 0 -0.69,0.83 c -0.02,0.29 -0.32,0.38 -0.55,0.38 z" id="path83" style="fill:#cadbc0;fill-opacity:1"></path>
      <path d="m 31.61,57.68 a 1.71,1.71 0 0 0 -0.92,-0.12 0.6,0.6 0 0 1 -0.65,-0.7 0.59,0.59 0 0 1 0.75,-0.58 4.5,4.5 0 0 0 1.06,0.17 0.57,0.57 0 0 1 0.57,0.67 c -0.02,0.39 -0.34,0.61 -0.81,0.56 z" id="path85" style="fill:#cadbc0;fill-opacity:1"></path>
      <path d="m 49.78,28.1 c 0,0.17 -0.08,0.43 -0.2,0.43 -0.83,0 -0.6,1 -1.22,1.21 a 0.5,0.5 0 0 1 -0.6,-0.24 c -0.11,-0.19 -0.16,-0.46 0,-0.55 0.54,-0.29 0.64,-0.81 0.85,-1.3 a 0.56,0.56 0 0 1 0.79,-0.2 0.63,0.63 0 0 1 0.38,0.65 z" id="path87" style="fill:#cadbc0;fill-opacity:1"></path>
      <path d="m 30.45,59.31 a 0.54,0.54 0 0 1 -0.61,-0.34 0.53,0.53 0 0 1 0.15,-0.64 c 0.19,-0.17 0.45,-0.24 0.64,0 0.19,0.24 0.52,0.41 0.92,0.15 0.4,-0.26 0.58,0 0.76,0.28 a 0.6,0.6 0 0 1 -0.14,0.81 0.58,0.58 0 0 1 -0.82,0 c -0.15,-0.12 -0.24,-0.38 -0.4,-0.42 -0.16,-0.04 -0.37,0.11 -0.5,0.16 z" id="path89" style="fill:#cadbc0;fill-opacity:1"></path>
      <path d="m 47.62,26.29 a 0.76,0.76 0 0 1 0.8,0.82 1,1 0 0 1 -0.92,1 0.79,0.79 0 0 1 -0.76,-0.78 1,1 0 0 1 0.88,-1.04 z" id="path91" style="fill:#cadbc0;fill-opacity:1"></path>
      <path d="m 39.31,38.25 a 0.78,0.78 0 0 1 0.77,0.75 1.08,1.08 0 0 1 -1,1 0.69,0.69 0 0 1 -0.71,-0.68 1.11,1.11 0 0 1 0.94,-1.07 z" id="path93" style="fill:#cadbc0;fill-opacity:1"></path>
      <path d="m 40.85,35.58 c -0.57,0 -0.91,-0.24 -0.94,-0.67 a 0.8,0.8 0 0 1 0.84,-0.79 0.86,0.86 0 0 1 0.94,0.81 c -0.01,0.4 -0.33,0.65 -0.84,0.65 z" id="path95" style="fill:#cadbc0;fill-opacity:1"></path>
      <path d="m 58.58,21.37 a 0.84,0.84 0 0 1 -0.79,0.86 0.82,0.82 0 0 1 -0.81,-0.71 0.78,0.78 0 0 1 0.72,-0.89 0.83,0.83 0 0 1 0.88,0.74 z" id="path97" style="fill:#cadbc0;fill-opacity:1"></path>
      <path d="m 57.76,37.49 c 0.35,0.33 0.72,0 1.12,0 0.4,0 0.56,0.18 0.56,0.53 0,0.35 -0.21,0.63 -0.55,0.54 a 1.43,1.43 0 0 0 -1.1,0 c -0.31,0.15 -0.58,-0.1 -0.61,-0.46 -0.03,-0.36 0.16,-0.56 0.58,-0.61 z" id="path99" style="fill:#cadbc0;fill-opacity:1"></path>
      <path d="m 58,18.75 a 0.78,0.78 0 0 1 0.77,0.76 0.75,0.75 0 0 1 -0.72,0.8 0.78,0.78 0 0 1 -0.84,-0.79 0.82,0.82 0 0 1 0.79,-0.77 z" id="path101" style="fill:#cadbc0;fill-opacity:1"></path>
      <path d="m 63.32,19.93 a 0.79,0.79 0 0 1 0.71,0.81 0.76,0.76 0 1 1 -1.51,-0.07 0.84,0.84 0 0 1 0.8,-0.74 z" id="path103" style="fill:#cadbc0;fill-opacity:1"></path>
      <path d="m 44.16,34.88 a 0.61,0.61 0 0 1 -0.59,0.66 1,1 0 0 1 -1.06,-0.71 0.7,0.7 0 0 1 0.76,-0.74 0.86,0.86 0 0 1 0.89,0.79 z" id="path105" style="fill:#cadbc0;fill-opacity:1"></path>
      <path d="m 66.92,51.9 a 1,1 0 0 1 -0.94,0.87 0.66,0.66 0 0 1 -0.75,-0.62 c 0,-0.45 0.45,-0.83 1,-0.82 a 0.58,0.58 0 0 1 0.69,0.57 z" id="path107" style="fill:#cadbc0;fill-opacity:1"></path>
      <path d="m 55.9,54.19 a 0.76,0.76 0 0 1 -0.79,0.73 0.73,0.73 0 0 1 -0.73,-0.77 0.765,0.765 0 0 1 1.53,0 z" id="path109" style="fill:#cadbc0;fill-opacity:1"></path>
      <path d="m 60.93,60.31 c 0.19,0.1 0.3,-0.09 0.45,-0.12 a 0.7,0.7 0 0 1 0.92,0.52 0.79,0.79 0 0 1 -0.62,1 0.74,0.74 0 0 1 -0.82,-0.69 2.92,2.92 0 0 1 0.08,-0.68 z" id="path111" style="fill:#cadbc0;fill-opacity:1"></path>
      <path d="m 43.54,47.64 a 1.43,1.43 0 0 1 0.68,0 0.77,0.77 0 0 1 -0.33,1.5 0.75,0.75 0 0 1 -0.62,-0.87 1.3,1.3 0 0 1 0.3,-0.61 z" id="path113" style="fill:#cadbc0;fill-opacity:1"></path>
      <path d="m 35.3,51.64 a 0.76,0.76 0 0 1 -0.71,0.81 0.72,0.72 0 0 1 -0.74,-0.76 0.71,0.71 0 0 1 0.65,-0.75 0.72,0.72 0 0 1 0.8,0.7 z" id="path115" style="fill:#cadbc0;fill-opacity:1"></path>
      <path d="m 28.63,37.44 a 0.78,0.78 0 0 1 -0.71,0.8 0.71,0.71 0 0 1 -0.77,-0.61 0.77,0.77 0 0 1 0.76,-0.85 0.71,0.71 0 0 1 0.72,0.66 z" id="path117" style="fill:#cadbc0;fill-opacity:1"></path>
      <path d="m 31.74,26.81 a 0.73,0.73 0 0 1 0.78,0.73 0.77,0.77 0 0 1 -0.77,0.75 0.74,0.74 0 0 1 0,-1.48 z" id="path119" style="fill:#cadbc0;fill-opacity:1"></path>
      <path d="M 26.51,37 A 0.69,0.69 0 0 1 25.78,36.33 0.74,0.74 0 0 1 26.5,35.54 0.71,0.71 0 0 1 27.23,36.21 0.74,0.74 0 0 1 26.51,37 Z" id="path121" style="fill:#cadbc0;fill-opacity:1"></path>
      <path d="m 63.44,35.35 a 0.71,0.71 0 0 1 0.75,0.65 0.72062473,0.72062473 0 1 1 -1.44,0.06 0.72,0.72 0 0 1 0.69,-0.71 z" id="path123" style="fill:#cadbc0;fill-opacity:1"></path>
      <path d="m 43.57,47.62 a 3.87,3.87 0 0 1 -0.69,0 0.69,0.69 0 1 1 0.81,-0.64 3.6,3.6 0 0 1 -0.15,0.66 z" id="path125" style="fill:#cadbc0;fill-opacity:1"></path>
      <path d="m 76.16,50.65 a 0.71,0.71 0 1 1 0,1.41 0.71,0.71 0 0 1 0,-1.41 z" id="path127" style="fill:#cadbc0;fill-opacity:1"></path>
      <path d="m 61.19,62.65 a 0.76,0.76 0 0 1 -0.81,0.71 0.62,0.62 0 0 1 -0.61,-0.66 0.74,0.74 0 0 1 0.74,-0.77 0.71,0.71 0 0 1 0.68,0.72 z" id="path129" style="fill:#cadbc0;fill-opacity:1"></path>
      <path d="m 54.3,9.87 a 0.68,0.68 0 0 1 -0.73,-0.64 0.71,0.71 0 0 1 0.71,-0.78 0.76,0.76 0 0 1 0.7,0.7 0.7,0.7 0 0 1 -0.68,0.72 z" id="path131" style="fill:#cadbc0;fill-opacity:1"></path>
      <path d="m 23.67,49.59 v 0 a 3.55,3.55 0 0 1 0,-0.79 0.61,0.61 0 0 1 0.72,-0.52 0.63,0.63 0 0 1 0.58,0.59 0.6,0.6 0 0 1 -0.51,0.72 3.69,3.69 0 0 1 -0.79,0 z" id="path133" style="fill:#cadbc0;fill-opacity:1"></path>
      <path d="m 68.51,39.22 a 0.71,0.71 0 0 1 -0.69,0.71 0.77,0.77 0 0 1 -0.71,-0.71 0.71,0.71 0 0 1 0.7,-0.69 0.67,0.67 0 0 1 0.7,0.69 z" id="path135" style="fill:#cadbc0;fill-opacity:1"></path>
      <path d="m 64.73,37.18 a 0.68,0.68 0 0 1 0.64,0.73 0.72,0.72 0 0 1 -0.74,0.65 0.68,0.68 0 0 1 -0.63,-0.74 0.67,0.67 0 0 1 0.73,-0.64 z" id="path137" style="fill:#cadbc0;fill-opacity:1"></path>
      <path d="M 58.2,45.62 A 0.69,0.69 0 0 1 57.55,46.34 0.7,0.7 0 0 1 56.86,45.65 0.62,0.62 0 0 1 57.47,45 0.63,0.63 0 0 1 58.2,45.62 Z" id="path139" style="fill:#cadbc0;fill-opacity:1"></path>
      <path d="m 33.5,50.78 a 0.74,0.74 0 0 1 -0.65,0.81 0.69,0.69 0 1 1 0,-1.37 0.59,0.59 0 0 1 0.65,0.56 z" id="path141" style="fill:#cadbc0;fill-opacity:1"></path>
      <path d="m 70.22,37.94 a 0.71,0.71 0 0 1 -0.66,0.74 0.62,0.62 0 0 1 -0.7,-0.57 0.67,0.67 0 0 1 0.59,-0.78 0.68,0.68 0 0 1 0.77,0.61 z" id="path143" style="fill:#cadbc0;fill-opacity:1"></path>
      <path d="m 27.57,34.12 a 0.65,0.65 0 0 1 0.67,0.69 0.66,0.66 0 0 1 -0.62,0.66 0.68,0.68 0 0 1 -0.73,-0.65 0.71,0.71 0 0 1 0.68,-0.7 z" id="path145" style="fill:#cadbc0;fill-opacity:1"></path>
      <path d="m 57.8,53.75 a 0.65,0.65 0 0 1 -0.6,0.67 0.66,0.66 0 1 1 0,-1.32 0.65,0.65 0 0 1 0.6,0.65 z" id="path147" style="fill:#cadbc0;fill-opacity:1"></path>
      <path d="m 59.73,20.31 a 0.65,0.65 0 0 1 0,1.3 0.65,0.65 0 0 1 -0.67,-0.7 0.64,0.64 0 0 1 0.67,-0.6 z" id="path149" style="fill:#cadbc0;fill-opacity:1"></path>
      <path d="m 57,52 a 0.64,0.64 0 0 1 -0.74,0.61 0.62,0.62 0 0 1 -0.55,-0.7 0.66,0.66 0 0 1 0.74,-0.62 A 0.64,0.64 0 0 1 57,52 Z" id="path151" style="fill:#cadbc0;fill-opacity:1"></path>
      <path d="m 54.14,14.42 a 0.62,0.62 0 0 1 -0.62,0.63 0.58,0.58 0 0 1 -0.66,-0.59 0.57,0.57 0 0 1 0.61,-0.64 0.62,0.62 0 0 1 0.67,0.6 z" id="path153" style="fill:#cadbc0;fill-opacity:1"></path>
      <path d="m 67.08,42.56 a 0.73,0.73 0 0 1 -0.73,-0.7 0.61,0.61 0 0 1 0.61,-0.65 0.71,0.71 0 0 1 0.69,0.7 0.63,0.63 0 0 1 -0.57,0.65 z" id="path155" style="fill:#cadbc0;fill-opacity:1"></path>
      <path d="m 63.46,19 a 0.6,0.6 0 0 1 -0.67,0.6 0.59,0.59 0 0 1 -0.59,-0.68 0.6,0.6 0 0 1 0.66,-0.6 0.61,0.61 0 0 1 0.6,0.68 z" id="path157" style="fill:#cadbc0;fill-opacity:1"></path>
      <path d="m 37.18,26.66 a 0.64,0.64 0 0 1 0.12,-1.27 0.61,0.61 0 0 1 0.58,0.68 0.64,0.64 0 0 1 -0.7,0.59 z" id="path159" style="fill:#cadbc0;fill-opacity:1"></path>
      <path d="M 69.67,40.8 69.48,41 a 2.24,2.24 0 0 1 -0.58,-0.1 0.56,0.56 0 0 1 -0.35,-0.73 0.64,0.64 0 0 1 0.75,-0.49 0.57,0.57 0 0 1 0.49,0.64 2.44,2.44 0 0 1 -0.12,0.48 z" id="path161" style="fill:#cadbc0;fill-opacity:1"></path>
      <path d="M 11.83,62.2 C 11.47,62.15 11.19,62.01 11.16,61.6 A 0.62,0.62 0 0 1 11.8,61 0.71,0.71 0 0 1 12.52,61.66 0.61,0.61 0 0 1 11.83,62.2 Z" id="path163" style="fill:#cadbc0;fill-opacity:1"></path>
      <path d="m 71.14,36 a 0.59,0.59 0 0 1 0.63,0.62 0.57,0.57 0 0 1 -0.55,0.59 0.6,0.6 0 0 1 -0.68,-0.57 0.61,0.61 0 0 1 0.6,-0.64 z" id="path165" style="fill:#cadbc0;fill-opacity:1"></path>
      <path d="m 68.29,50.09 a 0.61,0.61 0 0 1 0.68,0.58 0.62,0.62 0 0 1 -1.23,0.09 0.61,0.61 0 0 1 0.55,-0.67 z" id="path167" style="fill:#cadbc0;fill-opacity:1"></path>
      <path d="M 50.25,26.5 A 0.62837091,0.62837091 0 1 1 49,26.37 a 0.6,0.6 0 0 1 0.63,-0.53 0.61,0.61 0 0 1 0.62,0.66 z" id="path169" style="fill:#cadbc0;fill-opacity:1"></path>
      <path d="m 35.74,26.72 a 0.6,0.6 0 0 1 -0.63,0.58 0.59,0.59 0 0 1 -0.62,-0.63 0.61,0.61 0 0 1 0.64,-0.62 0.59,0.59 0 0 1 0.61,0.67 z" id="path171" style="fill:#cadbc0;fill-opacity:1"></path>
      <path d="m 33.48,24 c -0.43,-0.06 -0.66,-0.26 -0.65,-0.65 a 0.57,0.57 0 0 1 0.62,-0.62 0.59,0.59 0 0 1 0.61,0.63 c 0,0.43 -0.29,0.57 -0.58,0.64 z" id="path173" style="fill:#cadbc0;fill-opacity:1"></path>
      <path d="m 58.6,14.88 c -0.25,-0.1 -0.51,0.1 -0.77,0 a 0.59,0.59 0 0 1 -0.39,-0.71 0.56,0.56 0 0 1 0.54,-0.49 0.58,0.58 0 0 1 0.66,0.47 2.28,2.28 0 0 1 -0.07,0.78 z" id="path175" style="fill:#cadbc0;fill-opacity:1"></path>
      <path d="m 55.68,28.92 a 0.6,0.6 0 0 1 0.58,0.66 0.57,0.57 0 0 1 -0.58,0.55 0.61,0.61 0 1 1 0,-1.22 z" id="path177" style="fill:#cadbc0;fill-opacity:1"></path>
      <path d="m 37.72,29.92 a 0.58,0.58 0 0 1 0.64,0.59 0.57,0.57 0 0 1 -0.52,0.61 0.61,0.61 0 0 1 -0.69,-0.54 0.6,0.6 0 0 1 0.57,-0.66 z" id="path179" style="fill:#cadbc0;fill-opacity:1"></path>
      <path d="m 33.5,26.7 a 0.59103722,0.59103722 0 1 1 0.07,-1.18 0.54,0.54 0 0 1 0.51,0.62 0.55,0.55 0 0 1 -0.58,0.56 z" id="path181" style="fill:#cadbc0;fill-opacity:1"></path>
      <path d="m 53.47,29.13 c 0.45,0 0.71,0.18 0.74,0.58 a 0.62699681,0.62699681 0 0 1 -1.25,0.1 0.59,0.59 0 0 1 0.51,-0.68 z" id="path183" style="fill:#cadbc0;fill-opacity:1"></path>
      <path d="m 54.67,27.51 a 0.54,0.54 0 0 1 0.55,0.55 0.59135438,0.59135438 0 1 1 -1.18,0.08 0.59,0.59 0 0 1 0.63,-0.63 z" id="path185" style="fill:#cadbc0;fill-opacity:1"></path>
      <path d="m 69.09,28.59 a 0.64,0.64 0 0 1 -0.64,-0.71 0.61,0.61 0 0 1 0.66,-0.59 0.63,0.63 0 0 1 0.64,0.71 0.64,0.64 0 0 1 -0.66,0.59 z" id="path187" style="fill:#cadbc0;fill-opacity:1"></path>
      <path d="m 58.85,44 a 0.57,0.57 0 0 1 -0.59,0.54 0.60168513,0.60168513 0 1 1 0.09,-1.2 0.58,0.58 0 0 1 0.5,0.66 z" id="path189" style="fill:#cadbc0;fill-opacity:1"></path>
      <path d="m 36.07,24.33 a 0.58,0.58 0 0 1 0.62,0.61 0.54,0.54 0 0 1 -0.55,0.57 0.55,0.55 0 0 1 -0.62,-0.5 0.59,0.59 0 0 1 0.55,-0.68 z" id="path191" style="fill:#cadbc0;fill-opacity:1"></path>
      <path d="M 50,10.7 A 0.59,0.59 0 0 1 49.36,11.28 0.53,0.53 0 0 1 48.79,10.71 0.6,0.6 0 0 1 49.38,10.03 0.59,0.59 0 0 1 50,10.7 Z" id="path193" style="fill:#cadbc0;fill-opacity:1"></path>
      <path d="m 63.45,38.35 c -0.06,0.43 -0.27,0.66 -0.66,0.65 a 0.62,0.62 0 0 1 0.05,-1.23 0.6,0.6 0 0 1 0.61,0.58 z" id="path195" style="fill:#cadbc0;fill-opacity:1"></path>
      <path d="m 28.57,33.24 a 0.6,0.6 0 0 1 -0.54,0.58 0.58,0.58 0 0 1 -0.65,-0.57 0.59,0.59 0 0 1 0.53,-0.61 0.63,0.63 0 0 1 0.66,0.6 z" id="path197" style="fill:#cadbc0;fill-opacity:1"></path>
      <path d="M 36.43,27 A 0.6,0.6 0 0 1 36.98,27.68 0.6,0.6 0 0 1 35.79,27.6 0.6,0.6 0 0 1 36.43,27 Z" id="path199" style="fill:#cadbc0;fill-opacity:1"></path>
      <path d="m 56.15,45.33 a 0.59,0.59 0 0 1 -0.56,-0.67 0.54,0.54 0 0 1 0.6,-0.52 0.56,0.56 0 0 1 0.57,0.56 0.61,0.61 0 0 1 -0.61,0.63 z" id="path201" style="fill:#cadbc0;fill-opacity:1"></path>
      <path d="m 72.18,52.22 a 0.6,0.6 0 1 1 -0.53,0.58 0.54,0.54 0 0 1 0.53,-0.58 z" id="path203" style="fill:#cadbc0;fill-opacity:1"></path>
      <path d="M 42.24,8.22 A 0.53,0.53 0 0 1 41.71,7.67 0.59,0.59 0 1 1 42.88,7.6 0.58,0.58 0 0 1 42.24,8.22 Z" id="path205" style="fill:#cadbc0;fill-opacity:1"></path>
      <path d="m 33.87,52.75 a 0.61,0.61 0 0 1 -0.63,0.65 0.6,0.6 0 0 1 0.08,-1.19 0.54,0.54 0 0 1 0.55,0.54 z" id="path207" style="fill:#cadbc0;fill-opacity:1"></path>
      <path d="m 29.39,47.16 a 0.57,0.57 0 0 1 -0.56,0.58 0.52,0.52 0 0 1 -0.57,-0.55 0.5,0.5 0 0 1 0.54,-0.57 0.54,0.54 0 0 1 0.59,0.54 z" id="path209" style="fill:#cadbc0;fill-opacity:1"></path>
      <path d="m 33.27,24.75 a 0.52,0.52 0 0 1 -0.6,0.53 0.51,0.51 0 0 1 -0.51,-0.52 0.53,0.53 0 0 1 0.55,-0.59 c 0.36,0 0.54,0.23 0.56,0.58 z" id="path211" style="fill:#cadbc0;fill-opacity:1"></path>
      <path d="m 47.44,18.89 a 0.52,0.52 0 0 1 0.5,0.61 0.5,0.5 0 0 1 -0.52,0.49 0.52,0.52 0 0 1 -0.57,-0.56 0.53,0.53 0 0 1 0.59,-0.54 z" id="path213" style="fill:#cadbc0;fill-opacity:1"></path>
      <path d="m 42.4,48.69 a 0.54,0.54 0 0 1 0.51,0.6 0.5,0.5 0 0 1 -0.58,0.52 0.52,0.52 0 0 1 -0.52,-0.59 0.55,0.55 0 0 1 0.59,-0.53 z" id="path215" style="fill:#cadbc0;fill-opacity:1"></path>
      <path d="m 60.92,60.31 a 3.49,3.49 0 0 1 -0.42,0.55 0.51,0.51 0 0 1 -0.73,0 0.53,0.53 0 0 1 -0.09,-0.72 c 0.16,-0.27 0.43,-0.27 0.71,-0.2 0.28,0.07 0.22,0.44 0.53,0.37 z" id="path217" style="fill:#cadbc0;fill-opacity:1"></path>
      <path d="m 35.33,24 c 0,0.3 -0.21,0.51 -0.52,0.5 a 0.5,0.5 0 0 1 -0.52,-0.59 0.49,0.49 0 0 1 0.51,-0.5 c 0.35,-0.02 0.52,0.21 0.53,0.59 z" id="path219" style="fill:#cadbc0;fill-opacity:1"></path>
      <path d="m 38.06,13.22 c 0.35,0 0.54,0.2 0.54,0.49 a 0.47,0.47 0 0 1 -0.48,0.51 0.48,0.48 0 0 1 -0.55,-0.54 0.46,0.46 0 0 1 0.49,-0.46 z" id="path221" style="fill:#cadbc0;fill-opacity:1"></path>
      <path d="m 61.54,58.72 a 0.51,0.51 0 0 1 0.51,0.6 0.52,0.52 0 0 1 -1,0 0.51,0.51 0 0 1 0.49,-0.6 z" id="path223" style="fill:#cadbc0;fill-opacity:1"></path>
      <path d="M 49.61,9 A 0.48,0.48 0 0 1 49.07,9.45 0.46,0.46 0 0 1 48.58,8.94 0.48,0.48 0 0 1 49.17,8.44 C 49.49,8.47 49.6,8.69 49.61,9 Z" id="path225" style="fill:#cadbc0;fill-opacity:1"></path>
      <path d="m 32.58,28.68 c 0.32,0 0.53,0.14 0.56,0.46 a 0.47,0.47 0 0 1 -0.43,0.56 0.51,0.51 0 1 1 -0.13,-1 z" id="path227" style="fill:#cadbc0;fill-opacity:1"></path>
      <path d="m 47.3,20.73 a 0.5,0.5 0 0 1 0.49,0.52 0.45,0.45 0 0 1 -0.49,0.5 0.46,0.46 0 0 1 -0.5,-0.5 0.51,0.51 0 0 1 0.5,-0.52 z" id="path229" style="fill:#cadbc0;fill-opacity:1"></path>
      <path d="m 57.83,39.39 a 0.45,0.45 0 0 1 -0.54,0.45 0.44,0.44 0 0 1 -0.43,-0.54 0.47,0.47 0 0 1 0.54,-0.44 0.48,0.48 0 0 1 0.43,0.53 z" id="path231" style="fill:#cadbc0;fill-opacity:1"></path>
      <path d="m 26.68,48.22 h -0.39 a 0.5,0.5 0 0 1 -0.52,-0.58 0.44,0.44 0 0 1 0.56,-0.41 0.47,0.47 0 0 1 0.4,0.65 c 0,0.12 -0.05,0.25 -0.08,0.38 z" id="path233" style="fill:#cadbc0;fill-opacity:1"></path>
      <path d="m 27.85,46.53 c 0,0.3 -0.2,0.5 -0.53,0.46 a 0.46,0.46 0 0 1 -0.43,-0.55 0.44,0.44 0 0 1 0.47,-0.41 c 0.33,-0.03 0.49,0.18 0.49,0.5 z" id="path235" style="fill:#cadbc0;fill-opacity:1"></path>
      <path d="m 28.22,44.69 a 0.48,0.48 0 0 1 0.53,0.48 0.42,0.42 0 0 1 -0.42,0.46 0.41,0.41 0 0 1 -0.5,-0.36 0.48,0.48 0 0 1 0.39,-0.58 z" id="path237" style="fill:#cadbc0;fill-opacity:1"></path>
      <path d="m 47.93,57.46 a 0.78,0.78 0 0 1 -0.76,0.77 0.73,0.73 0 0 1 -0.7,-0.71 0.73061618,0.73061618 0 1 1 1.46,-0.06 z" id="path239" style="fill:#cadbc0;fill-opacity:1"></path>
      <path d="M 48.14,67 A 0.73,0.73 0 0 1 47.42,67.69 0.72,0.72 0 0 1 46.71,66.9 0.71,0.71 0 0 1 47.47,66.27 0.73,0.73 0 0 1 48.14,67 Z" id="path241" style="fill:#cadbc0;fill-opacity:1"></path>
      <path d="m 49.83,61.07 a 0.69,0.69 0 0 1 -0.65,0.72 0.73,0.73 0 0 1 -0.72,-0.66 0.75,0.75 0 0 1 0.66,-0.73 0.7,0.7 0 0 1 0.71,0.67 z" id="path243" style="fill:#cadbc0;fill-opacity:1"></path>
      <path d="M 49.14,66 A 0.58,0.58 0 0 1 48.6,65.43 0.76,0.76 0 0 1 49.34,64.67 0.54,0.54 0 0 1 49.91,65.23 0.79,0.79 0 0 1 49.14,66 Z" id="path245" style="fill:#cadbc0;fill-opacity:1"></path>
      <path d="m 46.74,61.92 a 0.62,0.62 0 0 1 -0.6,-0.65 0.63,0.63 0 0 1 0.72,-0.64 0.6,0.6 0 0 1 0.56,0.7 0.62,0.62 0 0 1 -0.68,0.59 z" id="path247" style="fill:#cadbc0;fill-opacity:1"></path>
      <path d="m 47.87,59.31 c -0.09,0.36 -0.28,0.6 -0.68,0.57 a 0.62163092,0.62163092 0 1 1 0.09,-1.24 0.62,0.62 0 0 1 0.59,0.67 z" id="path249" style="fill:#cadbc0;fill-opacity:1"></path>
      <path d="m 50.39,63.95 a 0.58,0.58 0 0 1 -0.57,-0.65 0.62597923,0.62597923 0 0 1 1.25,0.07 0.6,0.6 0 0 1 -0.68,0.58 z" id="path251" style="fill:#cadbc0;fill-opacity:1"></path>
      <path d="m 45.53,58.21 a 0.61,0.61 0 0 1 0.63,0.63 0.59,0.59 0 0 1 -0.54,0.62 0.61,0.61 0 0 1 -0.68,-0.58 0.62,0.62 0 0 1 0.59,-0.67 z" id="path253" style="fill:#cadbc0;fill-opacity:1"></path>
      <path d="m 47.8,63 a 0.63,0.63 0 0 1 0.65,0.61 0.62,0.62 0 1 1 -1.24,0 C 47.2,63.28 47.45,63.08 47.8,63 Z" id="path255" style="fill:#cadbc0;fill-opacity:1"></path>
      <path d="M 50,58.43 A 0.63,0.63 0 0 1 49.35,59.05 0.62,0.62 0 0 1 48.78,58.36 0.58,0.58 0 0 1 49.37,57.8 0.62,0.62 0 0 1 50,58.43 Z" id="path257" style="fill:#cadbc0;fill-opacity:1"></path>
      <path d="m 51.69,61.22 c -0.05,0.32 -0.21,0.51 -0.52,0.51 a 0.47,0.47 0 0 1 -0.53,-0.46 0.48,0.48 0 0 1 0.55,-0.54 c 0.32,0.01 0.44,0.27 0.5,0.49 z" id="path259" style="fill:#cadbc0;fill-opacity:1"></path>
    </g>
  </g>
  <metadata id="metadata439">
    <rdf:rdf>
      <cc:work rdf:about="">
        <dc:title>romanesco</dc:title>
      </cc:work>
    </rdf:rdf>
  </metadata>
</svg></svg></g></svg></g></svg>