<?xml version="1.0" standalone="no"?>
<!DOCTYPE svg PUBLIC "-//W3C//DTD SVG 20010904//EN"
 "http://www.w3.org/TR/2001/REC-SVG-20010904/DTD/svg10.dtd">
<svg version="1.0" xmlns="http://www.w3.org/2000/svg"
 width="700.000000pt" height="700.000000pt" viewBox="0 0 700.000000 700.000000"
 preserveAspectRatio="xMidYMid meet">
<metadata>
Created by potrace 1.14, written by Peter Selinger 2001-2017
</metadata>
<g transform="translate(0.000000,700.000000) scale(0.100000,-0.100000)"
fill="#000000" stroke="none">
<path d="M3367 6390 c-49 -39 -98 -148 -136 -305 -7 -27 -18 -58 -26 -68 -8
-11 -50 -29 -96 -43 -99 -29 -125 -44 -146 -89 -14 -29 -15 -42 -5 -85 31
-135 92 -201 147 -159 30 25 31 42 5 112 -11 30 -18 61 -15 70 7 17 133 60
174 59 15 0 52 -7 82 -14 30 -8 60 -13 67 -12 6 1 20 2 30 3 24 1 42 40 32 67
-8 20 -28 31 -102 54 -21 6 -40 16 -43 21 -7 10 36 176 60 232 l16 39 19 -25
c24 -30 25 -65 5 -95 -20 -28 -8 -77 34 -144 35 -55 72 -82 100 -73 43 13 34
69 -14 85 -28 9 -45 27 -45 46 0 2 15 4 34 4 65 0 67 32 8 180 -30 77 -65 126
-103 146 -37 19 -51 18 -82 -6z"/>
<path d="M3753 6160 c-33 -14 -51 -47 -141 -270 -107 -262 -108 -265 -87 -296
32 -49 77 -24 117 64 17 37 46 110 64 162 58 162 65 180 73 180 8 0 39 -59 43
-83 2 -10 -7 -22 -21 -30 -41 -21 -49 -43 -23 -69 19 -20 26 -21 52 -11 29 11
31 10 43 -20 41 -99 79 -219 74 -231 -4 -9 -33 -29 -65 -45 -43 -22 -63 -38
-70 -58 -24 -69 36 -100 126 -66 64 23 132 83 132 115 0 28 -160 520 -181 558
-31 55 -53 82 -80 96 -15 7 -29 14 -31 13 -2 0 -13 -4 -25 -9z"/>
<path d="M4183 5902 c-51 -31 -102 -65 -113 -74 -26 -23 -26 -60 0 -83 27 -25
75 -15 146 30 31 20 60 33 65 28 5 -5 11 -26 15 -48 7 -47 12 -54 46 -60 16
-3 32 2 46 16 29 26 29 99 1 174 -35 95 -75 98 -206 17z"/>
<path d="M3260 5841 c-15 -29 -12 -48 11 -64 38 -27 87 9 71 53 -13 34 -65 41
-82 11z"/>
<path d="M3426 5796 c-8 -20 -26 -41 -40 -47 -64 -29 -27 -114 38 -89 16 6 26
17 26 29 0 11 17 33 37 50 33 28 36 33 27 58 -7 22 -17 29 -41 31 -29 3 -34
-1 -47 -32z"/>
<path d="M3802 5738 c-7 -7 -12 -22 -12 -35 0 -27 42 -42 65 -23 28 23 11 70
-25 70 -9 0 -21 -5 -28 -12z"/>
<path d="M4202 5734 c-24 -17 -30 -62 -10 -82 39 -39 112 12 87 60 -22 41 -42
47 -77 22z"/>
<path d="M3833 5619 c-13 -4 -24 -13 -24 -19 -1 -5 -2 -16 -3 -22 -7 -42 56
-67 84 -34 29 36 -13 92 -57 75z"/>
<path d="M4215 5596 c-18 -27 -11 -52 17 -67 18 -10 18 -11 -7 -41 -18 -21
-25 -38 -21 -52 3 -12 6 -24 6 -27 0 -3 11 -11 25 -17 21 -10 41 -7 116 18 98
32 266 66 276 56 3 -3 -3 -8 -13 -11 -58 -19 -71 -54 -30 -81 31 -19 32 -46 6
-94 l-19 -35 -1 36 c0 40 -15 59 -45 59 -27 0 -45 -18 -45 -46 0 -32 25 -54
55 -48 23 4 25 1 25 -30 0 -18 7 -39 15 -46 64 -53 156 135 152 311 -3 109
-12 117 -109 99 -40 -8 -75 -14 -78 -15 -3 -1 -25 -5 -50 -9 -25 -5 -53 -10
-63 -12 -11 -2 -46 -6 -78 -10 l-60 -7 4 29 c8 57 -48 86 -78 40z"/>
<path d="M2662 5565 c-47 -20 -56 -54 -33 -118 30 -83 110 -280 126 -307 20
-37 59 -48 85 -25 11 10 20 27 20 37 0 11 -27 85 -60 165 -33 81 -58 148 -56
150 4 4 64 -11 206 -53 62 -18 145 -58 155 -74 11 -17 -14 -39 -56 -50 -54
-15 -64 -56 -19 -80 14 -8 25 -4 48 15 17 14 39 25 50 25 13 0 23 9 27 23 4
12 20 36 36 53 38 39 32 55 -40 103 -164 109 -398 175 -489 136z"/>
<path d="M3598 5418 c-30 -10 -65 -70 -94 -162 l-18 -58 26 -23 c41 -35 66
-23 96 47 14 32 30 58 37 58 6 0 21 -9 34 -21 21 -20 22 -22 5 -40 -10 -11
-18 -34 -18 -52 0 -31 -1 -32 -38 -29 -46 5 -68 -11 -68 -47 0 -32 44 -79 81
-87 130 -27 229 34 229 140 0 39 -45 135 -82 176 -62 69 -147 112 -190 98z"/>
<path d="M4038 5403 c-22 -6 -35 -50 -19 -66 16 -16 14 -36 -9 -64 -25 -32
-25 -34 0 -60 15 -17 26 -20 47 -14 26 7 28 11 28 64 0 31 5 61 13 68 17 18
15 50 -5 65 -19 14 -26 15 -55 7z"/>
<path d="M2944 5366 c-12 -9 -15 -20 -10 -39 5 -22 12 -27 36 -27 23 0 31 5
36 26 10 41 -27 65 -62 40z"/>
<path d="M4140 5317 c-34 -26 -9 -90 32 -84 45 7 66 67 29 87 -25 13 -42 12
-61 -3z"/>
<path d="M4865 5133 c-127 -16 -142 -19 -172 -38 -31 -21 -43 -54 -30 -83 18
-38 48 -39 297 -8 63 8 118 12 122 10 4 -3 19 -25 33 -49 25 -42 25 -45 10
-74 -17 -35 -22 -36 -49 -16 -15 12 -17 19 -8 43 14 40 -9 74 -46 70 -40 -5
-53 -50 -24 -81 14 -15 20 -30 16 -40 -10 -27 4 -63 28 -74 21 -9 19 -12 -35
-68 -61 -63 -71 -97 -37 -115 34 -18 71 1 144 74 105 105 155 210 162 340 4
70 -14 111 -52 120 -40 10 -243 4 -359 -11z"/>
<path d="M4190 5123 c-65 -16 -82 -31 -82 -69 0 -35 35 -66 68 -60 28 5 29 2
9 -53 -16 -46 -8 -83 21 -99 15 -8 13 -12 -16 -27 -74 -38 -160 -8 -190 66
-12 27 -11 39 5 86 l19 55 -23 19 c-33 27 -55 24 -90 -11 -36 -37 -53 -90 -44
-145 18 -116 111 -201 233 -212 147 -14 284 130 283 297 0 142 -58 188 -193
153z"/>
<path d="M3073 5080 c-79 -35 -108 -117 -84 -242 31 -169 134 -270 275 -271
76 0 124 21 175 80 73 82 77 178 15 308 -36 76 -123 125 -158 90 -24 -24 -20
-63 7 -76 56 -26 103 -165 77 -230 -43 -102 -213 -93 -264 14 -31 67 -41 167
-19 188 5 4 30 15 58 24 61 20 75 31 75 60 0 60 -81 89 -157 55z"/>
<path d="M4866 4964 c-30 -29 -11 -84 29 -84 49 0 72 52 37 83 -23 21 -46 22
-66 1z"/>
<path d="M4503 4939 c-51 -19 -53 -88 -2 -109 72 -30 114 71 44 107 -12 6 -29
7 -42 2z"/>
<path d="M3680 4927 c-40 -20 -29 -77 13 -77 45 0 62 43 29 73 -15 13 -22 14
-42 4z"/>
<path d="M3266 4897 c-12 -9 -16 -22 -13 -42 2 -17 -2 -47 -11 -68 -13 -35
-13 -39 3 -57 37 -40 89 -12 82 44 -2 17 2 45 9 63 21 54 -24 94 -70 60z"/>
<path d="M2308 4855 c-2 -2 -32 -6 -66 -10 -135 -13 -147 -33 -102 -160 17
-49 39 -139 50 -200 24 -147 45 -223 87 -325 38 -93 62 -131 108 -173 82 -76
157 -79 180 -8 5 18 0 28 -31 54 -78 67 -115 110 -143 165 -30 60 -68 173 -77
231 -15 91 -24 131 -51 219 -14 46 -24 85 -22 87 12 10 142 21 232 19 115 -3
205 -22 276 -59 58 -29 92 -63 137 -137 27 -45 41 -58 59 -58 37 0 50 33 35
86 -35 124 -174 232 -340 264 -41 8 -325 12 -332 5z"/>
<path d="M4896 4834 c-9 -8 -16 -18 -17 -22 0 -4 -2 -15 -4 -24 -9 -47 64 -78
99 -42 36 35 10 104 -39 104 -13 0 -31 -7 -39 -16z"/>
<path d="M4643 4819 c-46 -17 -50 -73 -6 -90 35 -13 41 -12 59 16 28 43 -6 92
-53 74z"/>
<path d="M4466 4785 c-28 -21 -25 -73 4 -97 26 -21 56 -16 83 14 23 27 22 44
-8 73 -27 28 -51 31 -79 10z"/>
<path d="M3662 4778 c-25 -25 -6 -68 30 -68 9 0 22 9 28 20 22 40 -26 80 -58
48z"/>
<path d="M2582 4627 c-24 -11 -28 -37 -12 -68 14 -25 66 -26 79 -1 5 9 10 19
12 22 6 11 -21 48 -38 52 -10 3 -28 0 -41 -5z"/>
<path d="M1595 4606 c-33 -14 -49 -39 -65 -105 -10 -40 -51 -90 -74 -91 -25
-1 -86 -56 -109 -99 -42 -75 -42 -108 -2 -341 26 -150 34 -185 76 -353 17 -65
29 -125 27 -134 -2 -9 -19 8 -44 44 -167 236 -357 434 -624 648 -41 33 -84 68
-95 77 -109 89 -197 154 -232 170 -84 37 -185 22 -274 -40 -30 -21 -77 -51
-106 -67 -71 -38 -80 -63 -60 -166 33 -163 112 -271 234 -319 143 -57 221
-115 286 -213 71 -106 178 -439 194 -602 16 -156 -2 -444 -28 -461 -13 -8
-111 150 -173 278 -30 62 -70 160 -90 218 -29 86 -42 111 -72 137 -83 73 -219
49 -273 -48 -76 -134 -65 -367 30 -659 133 -412 441 -859 592 -860 13 0 47 40
47 55 0 9 -42 57 -94 108 -112 110 -206 248 -306 452 -68 138 -146 354 -170
470 -17 82 -19 250 -2 266 10 11 12 9 13 -7 0 -10 2 -27 4 -36 2 -9 6 -34 9
-55 50 -346 191 -633 427 -872 213 -215 495 -366 843 -452 130 -32 154 -47
152 -96 -1 -28 -2 -28 -56 -24 -30 2 -64 5 -75 7 -11 2 -40 7 -65 10 -25 3
-97 17 -160 31 -63 13 -125 25 -138 25 -56 1 -82 -70 -40 -109 48 -44 226 -82
402 -88 172 -5 204 -24 250 -150 61 -162 161 -313 284 -425 105 -97 208 -139
329 -134 107 4 186 40 263 119 25 26 55 51 67 56 53 20 297 -41 461 -117 103
-48 146 -59 209 -56 79 4 145 37 221 112 52 51 83 72 114 80 24 7 68 23 99 35
67 28 88 25 137 -24 140 -139 349 -205 647 -205 97 0 220 10 234 18 3 3 27 7
51 11 128 19 338 109 462 198 92 67 187 163 209 212 11 24 20 68 22 100 3 48
8 60 33 80 16 14 32 24 35 25 14 0 78 107 90 148 15 50 15 50 102 87 78 32
223 121 293 180 352 294 696 844 828 1320 41 149 50 212 50 360 1 111 -1 123
-23 156 -38 56 -84 82 -151 87 -75 5 -133 -21 -192 -87 -60 -68 -92 -133 -188
-391 -33 -91 -71 -185 -82 -210 -36 -75 -32 -22 8 111 45 149 52 238 24 311
-25 66 -63 114 -108 137 -33 17 -42 18 -76 6 -22 -8 -50 -26 -62 -42 -30 -36
-109 -230 -169 -410 -43 -131 -49 -143 -71 -143 -31 0 -64 33 -64 65 0 28 68
238 101 313 121 274 289 570 429 757 45 59 61 111 50 158 -9 43 -17 57 -58
101 -56 61 -69 56 -331 -122 -87 -60 -184 -135 -225 -176 -75 -75 -117 -96
-178 -90 -38 4 -118 16 -133 20 -5 2 -19 5 -30 8 -11 2 -67 17 -125 32 -191
49 -330 37 -330 -29 0 -40 33 -60 103 -63 122 -5 183 -14 282 -40 63 -17 132
-27 186 -29 94 -2 112 -8 105 -33 -3 -10 -7 -33 -10 -52 -5 -37 -47 -185 -65
-233 -10 -26 -13 -27 -60 -21 -50 6 -59 2 -66 -36 -2 -12 6 -27 21 -39 13 -10
24 -24 24 -30 0 -13 -78 -91 -91 -91 -5 0 -6 7 -3 15 20 51 -39 92 -77 54 -11
-11 -19 -24 -19 -30 0 -23 21 -47 46 -53 l26 -7 -26 -24 c-26 -24 -30 -34 -27
-67 1 -9 -9 -27 -23 -41 -22 -22 -24 -30 -16 -54 13 -36 44 -56 100 -63 40 -4
47 -9 69 -49 l24 -44 -23 -17 c-27 -20 -28 -48 -6 -113 19 -55 20 -85 6 -122
-8 -22 -15 -26 -33 -21 -31 7 -67 -19 -67 -48 0 -24 28 -56 48 -56 18 0 14
-40 -8 -88 -20 -43 -20 -44 -60 -37 -62 10 -88 -25 -54 -74 15 -21 15 -24 0
-39 -14 -15 -18 -14 -44 11 -32 31 -72 35 -94 10 -25 -30 -27 -49 -7 -82 l19
-32 -37 -16 c-151 -63 -328 -5 -410 134 -62 107 -82 264 -48 388 39 146 163
313 315 427 35 27 45 40 45 63 0 42 -38 54 -97 32 -90 -35 -247 -206 -316
-343 -60 -121 -77 -189 -77 -314 0 -132 24 -227 81 -317 138 -219 421 -280
634 -137 145 98 237 230 278 404 39 161 42 214 17 274 -24 56 -20 71 18 74 51
4 122 -17 231 -68 56 -26 140 -64 188 -85 47 -20 89 -44 92 -52 23 -60 -107
-297 -205 -372 l-25 -20 -29 24 c-28 21 -29 25 -16 48 12 23 12 29 -3 52 -19
29 -46 32 -69 7 -24 -26 -21 -49 8 -77 16 -14 22 -26 15 -30 -13 -8 -13 -72 0
-80 18 -11 10 -30 -17 -42 -48 -23 -63 -17 -61 24 2 49 -30 76 -72 61 -38 -13
-47 -46 -25 -88 l17 -33 -80 7 c-66 6 -82 4 -96 -9 -21 -21 -20 -53 1 -77 23
-26 5 -41 -52 -44 -67 -4 -81 -11 -111 -57 -30 -49 -73 -80 -132 -98 -61 -18
-76 -39 -72 -102 8 -127 4 -192 -14 -226 -42 -80 -188 -191 -250 -191 -16 0
-8 12 37 56 159 152 211 329 142 483 -74 164 -345 287 -545 246 -80 -16 -199
-106 -226 -172 -18 -42 -18 -45 6 -71 33 -35 57 -27 114 34 92 101 163 117
323 74 104 -28 176 -70 210 -122 25 -37 28 -50 28 -127 0 -68 -5 -94 -22 -126
-31 -58 -77 -101 -162 -151 -99 -58 -189 -87 -273 -87 -58 -1 -77 4 -142 37
-57 29 -84 37 -111 34 -28 -3 -34 -1 -31 12 41 139 35 328 -16 475 -38 110
-101 215 -177 294 -23 24 -41 44 -41 46 0 2 12 3 28 1 42 -5 144 19 201 49 95
48 171 143 200 251 24 90 11 204 -25 218 -31 12 -63 -12 -70 -51 -4 -21 -11
-44 -17 -50 -16 -21 -58 -15 -78 11 -27 34 -55 41 -84 22 -18 -12 -25 -25 -25
-50 0 -43 26 -66 75 -66 45 0 90 -39 80 -71 -7 -22 -18 -24 -37 -6 -32 32 -58
39 -83 23 -35 -23 -40 -51 -15 -86 l21 -29 -42 -11 c-98 -27 -181 -12 -262 47
-47 34 -107 121 -107 154 0 27 -35 51 -63 44 -48 -12 -54 -74 -15 -154 25 -51
15 -63 -41 -53 -71 12 -295 4 -343 -13 -7 -2 -24 -6 -38 -9 -79 -13 -226 -82
-306 -141 -154 -116 -270 -279 -289 -408 -29 -191 -28 -363 4 -457 12 -36 35
-86 51 -112 40 -65 15 -63 -41 3 -83 97 -139 178 -139 198 0 12 10 38 23 59
46 73 54 142 16 142 -10 0 -39 5 -64 12 -39 10 -49 10 -73 -4 l-28 -17 -63 93
c-34 51 -93 125 -131 165 -39 40 -70 77 -70 81 0 15 107 76 199 114 l89 37 49
-52 c73 -79 73 -79 93 -79 10 0 26 7 34 16 54 53 -42 174 -135 169 -19 -1 -44
4 -56 12 -12 7 -33 15 -45 17 -49 7 -164 -40 -271 -112 l-68 -45 -56 10 c-77
14 -137 8 -186 -17 -110 -57 -148 -138 -149 -318 0 -67 -3 -90 -11 -85 -43 25
-147 117 -147 130 0 3 13 23 29 46 15 23 52 89 82 147 59 117 191 319 243 375
l34 36 62 -40 c99 -64 162 -85 256 -86 67 0 86 4 103 19 43 39 13 108 -40 91
-18 -6 -19 -3 -13 34 8 49 -7 71 -45 71 -36 0 -60 -19 -69 -54 -5 -16 -13 -31
-20 -34 -15 -5 -28 28 -15 37 19 13 22 42 7 67 -23 34 -57 31 -87 -8 l-25 -32
-36 25 -36 24 41 6 c55 8 76 44 47 81 -34 42 -98 14 -93 -41 3 -39 -13 -32
-47 22 -36 58 -182 508 -171 526 9 14 17 17 83 26 19 3 42 7 50 10 8 2 42 7
75 11 33 3 62 8 65 9 7 4 240 18 300 18 55 0 114 -18 153 -46 16 -10 54 -58
85 -105 31 -47 65 -87 74 -88 9 -1 26 7 37 17 25 24 20 39 -42 136 -54 84
-122 146 -191 172 -44 17 -72 20 -214 18 -105 -2 -166 1 -171 8 -4 5 -9 28
-10 49 -3 53 -13 70 -65 100 -41 24 -51 39 -125 185 -45 88 -81 162 -81 165 0
3 33 15 73 27 66 19 147 50 222 85 52 23 148 41 205 37 66 -4 93 11 93 51 0
15 -10 38 -22 49 -29 30 -147 33 -246 7 -38 -10 -73 -15 -77 -12 -4 4 -18 53
-33 110 -45 180 -120 354 -180 417 -35 38 -45 41 -90 21z m-1176 -307 c32 -19
223 -171 350 -278 180 -151 290 -264 441 -451 198 -244 200 -247 200 -293 0
-43 -38 -120 -93 -190 l-30 -38 -92 188 c-157 318 -401 657 -593 823 -95 83
-147 97 -173 48 -17 -32 -3 -62 53 -108 130 -108 252 -239 350 -375 133 -185
361 -625 336 -650 -12 -13 -84 -25 -147 -25 -107 0 -153 41 -176 159 -11 59
-49 194 -82 290 -73 218 -153 344 -275 436 -57 44 -192 115 -217 115 -17 0
-71 61 -95 109 -40 79 -51 141 -25 141 6 0 35 19 66 43 114 87 140 94 202 56z
m1058 -34 c11 -8 23 -29 27 -47 3 -18 8 -46 10 -63 3 -16 15 -74 26 -129 25
-125 25 -143 -1 -151 -36 -12 -64 2 -77 37 -30 83 -73 285 -67 315 9 49 44 65
82 38z m4639 -243 c17 -12 25 -42 14 -61 -5 -10 -35 -37 -67 -61 -32 -24 -84
-66 -116 -93 -51 -44 -62 -49 -84 -41 -14 5 -30 20 -35 33 -7 21 -2 30 39 70
51 49 210 161 227 161 6 0 16 -4 22 -8z m-4488 -361 c25 -75 -7 -121 -57 -83
-28 20 -50 75 -43 108 2 12 14 26 25 32 31 14 58 -6 75 -57z m5041 -385 c26
-31 -28 -81 -56 -53 -23 23 -9 67 21 67 13 0 29 -6 35 -14z m-430 -15 c23 -23
21 -38 -15 -157 -25 -84 -50 -118 -80 -112 -32 6 -39 32 -26 96 36 176 70 224
121 173z m381 -181 c23 -43 -29 -100 -65 -70 -18 15 -20 61 -3 78 19 19 56 14
68 -8z m-5278 -247 c9 -10 30 -69 48 -132 36 -123 34 -143 -13 -149 -33 -4
-58 33 -87 127 -25 81 -26 146 -2 160 25 15 37 13 54 -6z m5215 -29 c12 -19 8
-32 -48 -145 -82 -165 -213 -363 -255 -385 -28 -15 -35 -16 -49 -4 -26 22 -13
66 46 155 29 44 88 145 132 225 44 80 87 153 96 163 19 23 60 18 78 -9z
m-2752 -520 c11 -6 37 -17 57 -24 l37 -11 -19 -22 c-28 -30 -25 -67 11 -118
99 -142 136 -219 170 -346 26 -96 31 -228 11 -303 -49 -193 -209 -345 -407
-390 -50 -11 -62 2 -71 77 -4 38 -8 73 -9 78 -1 6 4 20 12 32 20 34 15 65 -17
103 -33 38 -39 82 -19 139 11 31 9 34 -26 67 -27 24 -35 39 -30 51 25 63 10
113 -34 113 -21 0 -61 36 -61 55 0 25 -23 64 -41 70 -26 9 -221 -63 -261 -95
-65 -54 -69 -74 -64 -307 3 -115 7 -217 10 -228 2 -11 7 -50 11 -88 l7 -67
-44 16 c-123 49 -235 151 -290 266 -50 102 -61 170 -56 335 3 137 4 141 40
214 109 219 316 361 578 395 30 4 137 8 237 8 100 1 184 4 188 8 7 7 42 -6 80
-28z m-2055 -354 c18 -9 35 -54 47 -120 10 -56 36 -146 82 -282 63 -189 64
-193 45 -212 -21 -21 -57 -20 -76 2 -44 53 -176 451 -180 543 -1 33 4 46 21
61 27 21 35 22 61 8z m1498 -265 c8 -7 16 -37 18 -66 12 -158 15 -213 17 -304
2 -117 -6 -153 -38 -161 -55 -14 -80 29 -90 151 -3 39 -8 104 -11 145 -12 143
-12 165 -3 203 14 54 67 70 107 32z m-1221 -484 c13 -19 23 -44 23 -56 0 -53
-64 -55 -101 -4 -27 38 -31 66 -12 84 25 25 64 14 90 -24z"/>
<path d="M3637 1960 c-16 -23 -12 -64 9 -80 22 -19 67 -7 83 21 13 24 13 29
-2 53 -22 33 -69 36 -90 6z"/>
<path d="M3816 1885 c-29 -29 5 -91 42 -78 44 16 55 49 26 77 -20 20 -48 20
-68 1z"/>
<path d="M3516 1849 c-16 -23 -12 -47 12 -66 21 -17 37 -16 56 3 31 30 9 84
-34 84 -10 0 -26 -10 -34 -21z"/>
<path d="M3664 1829 c-48 -17 -27 -93 23 -87 33 4 48 27 40 60 -7 28 -32 39
-63 27z"/>
<path d="M3802 1684 c-27 -18 -29 -55 -4 -77 24 -22 48 -21 72 3 22 22 19 59
-7 78 -22 16 -34 15 -61 -4z"/>
<path d="M3611 1666 c-21 -25 -9 -69 21 -80 50 -17 89 42 52 78 -19 20 -58 21
-73 2z"/>
<path d="M3966 1664 c-33 -32 -8 -78 35 -67 20 6 34 37 24 53 -14 23 -43 30
-59 14z"/>
<path d="M3903 1508 c-20 -27 -21 -48 -4 -70 16 -19 23 -21 47 -13 53 19 39
95 -17 95 -9 0 -21 -6 -26 -12z"/>
<path d="M3699 1479 c-24 -24 -24 -41 1 -64 27 -24 66 -13 74 21 12 47 -40 78
-75 43z"/>
<path d="M3830 1363 c-20 -8 -39 -34 -40 -53 0 -22 12 -36 37 -44 47 -15 87
70 44 94 -11 5 -21 10 -23 9 -2 0 -10 -3 -18 -6z"/>
<path d="M3660 1220 c-11 -11 -20 -27 -20 -35 0 -21 36 -55 58 -55 42 0 69 59
41 89 -25 26 -53 27 -79 1z"/>
<path d="M3819 4591 c-25 -25 -28 -33 -19 -53 6 -13 33 -36 59 -52 97 -58 112
-155 45 -289 -42 -84 -40 -109 8 -115 36 -4 73 31 110 106 30 61 33 74 33 162
0 80 -4 101 -22 135 -31 55 -64 90 -109 114 -52 28 -70 26 -105 -8z"/>
<path d="M3552 4589 c-138 -69 -239 -250 -218 -391 14 -96 77 -188 156 -228
108 -54 250 -43 250 21 0 31 -26 48 -70 43 -123 -14 -235 88 -226 206 7 99 91
201 196 239 41 15 64 30 69 44 27 74 -64 112 -157 66z"/>
<path d="M2680 4560 c-8 -14 -8 -26 0 -40 13 -25 56 -26 69 -2 5 9 11 20 13
23 1 3 -3 13 -11 22 -19 23 -58 21 -71 -3z"/>
<path d="M4565 4551 c-131 -37 -188 -83 -158 -130 16 -25 50 -25 132 0 99 29
238 32 329 5 46 -14 62 -23 62 -36 0 -37 -10 -46 -46 -42 -28 3 -41 -1 -63
-22 -15 -14 -30 -23 -34 -20 -3 4 -27 1 -52 -5 -38 -10 -49 -9 -70 5 -23 15
-27 15 -50 0 -32 -21 -34 -68 -4 -89 25 -18 36 -17 70 6 21 14 30 15 56 5 26
-10 34 -9 48 5 19 19 42 21 79 7 27 -10 27 -29 -2 -62 -13 -16 -17 -16 -35 -3
-41 29 -87 13 -87 -29 0 -11 12 -33 28 -49 l27 -29 -24 -19 -25 -20 -18 23
c-10 13 -18 37 -17 53 2 54 -1 62 -27 74 -28 13 -46 4 -65 -30 -7 -13 -3 -25
15 -46 18 -22 22 -33 14 -46 -14 -26 0 -56 35 -72 18 -8 46 -24 63 -35 25 -16
37 -18 57 -11 45 17 133 117 171 193 38 79 84 224 93 299 5 42 3 49 -18 62
-37 23 -265 71 -349 73 -44 1 -100 -6 -135 -15z"/>
<path d="M2522 4508 c-18 -18 -14 -56 6 -67 12 -7 26 -6 43 3 23 11 26 27 14
64 -6 15 -47 16 -63 0z"/>
<path d="M2788 4499 c-36 -21 -16 -79 27 -79 12 0 26 5 33 12 7 7 12 21 12 33
0 40 -35 56 -72 34z"/>
<path d="M5285 4462 c-41 -9 -75 -42 -75 -72 0 -16 6 -32 13 -37 6 -4 93 -10
192 -13 177 -5 180 -5 183 -28 3 -20 1 -21 -22 -12 -65 24 -117 -49 -66 -95
12 -11 29 -16 45 -13 15 3 25 1 25 -6 0 -16 -130 -40 -144 -26 -29 29 -86 -10
-86 -58 0 -37 26 -72 53 -72 12 0 39 11 59 25 20 14 41 25 46 25 5 0 22 -16
36 -35 52 -68 111 -33 147 86 25 82 29 197 10 267 -18 64 -44 72 -238 70 -87
-1 -167 -3 -178 -6z"/>
<path d="M2878 4416 c-21 -15 -24 -56 -6 -74 16 -16 53 -15 65 1 21 27 22 48
3 67 -23 23 -38 25 -62 6z"/>
<path d="M2586 4404 c-20 -20 -20 -43 0 -65 23 -26 74 0 74 37 0 17 -28 44
-45 44 -7 0 -21 -7 -29 -16z"/>
<path d="M3830 4374 c-23 -27 -1 -68 38 -72 26 -3 34 1 43 21 16 35 -3 67 -40
67 -16 0 -34 -7 -41 -16z"/>
<path d="M2712 4364 c-28 -19 -29 -60 -1 -74 54 -30 106 34 59 72 -27 22 -30
22 -58 2z"/>
<path d="M3674 4337 c-48 -41 -31 -117 26 -117 59 0 96 68 61 111 -25 31 -56
33 -87 6z"/>
<path d="M2441 4304 c-30 -21 -28 -69 3 -89 42 -28 81 -6 92 51 6 36 -59 62
-95 38z"/>
<path d="M2800 4280 c-27 -50 36 -95 71 -51 15 18 16 27 7 47 -14 31 -62 34
-78 4z"/>
<path d="M3814 4270 c-13 -5 -27 -24 -34 -44 -6 -20 -24 -48 -40 -62 -24 -23
-27 -31 -17 -51 19 -43 74 -23 91 34 4 12 20 26 37 32 26 9 30 15 27 42 -4 38
-34 61 -64 49z"/>
<path d="M5358 4269 c-21 -12 -24 -59 -6 -77 33 -33 94 2 83 47 -10 40 -40 52
-77 30z"/>
<path d="M2613 4252 c-26 -16 -19 -54 11 -71 35 -20 47 -72 23 -99 -27 -33
-28 -52 -2 -78 30 -29 52 -26 104 15 56 44 58 52 25 117 -25 50 -33 59 -59 62
-21 2 -35 12 -47 32 -17 30 -33 36 -55 22z"/>
<path d="M4226 4244 c-20 -20 -20 -27 2 -54 36 -44 98 1 71 52 -12 22 -52 24
-73 2z"/>
<path d="M3020 4170 c-11 -11 -20 -25 -20 -31 0 -6 9 -22 20 -36 21 -27 26
-58 10 -68 -20 -12 17 -65 47 -65 7 0 21 10 32 22 l21 21 -21 34 c-18 29 -19
37 -8 70 11 34 10 38 -11 55 -29 23 -45 23 -70 -2z"/>
<path d="M2512 4158 c-30 -30 0 -75 42 -64 27 7 38 35 24 60 -11 19 -49 21
-66 4z"/>
<path d="M4313 4142 c-24 -15 -20 -69 7 -77 46 -15 77 16 60 60 -10 25 -41 33
-67 17z"/>
<path d="M4158 4133 c-23 -6 -33 -45 -18 -72 13 -25 52 -28 74 -5 21 21 20 40
-4 64 -20 20 -22 21 -52 13z"/>
<path d="M2930 4072 c-37 -12 -41 -67 -6 -83 34 -16 66 3 66 40 0 30 -32 52
-60 43z"/>
<path d="M4177 3899 c-56 -13 -89 -33 -141 -86 -117 -118 -173 -309 -137 -467
32 -137 160 -253 303 -274 146 -21 353 45 453 145 39 39 44 77 12 97 -19 12
-17 13 -118 -55 -65 -44 -174 -80 -244 -80 -95 -1 -195 47 -240 116 -35 55
-45 97 -41 185 5 120 72 236 168 293 65 38 84 62 70 91 -15 34 -40 44 -85 35z"/>
<path d="M4538 3894 c-24 -24 -7 -60 57 -117 30 -26 61 -65 71 -86 21 -48 52
-68 83 -52 43 23 14 116 -53 174 -123 106 -130 109 -158 81z"/>
<path d="M2143 3841 c-9 -14 -8 -24 1 -42 15 -31 47 -35 71 -9 15 17 16 24 7
45 -14 31 -61 35 -79 6z"/>
<path d="M2273 3800 c-24 -10 -26 -15 -23 -67 1 -18 -6 -48 -15 -67 -22 -45
-7 -76 36 -76 35 0 52 31 38 68 -7 19 -4 30 16 54 31 37 32 62 3 82 -25 18
-25 18 -55 6z"/>
<path d="M2116 3731 c-31 -34 -8 -95 32 -87 41 8 52 19 52 51 0 37 -4 42 -42
49 -17 3 -32 -2 -42 -13z"/>
<path d="M3142 3733 c-29 -25 -36 -58 -17 -77 9 -9 22 -16 28 -17 7 0 21 -2
32 -4 29 -6 65 22 65 48 0 29 -39 67 -67 67 -11 0 -30 -8 -41 -17z"/>
<path d="M3338 3738 c-27 -22 -29 -46 -5 -72 24 -27 50 -34 85 -22 33 11 34
60 0 89 -24 20 -58 22 -80 5z"/>
<path d="M2882 3685 c-118 -51 -196 -181 -205 -344 -12 -203 85 -373 245 -429
273 -95 532 19 672 295 30 59 32 85 11 103 -29 24 -59 3 -95 -66 -36 -68 -105
-152 -117 -141 -3 4 2 16 12 27 33 36 16 91 -30 95 -18 2 -41 -25 -65 -75
l-23 -50 23 -25 c21 -22 22 -27 9 -40 -8 -8 -30 -21 -50 -29 l-36 -15 -15 38
c-11 29 -22 39 -44 44 -16 3 -42 17 -58 31 -22 20 -33 23 -47 16 -38 -21 -36
-59 6 -78 17 -8 25 -20 25 -37 0 -25 -2 -25 -50 -21 -161 16 -264 140 -255
307 6 96 9 116 29 160 20 48 68 95 123 121 47 22 62 41 57 72 -7 45 -66 65
-122 41z"/>
<path d="M3498 3636 c-23 -17 -23 -37 2 -90 11 -24 25 -64 32 -89 14 -53 47
-77 73 -51 16 17 18 24 15 69 -4 62 -27 122 -59 154 -24 24 -39 26 -63 7z"/>
<path d="M4516 3635 c-15 -8 -40 -17 -54 -20 -48 -8 -62 -49 -31 -88 24 -32
52 -34 78 -8 32 32 52 39 84 30 42 -12 76 -1 83 27 8 30 -1 43 -42 60 -43 18
-82 18 -118 -1z"/>
<path d="M4911 3636 c-32 -38 -15 -85 33 -89 20 -1 34 5 49 25 19 25 19 28 3
52 -19 29 -66 36 -85 12z"/>
<path d="M2028 3616 c-29 -32 -21 -72 20 -87 53 -20 96 40 61 85 -23 29 -55
30 -81 2z"/>
<path d="M2356 3625 c-9 -9 -16 -23 -16 -31 0 -7 -18 -25 -40 -39 -42 -27 -52
-56 -27 -87 33 -42 92 -21 101 36 3 16 17 41 30 55 18 19 24 33 19 49 -3 12
-9 22 -13 22 -5 0 -15 3 -23 6 -8 3 -22 -2 -31 -11z"/>
<path d="M5510 3581 c-15 -29 -12 -48 11 -64 24 -17 56 -12 68 12 5 9 11 19
13 22 1 4 -6 16 -16 28 -24 26 -62 27 -76 2z"/>
<path d="M4724 3560 c-22 -9 -28 -24 -39 -101 -8 -56 6 -89 39 -89 38 0 58 32
64 106 4 57 2 69 -13 81 -21 15 -22 15 -51 3z"/>
<path d="M2136 3521 c-40 -44 8 -115 58 -89 28 15 36 28 36 60 0 46 -62 65
-94 29z"/>
<path d="M5007 3492 c-22 -24 -21 -55 1 -75 24 -22 48 -21 72 3 22 22 19 59
-7 78 -24 17 -47 15 -66 -6z"/>
<path d="M5387 3482 c-42 -46 2 -109 58 -84 24 11 30 27 25 62 -4 35 -58 50
-83 22z"/>
<path d="M4483 3477 c-23 -10 -30 -41 -15 -63 4 -6 38 -10 81 -10 64 1 75 4
81 21 15 41 -23 71 -68 54 -13 -5 -31 -5 -40 0 -10 5 -26 4 -39 -2z"/>
<path d="M4871 3451 c-7 -5 -13 -21 -13 -36 0 -61 77 -61 87 0 5 36 -40 58
-74 36z"/>
<path d="M3032 3410 c-53 -32 -45 -120 11 -120 55 0 99 65 73 105 -20 31 -49
36 -84 15z"/>
<path d="M3426 3414 c-9 -8 -16 -17 -16 -18 0 -1 -5 -28 -11 -60 -9 -50 -8
-60 7 -77 30 -34 73 -16 87 36 2 11 12 36 20 56 14 32 14 38 1 57 -18 26 -65
29 -88 6z"/>
<path d="M5253 3384 c-15 -15 -22 -31 -19 -40 3 -9 6 -19 6 -23 0 -4 11 -13
24 -19 33 -15 70 5 74 41 7 56 -45 81 -85 41z"/>
<path d="M3286 3361 c-10 -11 -16 -28 -14 -40 2 -11 -1 -21 -7 -23 -5 -2 -11
7 -13 19 -7 46 -71 63 -91 24 -10 -17 -11 -23 -11 -46 0 -9 -8 -18 -17 -22
-31 -11 -53 -35 -53 -58 0 -25 29 -55 53 -55 27 0 57 37 57 69 0 34 18 51 31
30 16 -25 10 -67 -10 -74 -41 -13 -29 -75 15 -75 25 0 46 32 37 56 -2 6 3 17
12 24 8 7 15 9 15 5 0 -4 7 -2 15 5 8 7 15 24 15 39 0 14 11 39 25 55 29 34
31 49 9 70 -21 21 -47 20 -68 -3z"/>
<path d="M4447 3365 c-19 -18 -16 -45 6 -59 34 -22 73 28 47 59 -16 19 -35 19
-53 0z"/>
<path d="M5203 3189 c-13 -4 -23 -12 -24 -16 0 -4 -2 -16 -4 -26 -4 -23 28
-57 54 -57 27 0 51 37 42 63 -11 31 -42 47 -68 36z"/>
<path d="M4516 3015 c-28 -29 -18 -67 21 -77 14 -4 28 1 39 13 38 42 -20 104
-60 64z"/>
<path d="M2251 3001 c-26 -26 -17 -54 20 -68 18 -7 29 -18 29 -30 0 -30 29
-63 55 -63 34 0 57 27 53 64 -3 26 -9 33 -43 44 -26 8 -46 23 -57 42 -20 35
-31 37 -57 11z"/>
<path d="M4350 2950 c-11 -11 -20 -24 -20 -30 0 -5 9 -19 20 -30 11 -11 25
-20 30 -20 6 0 19 9 30 20 11 11 20 25 20 30 0 6 -9 19 -20 30 -11 11 -24 20
-30 20 -5 0 -19 -9 -30 -20z"/>
<path d="M2187 2919 c-37 -21 -8 -77 33 -64 13 4 20 15 20 30 0 29 -28 47 -53
34z"/>
<path d="M3753 2916 c-64 -20 -112 -54 -140 -99 -41 -65 -31 -115 25 -132 18
-5 31 2 63 34 23 22 56 50 75 61 37 24 110 32 158 19 43 -12 102 -18 226 -26
117 -6 138 2 126 52 -5 19 -17 28 -58 40 -28 8 -72 18 -97 21 -25 3 -86 15
-135 25 -103 22 -183 23 -243 5z"/>
<path d="M4452 2888 c-26 -32 -17 -74 18 -87 26 -9 34 -7 50 9 11 11 20 28 20
38 0 40 -64 68 -88 40z"/>
<path d="M5137 2892 c-37 -5 -61 -41 -48 -74 11 -30 29 -38 96 -45 28 -3 55
-9 60 -15 6 -5 11 -41 12 -81 1 -40 2 -80 2 -89 1 -22 36 -41 60 -33 10 3 26
23 36 45 16 35 21 39 44 34 41 -10 42 -10 56 11 9 14 10 27 4 44 -8 21 -14 23
-49 17 l-39 -6 -6 47 c-3 27 -12 59 -20 73 -27 51 -120 83 -208 72z"/>
<path d="M2720 2823 c-41 -37 -41 -77 -1 -172 17 -41 31 -79 31 -85 0 -27 41
-57 73 -54 50 5 59 35 36 120 -11 38 -20 74 -22 80 -1 7 22 11 60 13 73 2 95
16 91 59 -4 46 -51 66 -155 66 -76 0 -85 -2 -113 -27z"/>
<path d="M2113 2813 c-21 -8 -15 -51 8 -63 26 -14 49 3 49 35 0 29 -26 41 -57
28z"/>
<path d="M3317 2782 c-10 -10 -17 -26 -17 -35 0 -27 36 -56 66 -54 37 3 55 59
28 88 -22 24 -56 24 -77 1z"/>
<path d="M2347 2772 c-20 -22 -22 -56 -4 -74 28 -28 26 -46 -9 -95 -28 -38
-34 -43 -30 -23 9 53 -44 83 -87 50 -31 -25 -33 -25 -64 0 -36 28 -69 26 -87
-7 -27 -53 17 -97 75 -73 26 11 32 10 53 -9 24 -23 47 -26 76 -11 17 9 18 7
10 -21 -10 -35 0 -63 28 -78 34 -18 65 11 125 116 57 98 59 103 47 138 -7 20
-18 39 -26 42 -8 3 -14 11 -14 18 0 41 -64 59 -93 27z"/>
<path d="M3068 2768 c-24 -19 -26 -49 -6 -90 24 -50 23 -82 -7 -126 -31 -45
-31 -65 -3 -92 35 -32 94 -9 127 50 45 80 37 170 -21 236 -31 36 -63 43 -90
22z"/>
<path d="M2210 2750 c-16 -30 4 -60 40 -60 23 0 31 5 36 25 9 38 -2 55 -35 55
-20 0 -34 -7 -41 -20z"/>
<path d="M2022 2718 c-17 -17 -15 -55 4 -62 49 -19 82 18 48 55 -20 22 -35 24
-52 7z"/>
<path d="M3385 2669 c-28 -53 20 -112 70 -86 58 30 43 103 -23 111 -28 3 -35
-1 -47 -25z"/>
<path d="M3270 2595 c-17 -21 -4 -62 22 -68 41 -11 67 34 43 73 -9 15 -51 12
-65 -5z"/>
<path d="M5290 2480 c-26 -49 32 -92 71 -53 16 16 18 24 10 46 -13 34 -64 38
-81 7z"/>
<path d="M2521 2481 c-17 -11 -19 -67 -3 -83 14 -14 58 -13 77 2 18 15 20 61
3 78 -14 14 -57 16 -77 3z"/>
<path d="M5912 2444 c-27 -18 -29 -55 -4 -77 26 -23 58 -21 76 5 21 29 20 51
-2 71 -23 21 -41 21 -70 1z"/>
<path d="M2660 2420 c-25 -25 -26 -62 -2 -83 39 -35 92 -10 92 42 0 50 -56 75
-90 41z"/>
<path d="M4372 2403 c-22 -9 -33 -40 -22 -67 8 -21 16 -26 43 -26 27 0 36 5
46 26 21 46 -19 86 -67 67z"/>
<path d="M5114 2388 c-36 -29 -33 -72 6 -88 25 -10 34 -10 55 4 14 10 31 28
37 42 23 50 -49 80 -98 42z"/>
<path d="M2573 2328 c-19 -25 -21 -46 -7 -66 23 -34 74 -11 74 34 0 35 -48 57
-67 32z"/>
<path d="M5608 2329 c-11 -6 -18 -22 -18 -40 0 -39 43 -59 71 -33 24 22 24 46
1 67 -21 19 -30 20 -54 6z"/>
<path d="M4427 2252 c-34 -38 -15 -82 35 -82 50 0 60 76 12 94 -24 9 -29 8
-47 -12z"/>
<path d="M4261 2229 c-29 -27 -27 -63 5 -88 54 -43 127 34 78 83 -8 9 -18 16
-22 17 -4 0 -15 2 -24 4 -9 2 -26 -6 -37 -16z"/>
<path d="M2363 2013 c-6 -5 -14 -20 -18 -34 -9 -36 18 -55 91 -63 50 -5 65 -4
78 9 21 21 20 48 -1 67 -20 18 -132 33 -150 21z"/>
<path d="M2344 1862 c-19 -13 -23 -39 -8 -60 13 -19 39 -22 63 -7 5 3 22 -6
37 -20 34 -32 59 -32 80 0 14 22 15 30 4 50 -15 28 -39 40 -54 25 -14 -14 -48
-12 -70 5 -22 17 -36 18 -52 7z"/>
<path d="M4772 1818 c-18 -18 -14 -46 7 -58 38 -20 71 13 51 51 -12 21 -40 25
-58 7z"/>
<path d="M4656 1718 c-13 -19 -14 -25 -2 -43 20 -30 46 -30 72 1 l24 27 -27
19 c-36 23 -49 23 -67 -4z"/>
<path d="M4774 1710 c-26 -10 -35 -51 -20 -82 14 -29 66 -36 90 -13 24 24 20
71 -6 89 -25 18 -34 19 -64 6z"/>
<path d="M878 1625 c-9 -21 -8 -28 7 -45 43 -47 115 -7 80 46 -22 34 -71 33
-87 -1z"/>
<path d="M4680 1560 c-36 -36 -18 -90 29 -90 53 0 80 60 43 93 -25 22 -48 21
-72 -3z"/>
</g>
</svg>
